<svg id="_x33_0" enable-background="new 0 0 64 64" height="512" viewBox="0 0 64 64" width="512" xmlns="http://www.w3.org/2000/svg" xmlns:xlink="http://www.w3.org/1999/xlink"><linearGradient id="SVGID_1_" gradientUnits="userSpaceOnUse" x1="32" x2="32" y1="63" y2="1"><stop offset="0" stop-color="#9f2fff"/><stop offset="1" stop-color="#0bb1d3"/></linearGradient><path d="m51.137 7.261c-1.28-1.386-3.106-2.261-5.137-2.261s-3.857.875-5.137 2.261c-5.807.603-11.863 2.408-11.863 5.739 0 .784.374 1.902 2.002 2.977 0 .008-.002.015-.002.023 0 1.654 1.346 3 3 3 .891 0 1.684-.398 2.234-1.017 2.82.655 6.251 1.017 9.766 1.017 8.448 0 17-2.061 17-6 0-3.331-6.056-5.136-11.863-5.739zm-5.137-.261c2.716 0 4.934 2.177 4.998 4.877-.352.361-2.143 1.123-4.998 1.123s-4.646-.762-4.998-1.123c.064-2.7 2.282-4.877 4.998-4.877zm-12 10c-.552 0-1-.449-1-1s.448-1 1-1 1 .449 1 1-.448 1-1 1zm12 0c-3.241 0-6.395-.316-9.011-.894.002-.036.011-.07.011-.106 0-1.654-1.346-3-3-3-.904 0-1.705.41-2.256 1.044-.464-.37-.744-.738-.744-1.044 0-1.02 2.717-2.734 8.49-3.555-.313.792-.49 1.653-.49 2.555 0 2.201 4.187 3 7 3s7-.799 7-3c0-.902-.177-1.763-.49-2.555 5.773.821 8.49 2.535 8.49 3.555 0 1.631-5.844 4-15 4zm-16.818 29.993c.412 1.165 1.513 2.007 2.818 2.007 1.374 0 2.522-.933 2.877-2.196.884-.07 1.739-.158 2.563-.264.525.871 1.471 1.46 2.56 1.46 1.52 0 2.767-1.141 2.961-2.609 2.67-.866 4.039-2.003 4.039-3.391 0-3.24-7.473-4.364-11.029-4.716-1.591-1.416-3.679-2.284-5.971-2.284s-4.38.868-5.971 2.284c-3.557.352-11.029 1.477-11.029 4.716 0 3.779 10.149 4.9 16.182 4.993zm2.818.007c-.552 0-1-.449-1-1s.448-1 1-1 1 .449 1 1-.448 1-1 1zm8-1c-.552 0-1-.449-1-1s.448-1 1-1 1 .449 1 1-.448 1-1 1zm5-4c0 .134-.468.758-2.456 1.429-.529-.854-1.467-1.429-2.544-1.429-.417 0-.814.086-1.175.241-.194-.975-.551-1.89-1.033-2.725 5.418.772 7.208 2.119 7.208 2.484zm-15-5c3.859 0 7 3.14 7 7 0 .195-.011.39-.027.583-.717.089-1.457.164-2.223.225-.462-1.062-1.519-1.808-2.75-1.808-1.298 0-2.395.833-2.812 1.989-2.329-.029-4.387-.178-6.161-.403-.016-.194-.027-.39-.027-.586 0-3.86 3.141-7 7-7zm-7.792 2.516c-.764 1.322-1.208 2.851-1.208 4.484 0 .096.01.191.013.287-3.944-.7-6.013-1.741-6.013-2.287 0-.365 1.79-1.712 7.208-2.484zm7.792 13.484c16.262 0 29-4.832 29-11 0-3.167-3.194-6.011-9.006-8.058-.032-1.627-1.36-2.942-2.994-2.942-1.074 0-2.01.572-2.541 1.422-.801-.17-1.623-.324-2.464-.465-.023-1.634-1.355-2.957-2.995-2.957-1.395 0-2.56.961-2.894 2.253-2.001-.157-4.043-.253-6.106-.253-16.262 0-29 4.832-29 11s12.738 11 29 11zm17-20c.552 0 1 .449 1 1s-.448 1-1 1-1-.449-1-1 .448-1 1-1zm-8-2c.552 0 1 .449 1 1s-.448 1-1 1-1-.449-1-1 .448-1 1-1zm-9 2c2.128 0 4.236.098 6.292.269.48 1.019 1.509 1.731 2.708 1.731.943 0 1.775-.446 2.325-1.128.929.15 1.834.319 2.713.505.188 1.475 1.437 2.623 2.962 2.623.96 0 1.806-.461 2.356-1.165 4.801 1.699 7.644 3.976 7.644 6.165 0 4.257-11.089 9-27 9s-27-4.743-27-9 11.089-9 27-9zm-4.778-5.88c.445 1.1 1.52 1.88 2.778 1.88 1.304 0 2.406-.842 2.818-2.007 13.729-.069 22.446-1.843 25.889-5.286l-1.414-1.414c-2.972 2.972-11.657 4.632-24.479 4.701-.416-1.159-1.514-1.994-2.814-1.994-1.347 0-2.475.898-2.854 2.122-6.388.315-11.485 1.279-15.529 2.955l.766 1.848c3.824-1.586 8.695-2.501 14.839-2.805zm2.778-2.12c.552 0 1 .449 1 1s-.448 1-1 1-1-.449-1-1 .448-1 1-1zm0 34v2c-9.211 0-19-2.453-19-7h2c0 2.088 6.468 5 17 5zm-25-38h-2v-2h2v-2h2v2h2v2h-2v2h-2zm60 10h-2v2h-2v-2h-2v-2h2v-2h2v2h2zm-20 24v2h2v2h-2v2h-2v-2h-2v-2h2v-2zm-40-1h-2v-2h2v-2h2v2h2v2h-2v2h-2zm24-38c0-1.654-1.346-3-3-3s-3 1.346-3 3 1.346 3 3 3 3-1.346 3-3zm-4 0c0-.551.448-1 1-1s1 .449 1 1-.448 1-1 1-1-.449-1-1zm-12-15v4.184c-.847.302-1.514.969-1.816 1.816h-4.184v2h4.184c.302.847.969 1.514 1.816 1.816v4.184h2v-4.184c.847-.302 1.514-.969 1.816-1.816h4.184v-2h-4.184c-.302-.847-.969-1.514-1.816-1.816v-4.184zm1 8c-.552 0-1-.449-1-1s.448-1 1-1 1 .449 1 1-.448 1-1 1zm51 46h-4.184c-.302-.847-.969-1.514-1.816-1.816v-4.184h-2v4.184c-.847.302-1.514.969-1.816 1.816h-4.184v2h4.184c.302.847.969 1.514 1.816 1.816v4.184h2v-4.184c.847-.302 1.514-.969 1.816-1.816h4.184zm-7 2c-.552 0-1-.449-1-1s.448-1 1-1 1 .449 1 1-.448 1-1 1zm-49 4h2v2h-2zm25-4h-2v-2h2zm-24-12c1.654 0 3-1.346 3-3s-1.346-3-3-3-3 1.346-3 3 1.346 3 3 3zm0-4c.552 0 1 .449 1 1s-.448 1-1 1-1-.449-1-1 .448-1 1-1z" fill="url(#SVGID_1_)"/></svg>