<?xml version="1.0" encoding="utf-8"?>
<!-- Generator: Adobe Illustrator 25.4.1, SVG Export Plug-In . SVG Version: 6.00 Build 0)  -->
<svg version="1.1" id="Layer_1" xmlns="http://www.w3.org/2000/svg" xmlns:xlink="http://www.w3.org/1999/xlink" x="0px" y="0px"
	 viewBox="10 1000 3355.87 121.55" height="512" width="512" style="enable-background: 10 1000 3355.87 121.55" xml:space="preserve">
<style type="text/css">
	.st0{fill:#ffffff;}
</style>

<g>
	<path transform="matrix(18,0,0,18,-24306.9,-27898.7)" class="st0" d="M 1523.9 1580.7 l -69.2 -39.9 c -3.8 -2.2 -8.1 -3.3 -12.5 -3.3 c -4.4 0 -8.8 1.2 -12.6 3.4 l -68.6 39.9 c -2.6 1.5 -4.3 4.1 -4.6 7 h -0.1 l 0 1 v 55.1 h 0.1 c 0.3 3 2 5.6 4.7 7.1 l 69.2 39.9 c 3.8 2.2 8.1 3.3 12.5 3.3 c 4.4 0 8.8 -1.2 12.6 -3.4 l 68.6 -39.9 c 2.9 -1.7 4.7 -4.8 4.7 -8.2 v -53.6 c 0 -0.1 0 -0.2 0 -0.3 C 1528.6 1585.5 1526.9 1582.4 1523.9 1580.7 z M 1392 1587.4 c 9.8 -18.1 29.2 -29.6 50.3 -29.6 c 28.4 0 52.1 20.8 56.1 48.3 l -17 9.9 l -20.8 12.1 l -7.9 4.6 c -0.4 0.2 -0.8 0.4 -1.2 0.6 c -0.3 0.2 -0.7 0.3 -1.1 0.5 c -0.3 0.1 -0.5 0.2 -0.8 0.3 c -0.2 0.1 -0.5 0.2 -0.7 0.3 c -0.3 0.1 -0.5 0.2 -0.8 0.2 c -0.3 0.1 -0.7 0.2 -1 0.3 c -0.3 0.1 -0.7 0.1 -1.1 0.2 c -0.7 0.1 -1.4 0.2 -2.1 0.3 l -0.3 0 l -0.3 0 c -0.3 0 -0.5 0 -0.8 0 c -0.3 0 -0.7 0 -1 0 c -0.3 0 -0.6 0 -0.9 -0.1 c -0.3 0 -0.5 -0.1 -0.8 -0.1 c -0.3 0 -0.5 -0.1 -0.8 -0.1 c -0.6 -0.1 -1.1 -0.2 -1.6 -0.3 l -0.1 0 h 0 c -0.4 -0.1 -0.8 -0.2 -1.1 -0.3 c -0.3 -0.1 -0.6 -0.2 -0.9 -0.3 c -0.3 -0.1 -0.5 -0.2 -0.7 -0.3 c -0.2 -0.1 -0.4 -0.2 -0.5 -0.2 c -0.2 -0.1 -0.3 -0.2 -0.5 -0.2 l 0 0 l 0 0 c -0.2 -0.1 -0.3 -0.1 -0.4 -0.2 l 0 0 l 0 0 c 0 0 0 0 0 0 c -0.1 -0.1 -0.3 -0.1 -0.4 -0.2 l -0.2 -16.3 l -0.1 -4.3 l 0 -0.6 l -0.5 -0.3 l -40.3 -23.3 C 1391.8 1587.7 1391.9 1587.5 1392 1587.4 z M 1379.7 1655.9 l -16.1 -9.3 c -1.4 -0.8 -2.2 -2.2 -2.2 -3.8 v -1 h 0 v -4.1 l 18.4 10.6 V 1655.9 z M 1379.7 1642.5 l -16.1 -9.3 c -1.4 -0.8 -2.2 -2.2 -2.2 -3.8 v -1 h 0 v -4.1 l 18.4 10.6 V 1642.5 z M 1379.7 1629.1 l -16.1 -9.3 c -1.4 -0.8 -2.2 -2.2 -2.2 -3.8 v -1 h 0 v -4.1 l 18.4 10.6 V 1629.1 z M 1379.7 1615.7 l -16.1 -9.3 c -1.4 -0.8 -2.2 -2.2 -2.2 -3.8 v -1 h 0 v -4.1 l 10.2 5.9 l 8.2 4.7 V 1615.7 z M 1398.1 1666.5 l -13.4 -7.7 v -53.7 l -0.5 -0.3 l -10.3 -5.9 v -15.7 l 24.2 14.1 V 1666.5 z M 1416.5 1623.2 v 53.9 l -13.4 -7.7 v -69.2 l 24.4 14.2 l 0.2 15.4 l -9.8 -5.6 L 1416.5 1623.2 z M 1523.6 1642.8 c 0 1.6 -0.8 3 -2.2 3.8 l -68.6 39.9 c -3 1.8 -6.5 2.7 -10 2.7 c -3.5 0 -7 -0.9 -10 -2.7 l -11.3 -6.5 v -7.7 l 8.8 5 c 3.8 2.2 8.1 3.3 12.5 3.3 c 4.4 0 8.7 -1.2 12.6 -3.4 l 10.4 -6.1 l 0.5 -0.3 v -5.8 l -1.5 0.9 l -11.9 6.9 c -3 1.8 -6.5 2.7 -10 2.7 c -3.5 0 -7 -0.9 -10 -2.7 l -11.3 -6.5 v -7.7 l 8.8 5 c 3.8 2.2 8.1 3.3 12.5 3.3 c 4.4 0 8.8 -1.2 12.6 -3.4 l 10.4 -6 l 0.5 -0.3 v -5.8 l -1.5 0.9 l -11.9 6.9 c -3 1.8 -6.5 2.7 -10 2.7 c -3.5 0 -7 -0.9 -10 -2.7 l -11.3 -6.5 v -7.7 l 8.8 5.1 c 3.8 2.2 8.1 3.3 12.5 3.3 c 4.4 0 8.8 -1.2 12.6 -3.4 l 10.4 -6 l 0.5 -0.3 v -5.8 l -1.5 0.9 l -11.9 6.9 c -3 1.8 -6.5 2.7 -10.1 2.7 c -3.5 0 -7 -0.9 -10 -2.7 l -11.3 -6.5 v -7.7 l 8.8 5 c 0.4 0.2 0.7 0.4 1.1 0.6 c 0.8 0.4 1.5 0.7 2.3 1 c 0.1 0 0.2 0.1 0.2 0.1 c 0.1 0 0.3 0.1 0.4 0.1 c 0.2 0.1 0.4 0.1 0.6 0.2 c 0.3 0.1 0.7 0.2 1 0.3 c 0.9 0.3 1.9 0.5 3 0.7 c 0.3 0 0.6 0.1 0.9 0.1 l 0 0 c 0 0 0.1 0 0.1 0 c 0.3 0 0.7 0.1 1 0.1 c 0.3 0 0.7 0 1 0.1 c 0.3 0 0.7 0 1 0 c 2.5 0 4.9 -0.4 7.3 -1.1 c 0.1 0 0.1 0 0.2 -0.1 c 1.8 -0.5 3.4 -1.3 5.1 -2.2 c 14.7 -8.5 59.3 -34.6 68.3 -39.8 V 1642.8 z"/>
	<g>
	<path transform="matrix(18,0,0,18,-18873.4,-26561.8)" class="st0" d="M 1133.4 1495.3 c -4.8 0 -9.7 1.3 -13.9 3.8 l -2.5 1.4 v 2.9 c 0 15.4 12.6 27.9 28 27.9 c 4.8 0 9.7 -1.3 14 -3.8 l 2.5 -1.4 v -2.9 C 1161.3 1507.8 1148.8 1495.3 1133.4 1495.3 z M 1150.7 1525.6 c -1.9 0.5 -3.9 0.8 -5.8 0.8 c -1 0 -1.9 -0.1 -2.9 -0.2 c 2.2 -0.3 4 -1.4 4.8 -3.4 c 1.9 -4.2 -1.2 -10.4 -6.7 -13.9 c -5.6 -3.5 -11.6 -3 -13.4 1.1 c -1.3 3 -0.2 6.9 2.6 10.3 c -4.5 -4.1 -7.4 -9.9 -7.4 -16.8 c 3.7 -2.1 7.6 -3.1 11.4 -3.1 c 12 0 22.9 9.6 23 22.9 C 1154.5 1524.3 1152.6 1525 1150.7 1525.6 z"/>
</g>
</g>
</svg>