<?xml version="1.0" encoding="utf-8"?>
<!-- Generator: Adobe Illustrator 25.4.1, SVG Export Plug-In . SVG Version: 6.00 Build 0)  -->
<svg version="1.1" id="Layer_1" xmlns="http://www.w3.org/2000/svg" xmlns:xlink="http://www.w3.org/1999/xlink" x="0px" y="0px"
	 viewBox="0 0 4055.87 921.55" style="enable-background:new 0 0 4055.87 921.55;" xml:space="preserve">
<style type="text/css">
	.st0{fill:#FFFFFF;}
</style>
<g>
	<path class="st0" d="M3254.37,549.93l-69.18-39.94c-3.78-2.18-8.1-3.33-12.48-3.33c-4.41,0-8.75,1.17-12.55,3.37l-68.62,39.88
		c-2.59,1.51-4.26,4.07-4.61,6.97h-0.07l-0.02,1v55.13h0.07c0.32,2.97,2.01,5.57,4.65,7.09l69.17,39.94
		c3.77,2.18,8.09,3.33,12.49,3.33c4.41,0,8.75-1.16,12.55-3.36l68.62-39.88c2.95-1.72,4.7-4.77,4.69-8.17v-53.59
		c0.01-0.1,0.01-0.19,0.01-0.29C3259.08,554.68,3257.32,551.63,3254.37,549.93z M3191.66,552.88c3.17,1.2,6.08,3.26,8.48,6.01
		c1.05,1.18,1.99,2.49,2.81,3.92c1.19,2.03,2.14,4.29,2.79,6.74c0.6,2.21,0.96,4.58,1.03,7.08c-1.57,1.16-3.18,2.06-4.82,2.71
		c-2.19,0.86-4.42,1.27-6.62,1.27c-3.59,0-7.09-1.08-10.2-3.07c-0.5-0.3-0.99-0.65-1.48-1.02c-3.39-2.56-6.2-6.25-7.98-10.76
		c-1.2-3.04-1.92-6.45-2.03-10.14C3179.44,551.28,3185.95,550.69,3191.66,552.88z M3162.67,568.24c0.97-0.57,1.98-1.05,3.03-1.43
		c3.67,13.56,16.07,23.54,30.8,23.54c2.9,0,5.7-0.39,8.37-1.11l-21.61,12.56c-0.41,0.24-0.79,0.44-1.17,0.62
		c-0.33,0.17-0.67,0.33-1.06,0.49c-0.28,0.12-0.52,0.21-0.77,0.31c-0.23,0.08-0.47,0.17-0.7,0.25c-0.27,0.09-0.53,0.17-0.8,0.24
		c-0.33,0.1-0.65,0.19-1.01,0.27c-0.33,0.08-0.67,0.15-1.06,0.21c-0.72,0.13-1.4,0.21-2.09,0.26l-0.28,0.01l-0.3,0.02
		c-0.25,0-0.53,0.01-0.8,0.01c-0.34,0-0.68-0.01-1.03-0.02c-0.32-0.01-0.62-0.04-0.91-0.07c-0.28-0.03-0.54-0.06-0.8-0.1
		c-0.27-0.03-0.54-0.07-0.8-0.12c-0.56-0.1-1.08-0.21-1.58-0.35l-0.13-0.04h-0.01c-0.42-0.11-0.79-0.22-1.12-0.34
		c-0.32-0.11-0.62-0.21-0.92-0.33c-0.26-0.1-0.47-0.19-0.68-0.29c-0.19-0.08-0.36-0.15-0.52-0.23c-0.18-0.08-0.32-0.15-0.48-0.23
		l-0.02-0.02l-0.03-0.01c-0.15-0.07-0.3-0.14-0.44-0.23l-0.02-0.01l-0.03-0.02c-0.15-0.07-0.29-0.15-0.44-0.23l-0.26-20.64
		l-0.01-0.57l-0.49-0.28l-10.36-6L3162.67,568.24z M3110.2,625.09l-16.14-9.32c-1.39-0.79-2.21-2.22-2.21-3.82v-1h-0.01v-4.09
		l18.36,10.61V625.09z M3110.2,611.69l-16.14-9.32c-1.38-0.8-2.21-2.23-2.21-3.82v-1h-0.01v-4.1l18.36,10.61V611.69z M3110.2,598.28
		l-16.14-9.31c-1.38-0.8-2.21-2.23-2.21-3.83v-1h-0.01v-4.09l18.36,10.61V598.28z M3110.2,584.88l-16.14-9.32
		c-1.38-0.8-2.21-2.23-2.21-3.82v-1h-0.01v-4.1l10.2,5.89l8.16,4.72V584.88z M3128.6,635.71l-13.4-7.73V574.3l-0.5-0.28l-10.34-5.92
		v-15.7l24.24,14.07V635.71z M3146.97,592.44v53.88l-13.37-7.72v-69.23l24.43,14.17l0.2,15.39l-9.76-5.62L3146.97,592.44z
		 M3254.08,611.96c0.01,1.61-0.81,3.04-2.2,3.84l-68.62,39.88c-3.04,1.77-6.51,2.7-10.04,2.7c-3.51,0-6.97-0.92-9.99-2.67
		l-11.26-6.5v-7.69l8.76,5.05c3.77,2.18,8.09,3.33,12.49,3.33s8.74-1.16,12.55-3.36l10.41-6.05l0.5-0.29v-5.79l-1.5,0.87
		l-11.92,6.93c-3.04,1.77-6.51,2.7-10.04,2.7c-3.51,0-6.97-0.92-9.99-2.67l-11.26-6.5v-7.69l8.76,5.05
		c3.79,2.18,8.11,3.33,12.49,3.33c4.42,0,8.76-1.16,12.55-3.37l10.41-6.04l0.5-0.29v-5.79l-1.5,0.87l-11.92,6.93
		c-3.04,1.77-6.51,2.7-10.04,2.7c-3.51,0-6.97-0.92-9.99-2.67l-11.26-6.5v-7.7l8.76,5.06c3.79,2.18,8.11,3.33,12.49,3.33
		c4.41,0,8.75-1.16,12.55-3.37l10.41-6.04l0.5-0.29v-5.79l-1.5,0.87l-11.92,6.93c-3.04,1.76-6.52,2.7-10.05,2.7
		c-3.51,0-6.96-0.93-9.98-2.67l-11.26-6.5v-7.7l8.76,5.05c0.37,0.21,0.73,0.41,1.09,0.59c0.75,0.38,1.51,0.72,2.26,1.02
		c0.09,0.04,0.16,0.07,0.23,0.09c0.13,0.05,0.25,0.1,0.37,0.14c0.16,0.06,0.37,0.14,0.58,0.21c0.33,0.11,0.65,0.21,0.97,0.3
		c0.92,0.27,1.89,0.49,2.96,0.67c0.34,0.05,0.67,0.1,1,0.14c0.34,0.04,0.69,0.08,1.03,0.1c0.31,0.03,0.66,0.05,1,0.06
		c0.33,0.01,0.67,0.02,1,0.02c4.42,0,8.76-1.16,12.55-3.37c14.68-8.55,59.32-34.56,68.31-39.84V611.96z"/>
	<g>
		<path class="st0" d="M3202.95,562.81c-1.24-1.19-2.21-2.55-2.81-3.92C3201.19,560.07,3202.13,561.38,3202.95,562.81z"/>
	</g>

<path d="M3202.95,562.81c-1.24-1.19-2.21-2.55-2.81-3.92C3201.19,560.07,3202.13,561.38,3202.95,562.81z"/>
<path class="st0" d="M3202.95,562.81c-1.24-1.19-2.21-2.55-2.81-3.92C3201.19,560.07,3202.13,561.38,3202.95,562.81z"/>
<path class="st0" d="M3197.11,574.63c-0.24,0.53-0.55,0.99-0.94,1.37c-2.11,2.12-6.26,2.03-10.15-0.44
	c-3.44-2.18-5.71-5.61-5.99-8.63c-0.1-1.02,0.03-2,0.41-2.87c1.53-3.43,6.5-3.85,11.1-0.93S3198.63,571.2,3197.11,574.63z"/>
</g>
</svg>