<?xml version="1.0" encoding="utf-8"?>
<!-- Generator: Adobe Illustrator 25.4.1, SVG Export Plug-In . SVG Version: 6.00 Build 0)  -->
<svg version="1.1" id="Layer_1" xmlns="http://www.w3.org/2000/svg" xmlns:xlink="http://www.w3.org/1999/xlink" x="0px" y="0px"
	 viewBox="10 1000 3355.87 121.55" style="enable-background: 10 1000 3355.87 121.55" xml:space="preserve">
<style type="text/css">
	.st0{fill:#ffffff;}
</style>
<g>
<path d="M 2092.9 857.2 l -69.2 -39.9 c -3.8 -2.2 -8.1 -3.3 -12.5 -3.3 c -4.4 0 -8.8 1.2 -12.6 3.4 l -68.6 39.9 c -2.6 1.5 -4.3 4.1 -4.6 7 h -0.1 l 0 1 v 55.1 h 0.1 c 0.3 3 2 5.6 4.7 7.1 l 69.2 39.9 c 3.8 2.2 8.1 3.3 12.5 3.3 c 4.4 0 8.8 -1.2 12.6 -3.4 l 68.6 -39.9 c 2.9 -1.7 4.7 -4.8 4.7 -8.2 v -53.6 c 0 -0.1 0 -0.2 0 -0.3 C 2097.6 862 2095.8 858.9 2092.9 857.2 z M 2030.2 860.2 c 3.2 1.2 6.1 3.3 8.5 6 c 1.1 1.2 2 2.5 2.8 3.9 c 1.2 2 2.1 4.3 2.8 6.7 c 0.6 2.2 1 4.6 1 7.1 c -1.6 1.2 -3.2 2.1 -4.8 2.7 c -2.2 0.9 -4.4 1.3 -6.6 1.3 c -3.6 0 -7.1 -1.1 -10.2 -3.1 c -0.5 -0.3 -1 -0.6 -1.5 -1 c -3.4 -2.6 -6.2 -6.3 -8 -10.8 c -1.2 -3 -1.9 -6.5 -2 -10.1 C 2017.9 858.6 2024.5 858 2030.2 860.2 z M 2001.2 875.5 c 1 -0.6 2 -1 3 -1.4 c 3.7 13.6 16.1 23.5 30.8 23.5 c 2.9 0 5.7 -0.4 8.4 -1.1 l -21.6 12.6 c -0.4 0.2 -0.8 0.4 -1.2 0.6 c -0.3 0.2 -0.7 0.3 -1.1 0.5 c -0.3 0.1 -0.5 0.2 -0.8 0.3 c -0.2 0.1 -0.5 0.2 -0.7 0.3 c -0.3 0.1 -0.5 0.2 -0.8 0.2 c -0.3 0.1 -0.6 0.2 -1 0.3 c -0.3 0.1 -0.7 0.1 -1.1 0.2 c -0.7 0.1 -1.4 0.2 -2.1 0.3 l -0.3 0 l -0.3 0 c -0.3 0 -0.5 0 -0.8 0 c -0.3 0 -0.7 0 -1 0 c -0.3 0 -0.6 0 -0.9 -0.1 c -0.3 0 -0.5 -0.1 -0.8 -0.1 c -0.3 0 -0.5 -0.1 -0.8 -0.1 c -0.6 -0.1 -1.1 -0.2 -1.6 -0.4 l -0.1 0 h 0 c -0.4 -0.1 -0.8 -0.2 -1.1 -0.3 c -0.3 -0.1 -0.6 -0.2 -0.9 -0.3 c -0.3 -0.1 -0.5 -0.2 -0.7 -0.3 c -0.2 -0.1 -0.4 -0.1 -0.5 -0.2 c -0.2 -0.1 -0.3 -0.1 -0.5 -0.2 l 0 0 l 0 0 c -0.1 -0.1 -0.3 -0.1 -0.4 -0.2 l 0 0 l 0 0 c -0.2 -0.1 -0.3 -0.1 -0.4 -0.2 l -0.3 -20.6 l 0 -0.6 l -0.5 -0.3 l -10.4 -6 L 2001.2 875.5 z M 1948.7 932.4 l -16.1 -9.3 c -1.4 -0.8 -2.2 -2.2 -2.2 -3.8 v -1 h 0 v -4.1 l 18.4 10.6 V 932.4 z M 1948.7 919 l -16.1 -9.3 c -1.4 -0.8 -2.2 -2.2 -2.2 -3.8 v -1 h 0 v -4.1 l 18.4 10.6 V 919 z M 1948.7 905.6 l -16.1 -9.3 c -1.4 -0.8 -2.2 -2.2 -2.2 -3.8 v -1 h 0 v -4.1 l 18.4 10.6 V 905.6 z M 1948.7 892.2 l -16.1 -9.3 c -1.4 -0.8 -2.2 -2.2 -2.2 -3.8 v -1 h 0 v -4.1 l 10.2 5.9 l 8.2 4.7 V 892.2 z M 1967.1 943 l -13.4 -7.7 v -53.7 l -0.5 -0.3 l -10.3 -5.9 v -15.7 l 24.2 14.1 V 943 z M 1985.5 899.7 v 53.9 l -13.4 -7.7 v -69.2 l 24.4 14.2 l 0.2 15.4 l -9.8 -5.6 L 1985.5 899.7 z M 2092.6 919.3 c 0 1.6 -0.8 3 -2.2 3.8 l -68.6 39.9 c -3 1.8 -6.5 2.7 -10 2.7 c -3.5 0 -7 -0.9 -10 -2.7 l -11.3 -6.5 v -7.7 l 8.8 5 c 3.8 2.2 8.1 3.3 12.5 3.3 s 8.7 -1.2 12.6 -3.4 l 10.4 -6.1 l 0.5 -0.3 v -5.8 l -1.5 0.9 l -11.9 6.9 c -3 1.8 -6.5 2.7 -10 2.7 c -3.5 0 -7 -0.9 -10 -2.7 l -11.3 -6.5 v -7.7 l 8.8 5.1 c 3.8 2.2 8.1 3.3 12.5 3.3 c 4.4 0 8.8 -1.2 12.6 -3.4 l 10.4 -6 l 0.5 -0.3 v -5.8 l -1.5 0.9 l -11.9 6.9 c -3 1.8 -6.5 2.7 -10 2.7 c -3.5 0 -7 -0.9 -10 -2.7 l -11.3 -6.5 v -7.7 l 8.8 5.1 c 3.8 2.2 8.1 3.3 12.5 3.3 c 4.4 0 8.8 -1.2 12.6 -3.4 l 10.4 -6 l 0.5 -0.3 v -5.8 l -1.5 0.9 l -11.9 6.9 c -3 1.8 -6.5 2.7 -10.1 2.7 c -3.5 0 -7 -0.9 -10 -2.7 l -11.3 -6.5 v -7.7 l 8.8 5 c 0.4 0.2 0.7 0.4 1.1 0.6 c 0.8 0.4 1.5 0.7 2.3 1 c 0.1 0 0.2 0.1 0.2 0.1 c 0.1 0 0.3 0.1 0.4 0.1 c 0.2 0.1 0.4 0.1 0.6 0.2 c 0.3 0.1 0.7 0.2 1 0.3 c 0.9 0.3 1.9 0.5 3 0.7 c 0.3 0 0.7 0.1 1 0.1 c 0.3 0 0.7 0.1 1 0.1 c 0.3 0 0.7 0 1 0.1 c 0.3 0 0.7 0 1 0 c 4.4 0 8.8 -1.2 12.6 -3.4 c 14.7 -8.6 59.3 -34.6 68.3 -39.8 V 919.3 z"/>	<g>
		<path d="M 964.4 1704.2 c -1.2 -1.2 -2.2 -2.6 -2.8 -3.9 C 962.7 1701.4 963.6 1702.7 964.4 1704.2 z"/>
	</g>
    <g>
        <path d="M 2041.4 870.2 c -1.2 -1.2 -2.2 -2.5 -2.8 -3.9 C 2039.7 867.4 2040.6 868.7 2041.4 870.2 z"/>
    </g>
    <g>
        <path class="st0" d="M 2041.4 870.2 c -1.2 -1.2 -2.2 -2.5 -2.8 -3.9 C 2039.7 867.4 2040.6 868.7 2041.4 870.2 z"/>
    </g>
    <g>
        <path d="M 2035.6 882 c -0.2 0.5 -0.6 1 -0.9 1.4 c -2.1 2.1 -6.3 2 -10.2 -0.4 c -3.4 -2.2 -5.7 -5.6 -6 -8.6 c -0.1 -1 0 -2 0.4 -2.9 c 1.5 -3.4 6.5 -3.9 11.1 -0.9 S 2037.1 878.5 2035.6 882 z"/>
    </g>
</g>
</svg>