<?xml version="1.0" encoding="utf-8"?>
<!-- Generator: Adobe Illustrator 25.4.1, SVG Export Plug-In . SVG Version: 6.00 Build 0)  -->
<svg version="1.1" id="Layer_1" xmlns="http://www.w3.org/2000/svg" xmlns:xlink="http://www.w3.org/1999/xlink" x="0px" y="0px"
	 viewBox="10 1000 3355.87 121.55" style="enable-background: 10 1000 3355.87 121.55" xml:space="preserve">
<style type="text/css">
	.st0{fill:#ffffff;}
</style>
<g>
	<path d="M3576.08,247.63l-69.18-39.94c-3.78-2.18-8.1-3.33-12.48-3.33c-4.41,0-8.75,1.17-12.55,3.37l-68.62,39.88
		c-2.59,1.51-4.26,4.07-4.61,6.97h-0.07l-0.02,1v55.13h0.07c0.32,2.97,2.01,5.57,4.65,7.09l69.17,39.94
		c3.77,2.18,8.09,3.33,12.49,3.33c4.41,0,8.75-1.16,12.55-3.36l68.62-39.88c2.95-1.72,4.7-4.77,4.69-8.17v-53.59
		c0.01-0.1,0.01-0.19,0.01-0.29C3580.79,252.38,3579.03,249.33,3576.08,247.63z M3494.93,356.08c-3.51,0-6.97-0.92-9.99-2.67
		l-11.26-6.5v-7.69l8.76,5.05c3.77,2.18,8.09,3.33,12.49,3.33s8.74-1.16,12.55-3.36l10.41-6.05l0.5-0.29v-5.79l-1.5,0.87
		l-11.92,6.93c-3.04,1.77-6.51,2.7-10.04,2.7c-3.51,0-6.97-0.92-9.99-2.67l-11.26-6.5v-7.69l8.76,5.05
		c3.79,2.18,8.11,3.33,12.49,3.33c4.42,0,8.76-1.16,12.55-3.37l10.41-6.04l0.5-0.29v-5.79l-1.5,0.87l-11.92,6.93
		c-3.04,1.77-6.51,2.7-10.04,2.7c-3.51,0-6.97-0.92-9.99-2.67l-11.26-6.5v-7.7l8.76,5.06c3.79,2.18,8.11,3.33,12.49,3.33
		c4.41,0,8.75-1.16,12.55-3.37l10.41-6.04l0.5-0.29v-5.79l-1.5,0.87l-11.92,6.93c-3.04,1.76-6.52,2.7-10.05,2.7
		c-3.51,0-6.96-0.93-9.98-2.67l-11.26-6.5v-7.7l8.76,5.05c0.37,0.21,0.73,0.41,1.09,0.59c0.75,0.38,1.51,0.72,2.26,1.02
		c0.09,0.04,0.16,0.07,0.23,0.09c0.13,0.05,0.25,0.1,0.37,0.14c0.16,0.06,0.37,0.14,0.58,0.21c0.33,0.11,0.65,0.21,0.97,0.3
		c0.92,0.27,1.89,0.49,2.96,0.67c0.34,0.05,0.67,0.1,1,0.14c0.34,0.04,0.69,0.08,1.03,0.1c0.31,0.03,0.66,0.05,1,0.06
		c0.33,0.01,0.67,0.02,1,0.02c4.42,0,8.76-1.16,12.55-3.37c14.68-8.55,59.32-34.56,68.31-39.84v45.68c0.01,1.61-0.81,3.04-2.2,3.84
		l-68.62,39.88C3501.93,355.15,3498.46,356.08,3494.93,356.08z M3524.51,237.01c12.21,0,23.54,11.33,24.03,27.67
		c-4.05,3.03-8.42,4.41-12.68,4.41c-3.97,0-7.85-1.2-11.29-3.39c-0.55-0.35-1.1-0.73-1.64-1.14c-6.28-4.76-10.78-12.98-11.08-23.15
		C3515.89,238.39,3520.26,237.01,3524.51,237.01z M3484.38,265.94c3.03-1.77,6.5-2.7,10.03-2.7c3.51,0,6.97,0.92,9.99,2.67
		l29.27,16.91l-28.7,16.68c-0.41,0.24-0.79,0.44-1.17,0.62c-0.33,0.17-0.67,0.33-1.06,0.49c-0.28,0.12-0.52,0.21-0.77,0.31
		c-0.23,0.08-0.47,0.17-0.7,0.25c-0.27,0.09-0.53,0.17-0.8,0.24c-0.33,0.1-0.65,0.19-1.01,0.27c-0.33,0.08-0.67,0.15-1.06,0.21
		c-0.72,0.13-1.4,0.21-2.09,0.26l-0.28,0.01l-0.3,0.02c-0.25,0-0.53,0.01-0.8,0.01c-0.34,0-0.68-0.01-1.03-0.02
		c-0.32-0.01-0.62-0.04-0.91-0.07c-0.28-0.03-0.54-0.06-0.8-0.1c-0.27-0.03-0.54-0.07-0.8-0.12c-0.56-0.1-1.08-0.21-1.58-0.35
		l-0.13-0.04h-0.01c-0.42-0.11-0.79-0.22-1.12-0.34c-0.32-0.11-0.62-0.21-0.92-0.33c-0.26-0.1-0.47-0.19-0.68-0.29
		c-0.19-0.08-0.36-0.15-0.52-0.23c-0.18-0.08-0.32-0.15-0.48-0.23l-0.02-0.02l-0.03-0.01c-0.15-0.07-0.3-0.14-0.44-0.23l-0.02-0.01
		l-0.03-0.02c-0.15-0.07-0.29-0.15-0.44-0.23l-0.26-20.64l-0.01-0.57l-0.49-0.28l-10.36-6L3484.38,265.94z M3431.91,322.79
		l-16.14-9.32c-1.39-0.79-2.21-2.22-2.21-3.82v-1h-0.01v-4.09l18.36,10.61V322.79z M3431.91,309.39l-16.14-9.32
		c-1.38-0.8-2.21-2.23-2.21-3.82v-1h-0.01v-4.1l18.36,10.61V309.39z M3431.91,295.98l-16.14-9.31c-1.38-0.8-2.21-2.23-2.21-3.83v-1
		h-0.01v-4.09l18.36,10.61V295.98z M3431.91,282.58l-16.14-9.32c-1.38-0.8-2.21-2.23-2.21-3.82v-1h-0.01v-4.1l10.2,5.89l8.16,4.72
		V282.58z M3450.31,333.41l-13.4-7.73V272l-0.5-0.28l-10.34-5.92v-15.7l24.24,14.07V333.41z M3468.68,290.14v53.88l-13.37-7.72
		v-69.23l24.43,14.17l0.2,15.39l-9.76-5.62L3468.68,290.14z"/>
	<g>
		<path d="M3537.6,261.36c-1.47,3.32-6.27,3.72-10.71,0.9c-4.45-2.81-6.86-7.79-5.39-11.11c1.48-3.31,6.28-3.72,10.72-0.9
			C3536.66,253.07,3539.08,258.04,3537.6,261.36z"/>
	</g>
</g>
</svg>