<svg id="broom" enable-background="new 0 0 300 300" height="512" viewBox="0 0 300 300" width="512" xmlns="http://www.w3.org/2000/svg" xmlns:xlink="http://www.w3.org/1999/xlink"><linearGradient id="SVGID_1_" gradientUnits="userSpaceOnUse" x1="53.544" x2="252.847" y1="250.989" y2="51.685"><stop offset="0" stop-color="#107eff"/><stop offset="1" stop-color="#8f16ff"/></linearGradient><g><path d="m58.071 163.458c.547 1.625 2.074 2.719 3.789 2.719s3.242-1.094 3.789-2.719l4.699-13.904 13.906-4.699c1.625-.549 2.719-2.074 2.719-3.789s-1.094-3.24-2.719-3.789l-13.906-4.699-4.699-13.906c-.547-1.625-2.074-2.719-3.789-2.719s-3.242 1.094-3.789 2.719l-4.699 13.906-13.906 4.699c-1.625.549-2.719 2.074-2.719 3.789s1.094 3.24 2.719 3.789l13.906 4.699zm-.262-23.936c1.18-.398 2.109-1.326 2.508-2.508l1.543-4.566 1.543 4.566c.398 1.182 1.328 2.109 2.508 2.508l4.566 1.543-4.566 1.543c-1.18.398-2.109 1.326-2.508 2.508l-1.543 4.566-1.543-4.566c-.398-1.182-1.328-2.109-2.508-2.508l-4.566-1.543zm204.258-78.617-17.949-17.732c-1.445-1.424-3.719-1.545-5.297-.289-34.781 27.547-35.414 30.734-35.719 32.264l-4.961 24.818-28.551 38.713-20.609 1.898c-.203.018-.406.053-.602.102-2.465.615-4.711 1.891-6.508 3.688-.133.133-.254.275-.367.426l-13.281 17.704c-.322-.083-.638-.194-.977-.194-1.453 0-35.898.303-62.223 26.627-11.336 11.334-16.004 26.566-13.508 44.053 1.848 12.932 6.941 22.498 7.156 22.898.602 1.113 1.691 1.877 2.941 2.061.195.029.391.043.582.043 1.055 0 2.074-.416 2.828-1.172 10.312-10.312 25.43-15.646 57.617-24.426 8.969-2.445 15.637-7.449 19.816-14.873 8.912-15.812 3.126-36.933 2.794-38.121l10.983-15.117 20.973-1.988c.199-.02.398-.053.59-.102 2.801-.701 5.285-2.225 7.359-4.631l33.77-45.041c1.508-1.742 2.566-3.84 3.074-6.088l6.871-18.67 32.523-20.625c1.031-.654 1.707-1.74 1.836-2.951.132-1.213-.294-2.418-1.161-3.275zm-126.594 152.707c-3.137 5.555-8.023 9.17-14.934 11.055-1.781.486-3.506.96-5.19 1.428 10.124-10.228 14.018-20.112 14.249-20.721.785-2.062-.25-4.363-2.309-5.152-2.074-.795-4.371.244-5.164 2.299-.074.195-7.686 19.345-29.684 30.468-12.932 4.374-21.801 8.638-28.87 14.376-2.102-5.216-4.924-14.172-4.764-24.102 2.691-.275 8.163-1.061 13.889-3.25 2.062-.789 3.094-3.102 2.305-5.164-.785-2.066-3.094-3.096-5.164-2.309-3.864 1.478-7.638 2.198-10.153 2.551 1.401-7.019 4.638-14.147 10.997-20.506 20.871-20.871 48.152-23.807 54.977-24.217l12.129 12.127c.948 4.015 4.081 19.804-2.314 31.117zm87.973-131.889c-.742.471-1.309 1.174-1.613 1.998l-7.438 20.207c-.07.193-.129.393-.168.594-.203 1.018-.668 1.969-1.523 2.969l-33.766 45.041c-.758.869-1.73 1.496-2.824 1.822l-22.434 2.125c-1.141.109-2.184.703-2.855 1.631l-10.987 15.125-5.526-5.525 13.399-17.862c.672-.619 1.477-1.078 2.348-1.338l22.051-2.031c1.137-.104 2.176-.689 2.852-1.607l30.145-40.873c.348-.473.59-1.016.703-1.592l5.023-25.113c2.352-3.059 16.496-15.006 30.184-25.936l11.852 11.707zm-133.586 6.229c6.617 0 12-5.383 12-12s-5.383-12-12-12-12 5.383-12 12 5.383 12 12 12zm0-16c2.207 0 4 1.795 4 4s-1.793 4-4 4-4-1.795-4-4 1.793-4 4-4zm158.14 71.228-2.828 2.828 2.828 2.828c1.562 1.562 1.562 4.094 0 5.656-.781.781-1.805 1.172-2.828 1.172s-2.047-.391-2.828-1.172l-2.828-2.828-2.828 2.828c-.781.781-1.805 1.172-2.828 1.172s-2.047-.391-2.828-1.172c-1.562-1.562-1.562-4.094 0-5.656l2.828-2.828-2.828-2.828c-1.562-1.562-1.562-4.094 0-5.656s4.094-1.562 5.656 0l2.828 2.828 2.828-2.828c1.562-1.562 4.094-1.562 5.656 0s1.563 4.094 0 5.656zm-11.611 78.772c0 2.501-2.028 4.529-4.53 4.529s-4.53-2.028-4.53-4.529c0-2.502 2.028-4.53 4.53-4.53s4.53 2.028 4.53 4.53zm-126.736-24.735c-.191.574-4.898 14.135-22.824 18.615-.324.082-.652.119-.973.119-1.793 0-3.422-1.213-3.875-3.029-.539-2.145.766-4.316 2.91-4.852 13.504-3.375 17.039-13.008 17.184-13.416.73-2.064 3-3.186 5.078-2.471 2.074.714 3.195 2.95 2.5 5.034zm-10.621-72.093 24-24c1.562-1.562 4.094-1.562 5.656 0s1.562 4.094 0 5.656l-24 24c-.781.781-1.805 1.172-2.828 1.172s-2.047-.391-2.828-1.172c-1.563-1.563-1.563-4.094 0-5.656zm32-12 32-32c1.562-1.562 4.094-1.562 5.656 0s1.562 4.094 0 5.656l-32 32c-.781.781-1.805 1.172-2.828 1.172s-2.047-.391-2.828-1.172c-1.563-1.563-1.563-4.094 0-5.656zm4-18.344c-1.562-1.562-1.562-4.094 0-5.656l36-36c1.562-1.562 4.094-1.562 5.656 0s1.562 4.094 0 5.656l-36 36c-.781.781-1.805 1.172-2.828 1.172s-2.047-.391-2.828-1.172zm81.656 78.344c1.562 1.562 1.562 4.094 0 5.656l-16 16c-.781.781-1.805 1.172-2.828 1.172s-2.047-.391-2.828-1.172c-1.562-1.562-1.562-4.094 0-5.656l16-16c1.562-1.563 4.093-1.563 5.656 0zm0 20c1.562 1.562 1.562 4.094 0 5.656l-52 52c-.781.781-1.805 1.172-2.828 1.172s-2.047-.391-2.828-1.172c-1.562-1.562-1.562-4.094 0-5.656l52-52c1.562-1.563 4.093-1.563 5.656 0zm-48.828 32.828c-1.023 0-2.047-.391-2.828-1.172-1.562-1.562-1.562-4.094 0-5.656l18-18c1.562-1.562 4.094-1.562 5.656 0s1.562 4.094 0 5.656l-18 18c-.781.781-1.805 1.172-2.828 1.172z" fill="url(#SVGID_1_)"/></g></svg>