<svg id="spell-cards" enable-background="new 0 0 300 300" height="512" viewBox="0 0 300 300" width="512" xmlns="http://www.w3.org/2000/svg" xmlns:xlink="http://www.w3.org/1999/xlink"><linearGradient id="SVGID_1_" gradientUnits="userSpaceOnUse" x1="48.096" x2="239.209" y1="244.956" y2="53.843"><stop offset="0" stop-color="#107eff"/><stop offset="1" stop-color="#8f16ff"/></linearGradient><g><path d="m251.549 202.751c-6.617 0-12 5.383-12 12s5.383 12 12 12 12-5.383 12-12-5.383-12-12-12zm0 16c-2.207 0-4-1.795-4-4s1.793-4 4-4 4 1.795 4 4-1.793 4-4 4zm-34.828-159.115 2.828-2.828-2.828-2.828c-1.562-1.562-1.562-4.094 0-5.656s4.094-1.562 5.656 0l2.828 2.828 2.828-2.828c1.562-1.562 4.094-1.562 5.656 0s1.562 4.094 0 5.656l-2.828 2.828 2.828 2.828c1.562 1.562 1.562 4.094 0 5.656-.781.781-1.805 1.172-2.828 1.172s-2.047-.391-2.828-1.172l-2.828-2.828-2.828 2.828c-.781.781-1.805 1.172-2.828 1.172s-2.047-.391-2.828-1.172c-1.562-1.562-1.562-4.093 0-5.656zm-31.701-6.885c0-2.502 2.028-4.53 4.53-4.53s4.53 2.028 4.53 4.53c0 2.501-2.028 4.529-4.53 4.529s-4.53-2.027-4.53-4.529zm56.205 37.207-94.657-24.881-4.855-20.74c-.242-1.033-.883-1.928-1.785-2.486-.898-.562-1.992-.738-3.02-.496l-97.367 22.797c-2.152.504-3.488 2.656-2.984 4.807l22.992 98.203v87.59c0 2.209 1.789 4 4 4h100c2.211 0 4-1.791 4-4v-26.996l35.039 9.211c.332.088.676.131 1.016.131.703 0 1.398-.186 2.016-.545.918-.535 1.582-1.412 1.852-2.438l36.605-139.27c.562-2.137-.715-4.324-2.852-4.887zm-195.969-18.929 89.578-20.973 4.405 18.81-9.959 37.886h-29.731-36c-2.211 0-4 1.791-4 4v21.32zm114.293 164.127c-7.824 1.595-14.001 7.771-15.596 15.596h-60.808c-1.595-7.824-7.771-14.001-15.596-15.596v-120.405h92zm-92 8.332c3.389 1.208 6.055 3.874 7.263 7.263h-7.263zm84.737 7.263c1.208-3.389 3.874-6.055 7.263-7.263v7.263zm48.466-22.539-33.203-8.729v-46.063c.344.094.699.148 1.059.148.684 0 1.379-.176 2.012-.545l31.09-18.148c1.91-1.115 2.551-3.564 1.438-5.471l-18.148-31.09c-.535-.918-1.41-1.584-2.438-1.854-1.02-.273-2.117-.119-3.031.414l-11.98 6.994v-13.117c0-2.209-1.789-4-4-4h-26l8.797-33.461 88.977 23.389zm-35.261-133.346c.559-2.133 2.75-3.416 4.883-2.852l34.82 9.15c2.137.562 3.414 2.75 2.852 4.887-.469 1.795-2.09 2.984-3.863 2.984-.336 0-.68-.043-1.02-.133l-34.82-9.15c-2.138-.561-3.415-2.749-2.852-4.886zm43.593 85.903c-.469 1.797-2.09 2.984-3.863 2.984-.336 0-.68-.041-1.02-.131l-15.477-4.066c-2.137-.562-3.414-2.748-2.852-4.885.559-2.137 2.75-3.42 4.883-2.854l15.477 4.066c2.138.564 3.415 2.749 2.852 4.886zm-3.05 11.609c-.473 1.795-2.09 2.984-3.863 2.984-.34 0-.68-.043-1.02-.133l-15.473-4.068c-2.137-.562-3.414-2.75-2.852-4.887s2.773-3.404 4.883-2.852l15.473 4.068c2.137.564 3.414 2.751 2.852 4.888zm-9.77 5.701-15.477-4.066c-2.137-.564-4.324.715-4.883 2.854l-4.066 15.473c-.562 2.137.715 4.324 2.852 4.887l15.473 4.066c.34.09.684.133 1.02.133 1.773 0 3.391-1.189 3.863-2.984l4.07-15.475c.27-1.025.121-2.117-.414-3.033-.536-.919-1.411-1.585-2.438-1.855zm-7.937 14.459-7.734-2.033 2.031-7.738 7.738 2.033zm-112.778-25.787h10.508c4.73 10.879 15.438 18 27.492 18s22.762-7.121 27.492-18h10.508c2.211 0 4-1.791 4-4v-16c0-2.209-1.789-4-4-4h-10.508c-4.73-10.879-15.437-18-27.492-18s-22.762 7.121-27.492 18h-10.508c-2.211 0-4 1.791-4 4v16c0 2.209 1.789 4 4 4zm4-16h9.266c1.734 0 3.273-1.117 3.805-2.768 2.949-9.111 11.359-15.232 20.93-15.232s17.98 6.121 20.93 15.232c.531 1.65 2.07 2.768 3.805 2.768h9.266v8h-9.266c-1.734 0-3.273 1.117-3.805 2.768-2.949 9.111-11.359 15.232-20.93 15.232s-17.98-6.121-20.93-15.232c-.531-1.65-2.07-2.768-3.805-2.768h-9.266zm0 44c0-2.209 1.789-4 4-4h20c2.211 0 4 1.791 4 4s-1.789 4-4 4h-20c-2.211 0-4-1.791-4-4zm48 12c0 2.209-1.789 4-4 4h-40c-2.211 0-4-1.791-4-4s1.789-4 4-4h40c2.211 0 4 1.791 4 4zm24 0c0 2.209-1.789 4-4 4h-12c-2.211 0-4-1.791-4-4s1.789-4 4-4h12c2.211 0 4 1.791 4 4zm-80-92v-12c0-2.209 1.789-4 4-4s4 1.791 4 4v12c0 2.209-1.789 4-4 4s-4-1.791-4-4zm12 0v-12c0-2.209 1.789-4 4-4s4 1.791 4 4v12c0 2.209-1.789 4-4 4s-4-1.791-4-4zm14.77 43.51 7.801 4.266 4.266 7.801c.699 1.283 2.047 2.08 3.508 2.08s2.809-.797 3.508-2.08l4.266-7.801 7.801-4.266c1.285-.701 2.082-2.047 2.082-3.51s-.797-2.809-2.082-3.51l-7.801-4.266-4.266-7.801c-1.398-2.566-5.617-2.566-7.016 0l-4.266 7.801-7.801 4.266c-1.285.701-2.082 2.047-2.082 3.51s.797 2.809 2.082 3.51zm12.664-4.828c.672-.367 1.223-.92 1.59-1.59l1.32-2.412 1.32 2.412c.367.67.918 1.223 1.59 1.59l2.41 1.318-2.41 1.318c-.672.367-1.223.92-1.59 1.59l-1.32 2.412-1.32-2.412c-.367-.67-.918-1.223-1.59-1.59l-2.41-1.318zm6.566-84.682c0-9.926-8.074-18-18-18s-18 8.074-18 18 8.074 18 18 18 18-8.074 18-18zm-18 10c-5.516 0-10-4.486-10-10s4.484-10 10-10 10 4.486 10 10-4.484 10-10 10z" fill="url(#SVGID_1_)"/></g></svg>