<svg id="genie-lamp" enable-background="new 0 0 300 300" height="512" viewBox="0 0 300 300" width="512" xmlns="http://www.w3.org/2000/svg" xmlns:xlink="http://www.w3.org/1999/xlink"><linearGradient id="SVGID_1_" gradientUnits="userSpaceOnUse" x1="39.299" x2="214.957" y1="254.829" y2="79.171"><stop offset="0" stop-color="#107eff"/><stop offset="1" stop-color="#8f16ff"/></linearGradient><g><path d="m189.733 106.902 13.906 4.699 4.699 13.904c.547 1.625 2.074 2.719 3.789 2.719s3.242-1.094 3.789-2.719l4.699-13.904 13.906-4.699c1.625-.549 2.719-2.074 2.719-3.789s-1.094-3.24-2.719-3.789l-13.906-4.699-4.699-13.906c-.546-1.625-2.073-2.719-3.788-2.719s-3.242 1.094-3.789 2.719l-4.699 13.906-13.906 4.699c-1.625.549-2.719 2.074-2.719 3.789s1.093 3.241 2.718 3.789zm18.344-5.332c1.18-.398 2.109-1.326 2.508-2.508l1.543-4.566 1.543 4.566c.398 1.182 1.328 2.109 2.508 2.508l4.566 1.543-4.566 1.543c-1.18.398-2.109 1.326-2.508 2.508l-1.543 4.566-1.543-4.566c-.398-1.182-1.328-2.109-2.508-2.508l-4.566-1.543zm-99.949 40.43c6.617 0 12-5.383 12-12s-5.383-12-12-12-12 5.383-12 12 5.383 12 12 12zm0-16c2.207 0 4 1.795 4 4s-1.793 4-4 4-4-1.795-4-4 1.793-4 4-4zm-42.828 100.885 2.828-2.828-2.828-2.828c-1.562-1.562-1.562-4.094 0-5.656s4.094-1.562 5.656 0l2.828 2.828 2.828-2.828c1.562-1.562 4.094-1.562 5.656 0s1.562 4.094 0 5.656l-2.828 2.828 2.828 2.828c1.562 1.562 1.562 4.094 0 5.656-.781.781-1.805 1.172-2.828 1.172s-2.047-.391-2.828-1.172l-2.828-2.828-2.828 2.828c-.781.781-1.805 1.172-2.828 1.172s-2.047-.391-2.828-1.172c-1.563-1.562-1.563-4.094 0-5.656zm199.941-84.155c-.09-.064-.18-.123-.277-.178-10.863-6.365-34.504-5.531-50.27 11.857-18.773-4.629-22.902-6.725-26.59-13.453-.422-9.062-6.328-16.816-14.712-20.558 1.699-2.251 2.735-5.001 2.735-7.999 0-6.486-5.316-18.4-14-18.4s-14 11.914-14 18.4c0 2.998 1.036 5.748 2.734 7.999-8.312 3.709-14.187 11.364-14.699 20.326-7.168 9.934-27.582 16.535-42.48 10.248-20.973-8.852-53.141-1.193-54.5-.859-.961.232-1.797.812-2.355 1.627l-12 17.535c-1.031 1.506-.91 3.518.289 4.891 1.195 1.375 3.18 1.758 4.805.943.352-.176 35.699-17.277 71.305 20.273 12.15 12.816 27.084 21.466 42.834 25.313.019.436.068.864.068 1.304 0 8.329-10.958 18.13-17.528 24h-86.472c-2.211 0-4 1.791-4 4s1.789 4 4 4h216c2.211 0 4-1.791 4-4s-1.789-4-4-4h-62.472c-6.57-5.87-17.528-15.671-17.528-24 0-.081.01-.16.011-.241 22.047-4.025 39.869-17.486 47.708-36.089 4.953-12.459 17.289-23.432 25.012-24.918 3.012-.572 4.023.518 4.367.877 3.082 3.252 2 4.777 1.484 5.51-3.152 4.457-13.496 6.48-15.949 5.604-1.539-1.35-3.875-1.324-5.387.109-1.602 1.52-1.668 4.051-.148 5.654 10.828 11.426 20.793 10.535 25.777 8.986 8.391-2.613 15.043-10.855 16.551-20.508 1.5-9.602-2.356-18.669-10.313-24.253zm-109.113-30.33c0-4.082 3.645-10.4 6-10.4s6 6.318 6 10.4c0 3.088-2.691 5.6-6 5.6s-6-2.512-6-5.6zm111.523 53.35c-1.051 6.709-5.48 12.377-11.027 14.105-2.586.805-5.266.738-7.996-.186 4.129-1.227 8.109-3.27 10.723-5.746 5.375-5.1 5.254-11.918-.32-17.799-2-2.109-5.637-4.383-11.684-3.229-11.199 2.156-25.367 15.811-30.906 29.742-6.758 16.043-22.375 27.729-41.773 31.258-24.332 4.432-48.973-4.328-67.637-24.018-20.359-21.477-40.988-26.727-56.289-26.727-4.906 0-9.262.539-12.891 1.258l4.688-6.848c6.348-1.34 31.836-6.051 48.035.781 17.066 7.203 41.312 1.177 51.59-12.344h39.63c5.938 9.751 14.534 12.192 33.394 16.764 1.5.367 3.066-.166 4.039-1.357 12.195-14.939 32.656-17.084 41.559-12.031 5.389 3.856 7.889 9.813 6.865 16.377zm-147.523-95.75c0-2.209 1.789-4 4-4h4v-4c0-2.209 1.789-4 4-4s4 1.791 4 4v4h4c2.211 0 4 1.791 4 4s-1.789 4-4 4h-4v4c0 2.209-1.789 4-4 4s-4-1.791-4-4v-4h-4c-2.211 0-4-1.791-4-4zm-96 8v-24c0-2.209 1.789-4 4-4s4 1.791 4 4v24c0 4.412 3.59 8 8 8h16c8.824 0 16 7.178 16 16h2.996c1.102 0 2-.896 2-2v-20c0-1.104-.898-2-2-2h-16.996c-5.516 0-10-4.486-10-10s4.484-10 10-10h20c1.102 0 2-.896 2-2v-6c0-2.209 1.789-4 4-4s4 1.791 4 4v6c0 5.514-4.484 10-10 10h-20c-1.102 0-2 .896-2 2s.898 2 2 2h16.996c5.516 0 10 4.486 10 10v20c0 5.514-4.484 10-10 10h-2.996v4c0 8.822-7.176 16-16 16-4.41 0-8 3.588-8 8 0 2.209-1.789 4-4 4s-4-1.791-4-4c0-8.822 7.176-16 16-16 4.41 0 8-3.588 8-8v-4h-12c-4.41 0-8 3.588-8 8 0 2.209-1.789 4-4 4s-4-1.791-4-4c0-8.822 7.176-16 16-16h12c0-4.412-3.59-8-8-8h-16c-8.824 0-16-7.178-16-16z" fill="url(#SVGID_1_)"/></g></svg>