<svg id="globe" enable-background="new 0 0 300 300" height="512" viewBox="0 0 300 300" width="512" xmlns="http://www.w3.org/2000/svg" xmlns:xlink="http://www.w3.org/1999/xlink"><linearGradient id="SVGID_1_" gradientUnits="userSpaceOnUse" x1="72.101" x2="263.411" y1="272.511" y2="81.201"><stop offset="0" stop-color="#107eff"/><stop offset="1" stop-color="#8f16ff"/></linearGradient><g><path d="m197.247 48c0-2.209 1.791-4 4-4h4v-4c0-2.209 1.791-4 4-4s4 1.791 4 4v4h4c2.209 0 4 1.791 4 4s-1.791 4-4 4h-4v4c0 2.209-1.791 4-4 4s-4-1.791-4-4v-4h-4c-2.209 0-4-1.791-4-4zm60 32c0 6.617-5.383 12-12 12s-12-5.383-12-12 5.383-12 12-12 12 5.383 12 12zm-8 0c0-2.205-1.795-4-4-4s-4 1.795-4 4 1.795 4 4 4 4-1.795 4-4zm-202.218 74.986c-2.362 0-4.276 1.915-4.276 4.277s1.915 4.276 4.276 4.276 4.277-1.915 4.277-4.276-1.915-4.277-4.277-4.277zm206.218 41.014v16c0 2.209-1.791 4-4 4h-24v9.205l14.174 8.506c3.594 2.154 5.826 6.098 5.826 10.289v16c0 2.209-1.791 4-4 4h-16c-2.209 0-4-1.791-4-4v-9.205l-14.174-8.506c-3.131-1.877-5.129-5.132-5.617-8.705-14.719 8.119-31.256 12.416-48.209 12.416-16.958 0-33.492-4.292-48.209-12.411-.49 3.572-2.488 6.824-5.619 8.7l-14.172 8.506v9.205c0 2.209-1.791 4-4 4h-16c-2.209 0-4-1.791-4-4v-16c0-4.191 2.232-8.135 5.828-10.289l14.172-8.506v-9.205h-24c-2.209 0-4-1.791-4-4v-16c0-2.209 1.791-4 4-4h23.665c-7.934-13.121-12.122-28.021-12.122-43.543 0-46.57 37.887-84.457 84.457-84.457s84.457 37.887 84.457 84.457c0 15.522-4.188 30.422-12.122 43.543h23.665c2.209 0 4 1.791 4 4zm-162.774-4h125.549c8.927-12.834 13.683-27.829 13.683-43.543 0-42.158-34.299-76.457-76.457-76.457s-76.458 34.299-76.458 76.457c0 15.714 4.756 30.709 13.683 43.543zm62.774 46c17.017 0 33.577-4.701 48-13.549v-8.451h-96v8.447c14.424 8.849 30.977 13.553 48 13.553zm92-38h-184v8h184zm-129.898-113.229c-11.227 6.961-20.322 16.854-26.305 28.609-1.002 1.969-.219 4.377 1.75 5.379.582.297 1.201.436 1.811.436 1.457 0 2.863-.799 3.568-2.186 5.32-10.453 13.408-19.25 23.391-25.441 1.879-1.164 2.457-3.629 1.291-5.506-1.158-1.876-3.625-2.455-5.506-1.291zm95.012 58.342c0 1.715-1.094 3.24-2.719 3.789l-13.906 4.699-4.699 13.904c-.549 1.625-2.074 2.719-3.789 2.719s-3.24-1.094-3.789-2.719l-4.699-13.904-13.906-4.699c-1.625-.549-2.719-2.074-2.719-3.789s1.094-3.24 2.719-3.789l13.906-4.699 4.699-13.906c.549-1.625 2.074-2.719 3.789-2.719s3.24 1.094 3.789 2.719l4.699 13.906 13.906 4.699c1.625.549 2.719 2.074 2.719 3.789zm-16.496 0-4.566-1.543c-1.182-.398-2.109-1.326-2.508-2.508l-1.543-4.566-1.543 4.566c-.398 1.182-1.326 2.109-2.508 2.508l-4.566 1.543 4.566 1.543c1.182.398 2.109 1.326 2.508 2.508l1.543 4.566 1.543-4.566c.398-1.182 1.326-2.109 2.508-2.508z" fill="url(#SVGID_1_)"/></g></svg>