<svg id="hand-spell" enable-background="new 0 0 300 300" height="512" viewBox="0 0 300 300" width="512" xmlns="http://www.w3.org/2000/svg" xmlns:xlink="http://www.w3.org/1999/xlink"><linearGradient id="SVGID_1_" gradientUnits="userSpaceOnUse" x1="59.202" x2="220.385" y1="226.443" y2="65.259"><stop offset="0" stop-color="#107eff"/><stop offset="1" stop-color="#8f16ff"/></linearGradient><g><path d="m196.557 51.088c0-2.209 1.791-4 4-4s4 1.791 4 4-1.791 4-4 4-4-1.791-4-4zm12 36h4v4c0 2.209 1.789 4 4 4s4-1.791 4-4v-4h4c2.211 0 4-1.791 4-4s-1.789-4-4-4h-4v-4c0-2.209-1.789-4-4-4s-4 1.791-4 4v4h-4c-2.211 0-4 1.791-4 4s1.789 4 4 4zm-177.114 13.113c0-1.715 1.094-3.24 2.719-3.789l13.906-4.699 4.699-13.906c.547-1.625 2.074-2.719 3.789-2.719s3.242 1.094 3.789 2.719l4.699 13.906 13.906 4.699c1.625.549 2.719 2.074 2.719 3.789s-1.094 3.24-2.719 3.789l-13.906 4.699-4.699 13.904c-.547 1.625-2.074 2.719-3.789 2.719s-3.242-1.094-3.789-2.719l-4.699-13.904-13.906-4.699c-1.625-.549-2.719-2.074-2.719-3.789zm237.114 70.887c0 2.209-1.789 4-4 4-9.434 0-18.727 3.189-26.172 8.98l-23.371 18.178c-.719.557-1.586.842-2.457.842-.598 0-1.199-.135-1.758-.406-1.371-.672-2.242-2.066-2.242-3.594v-18.963l-23.567-10.475-4.5 3.213c-5.68 4.059-12.375 6.203-19.355 6.203h-1.754l5.43 27.848c1.305 5.863-.484 12.008-4.809 16.332-1.547 1.549-3.727 2.207-5.887 1.752-2.137-.449-3.887-1.932-4.68-3.967l-8.91-24.906v34.131c0 5.961-4.848 10.811-10.809 10.811h-1.555c-4.145 0-7.594-3.24-7.855-7.377l-3.113-53.078-12.77 17.881-3.363 41.445c-.477 4.736-2.98 8.9-6.875 11.498-1.473.98-3.172 1.477-4.875 1.477-1.422 0-2.848-.346-4.148-1.043-2.859-1.531-4.637-4.5-4.637-7.744v-47.059c0-.6.137-1.193.395-1.732l17.914-37.26-15.895 10.197-27.844 24.43c-3.645 3.129-8.73 3.76-12.992 1.627l-5.602-2.799c-2.488-1.246-4.172-3.637-4.504-6.398-.336-2.76.73-5.484 2.852-7.287l42.922-41.627 32.832-27.416-28.906-28.907c-.438-.439-.77-.975-.965-1.562-.133-.4-1.281-4.021-.668-8.332.871-6.092 4.848-10.611 11.195-12.729 1.207-.398 2.523-.209 3.559.518l39.258 27.48 23.105 3.852c.559.094 1.09.303 1.562.617l23.504 15.668 26.309 7.893v-2.211c0-1.113.465-2.178 1.281-2.936s1.871-1.139 3.027-1.053l52 4c2.199.17 3.848 2.092 3.68 4.295-.168 2.199-2.031 3.852-4.297 3.682l-27.691-2.13v26.141c0 2.209-1.789 4-4 4s-4-1.791-4-4v-26.757l-12-.923v75.502l16.914-13.158c8.844-6.877 19.883-10.664 31.086-10.664 2.212 0 4.001 1.791 4.001 4zm-60 .28v-49.716l-29.18-8.754c-.379-.115-.742-.283-1.07-.504l-23.285-15.523-23.152-3.859c-.59-.098-1.148-.326-1.637-.668l-25.282-17.697c-1.538 3.688-4.682 4.823-6.589 4.823-2.211 0-4-1.791-4-4 0-1.943 1.387-3.564 3.227-3.926.103-.248.261-.821.269-1.864l-5.833-4.08c-4.797 2.5-4.465 7.08-3.93 9.383l31.258 31.256c.09.09.124.215.204.312.19.227.344.467.48.736.116.229.207.453.277.7.036.129.12.231.145.365 2.949 16.191 13.141 22.969 30.25 20.121 2.168-.365 4.238 1.115 4.598 3.291.363 2.18-1.113 4.238-3.293 4.6-2.887.48-5.652.717-8.277.717-14.604 0-24.955-7.324-29.504-20.891l-31.113 25.969-43.18 42.014 5.742 3c1.367.688 3.008.486 4.172-.514l28.035-24.598c.148-.133.309-.254.477-.361l28.031-17.979c1.512-.965 3.469-.814 4.812.371 1.34 1.186 1.727 3.117.953 4.729l-23.637 49.158v46.146c0 .312.141.545.414.693.27.145.547.135.812-.041 1.891-1.264 3.113-3.293 3.34-5.564l3.445-42.471c.059-.721.312-1.412.734-2l20-28c.98-1.383 2.727-1.988 4.363-1.52 1.629.471 2.785 1.916 2.883 3.609l3.773 64.371 1.426-.137c1.547 0 2.809-1.262 2.809-2.811v-57.189c0-1.945 1.398-3.609 3.316-3.941 1.934-.322 3.797.764 4.449 2.594l15.656 43.771c1.184-2.078 1.566-4.537 1.031-6.941l-6.379-32.717c-.23-1.174.078-2.387.84-3.309.758-.922 1.891-1.457 3.086-1.457h6.609c5.305 0 10.391-1.629 14.707-4.713l6.359-4.541c1.145-.828 2.652-.977 3.949-.402z" fill="url(#SVGID_1_)"/></g></svg>