<svg id="key" enable-background="new 0 0 300 300" height="512" viewBox="0 0 300 300" width="512" xmlns="http://www.w3.org/2000/svg" xmlns:xlink="http://www.w3.org/1999/xlink"><linearGradient id="SVGID_1_" gradientUnits="userSpaceOnUse" x1="88.494" x2="245.457" y1="223.007" y2="66.044"><stop offset="0" stop-color="#107eff"/><stop offset="1" stop-color="#8f16ff"/></linearGradient><g><path d="m238.45 64c0-6.617-5.383-12-12-12s-12 5.383-12 12 5.383 12 12 12 12-5.383 12-12zm-12 4c-2.207 0-4-1.795-4-4s1.793-4 4-4 4 1.795 4 4-1.793 4-4 4zm-8 68c0 2.209-1.789 4-4 4h-4v4c0 2.209-1.789 4-4 4s-4-1.791-4-4v-4h-4c-2.211 0-4-1.791-4-4s1.789-4 4-4h4v-4c0-2.209 1.789-4 4-4s4 1.791 4 4v4h4c2.211 0 4 1.791 4 4zm24.213-29.59c0 2.362-1.915 4.276-4.277 4.276s-4.276-1.915-4.276-4.276 1.915-4.276 4.276-4.276 4.277 1.915 4.277 4.276zm-44.213 113.59h-44v-16c2.211 0 4-1.791 4-4v-12c0-2.209-1.789-4-4-4v-36c2.211 0 4-1.791 4-4v-12c0-1.642-.993-3.047-2.408-3.663 1.5-2.436 2.408-5.273 2.408-8.337 0-2.542-.651-4.915-1.71-7.052 2.509.67 5.091 1.052 7.71 1.052 8.992 0 17.434-3.984 23.16-10.93 5.723-6.943 8.004-16.076 6.258-25.057-2.29-11.786-11.692-21.087-23.488-23.397-.729-14.794-12.959-26.616-27.93-26.616s-27.202 11.822-27.93 26.617c-11.788 2.306-21.194 11.607-23.488 23.396-1.746 8.98.535 18.113 6.26 25.059s14.166 10.928 23.158 10.928c2.623 0 5.207-.384 7.71-1.051-1.059 2.137-1.71 4.509-1.71 7.051 0 3.064.909 5.902 2.409 8.337-1.416.616-2.409 2.021-2.409 3.663v12c0 2.209 1.789 4 4 4v36c-2.211 0-4 1.791-4 4v12c0 2.209 1.789 4 4 4v56c0 6.617 5.383 12 12 12 5.208 0 9.606-3.354 11.263-8h44.737c2.211 0 4-1.791 4-4v-36c0-2.209-1.789-4-4-4zm-64-24v-4h16v4zm0-56v-4h16v4zm0-20c0-4.412 3.59-8 8-8s8 3.588 8 8-3.59 8-8 8-8-3.588-8-8zm8-84c11.027 0 20 8.973 20 20s-8.973 20-20 20-20-8.973-20-20 8.972-20 20-20zm-22 70c-6.594 0-12.785-2.922-16.984-8.018-4.199-5.094-5.869-11.814-4.582-18.441 1.626-8.347 8.152-14.96 16.398-16.89 2.997 12.234 14.025 21.349 27.168 21.349s24.171-9.116 27.168-21.349c8.249 1.933 14.776 8.543 16.398 16.89 1.289 6.625-.379 13.348-4.578 18.441-4.203 5.096-10.395 8.018-16.988 8.018-2.113 0-4.199-.299-6.203-.891-10.336-3.043-21.262-3.045-31.598.002-1.998.59-4.084.889-6.199.889zm22 158c-2.207 0-4-1.795-4-4v-56h8v56c0 2.205-1.793 4-4 4zm28-8v-28h24v4h-8c-2.211 0-4 1.791-4 4s1.789 4 4 4h8v4h-16c-2.211 0-4 1.791-4 4s1.789 4 4 4h16v4zm-28-184c8.824 0 16-7.178 16-16s-7.176-16-16-16-16 7.178-16 16 7.176 16 16 16zm0-24c4.41 0 8 3.588 8 8s-3.59 8-8 8-8-3.588-8-8 3.59-8 8-8zm-16 44c0 2.209-1.791 4-4 4 0 2.209-1.791 4-4 4s-4-1.791-4-4c-2.209 0-4-1.791-4-4s1.791-4 4-4c0-2.209 1.791-4 4-4s4 1.791 4 4c2.209 0 4 1.791 4 4zm32 0c0-2.209 1.789-4 4-4 0-2.209 1.789-4 4-4s4 1.791 4 4c2.211 0 4 1.791 4 4s-1.789 4-4 4c0 2.209-1.789 4-4 4s-4-1.791-4-4c-2.211 0-4-1.791-4-4zm-53.606 93.324-13.906-4.699-4.699-13.906c-.549-1.625-2.074-2.719-3.789-2.719s-3.24 1.094-3.789 2.719l-4.699 13.906-13.906 4.699c-1.625.549-2.719 2.074-2.719 3.789s1.094 3.24 2.719 3.789l13.906 4.699 4.699 13.904c.549 1.625 2.074 2.719 3.789 2.719s3.24-1.094 3.789-2.719l4.699-13.904 13.906-4.699c1.625-.549 2.719-2.074 2.719-3.789s-1.094-3.24-2.719-3.789zm-18.343 5.332c-1.182.398-2.109 1.326-2.508 2.508l-1.543 4.566-1.543-4.566c-.398-1.182-1.326-2.109-2.508-2.508l-4.566-1.543 4.566-1.543c1.182-.398 2.109-1.326 2.508-2.508l1.543-4.566 1.543 4.566c.398 1.182 1.326 2.109 2.508 2.508l4.566 1.543zm-16.391-52.246c0-2.362 1.915-4.276 4.276-4.276s4.277 1.915 4.277 4.276-1.915 4.276-4.277 4.276-4.276-1.914-4.276-4.276z" fill="url(#SVGID_1_)"/></g></svg>