<svg id="rabbit" enable-background="new 0 0 300 300" height="512" viewBox="0 0 300 300" width="512" xmlns="http://www.w3.org/2000/svg" xmlns:xlink="http://www.w3.org/1999/xlink"><linearGradient id="SVGID_1_" gradientUnits="userSpaceOnUse" x1="52.012" x2="233.669" y1="234.225" y2="52.568"><stop offset="0" stop-color="#107eff"/><stop offset="1" stop-color="#8f16ff"/></linearGradient><g><path d="m65.443 222c0 2.209-1.791 4-4 4h-4v4c0 2.209-1.791 4-4 4s-4-1.791-4-4v-4h-4c-2.209 0-4-1.791-4-4s1.791-4 4-4h4v-4c0-2.209 1.791-4 4-4s4 1.791 4 4v4h4c2.209 0 4 1.791 4 4zm3.937-29.866c-2.362 0-4.276 1.915-4.276 4.276s1.915 4.276 4.276 4.276 4.277-1.915 4.277-4.276-1.915-4.276-4.277-4.276zm-19.937-122.134c0-6.617 5.383-12 12-12s12 5.383 12 12-5.383 12-12 12-12-5.383-12-12zm8 0c0 2.205 1.795 4 4 4s4-1.795 4-4-1.795-4-4-4-4 1.795-4 4zm184 70c0 10.408-16.745 17.192-38.09 21.214l6.08 84.499c.01 15.838-55.645 16.287-61.99 16.287s-62-.449-62-16l6.09-84.786c-21.344-4.022-38.09-10.806-38.09-21.214 0-16.311 39.47-22.345 59.695-24.364-.264-2.898-.39-5.78-.271-8.46-16.318 4.633-29.031-1.506-29.213-1.598-1.57-.785-2.445-2.504-2.156-4.236.184-1.1 4.688-27.074 21.959-38.725 7.762-5.236 16.789-6.756 26.854-4.521 7.91 1.758 13.748 6.154 17.355 13.068 6.087 11.669 4.472 28.704 1.326 42.861 2.129.009 4.216.056 6.307.1-.751-24.017 2.244-59.199 23.744-75.324.949-.713 2.166-.965 3.32-.693s2.127 1.043 2.658 2.104c.857 1.717 17.807 36.425 8.258 76.813 19.653 2.798 48.164 9.228 48.164 22.975zm-76.523-6h14.016c16.965-36.246 5.955-72.537.988-85.363-21.442 21.818-16.717 71.954-15.004 85.363zm-17.92-11.998c-.389 1.406-.78 2.756-1.168 4.04 3.433-.013 6.811.02 10.174.102-.111-1.27-.217-2.598-.313-4.013-2.731-.062-5.454-.131-8.249-.131zm-16.385-34.83c1.562-1.562 4.094-1.562 5.656 0s1.562 4.094 0 5.656c-5.043 5.043-10.119 8.605-15.025 11.07-1.539 7.791 1.336 22.311 3.279 30.102h10.174c3.459-9.287 14.654-42.312 5.871-59.141-2.498-4.787-6.422-7.717-11.994-8.955-7.938-1.768-14.682-.674-20.623 3.33-11.232 7.561-16.207 23.492-17.877 30.27 6.551 2.056 23.36 4.845 40.539-12.332zm67.286 109.676c-8.161 2.069-24.633 5.151-50.458 5.151-25.82 0-42.29-3.082-50.453-5.15l-1.178 16.375c12.999 3.156 30.307 4.775 51.632 4.775 21.328 0 38.638-1.62 51.638-4.776zm3.517 48.79-1.753-24.318c-13.468 3.1-30.982 4.679-52.222 4.679-21.236 0-38.747-1.579-52.214-4.677l-1.75 24.326c2.559 2.951 20.777 8.352 53.965 8.352 33.23 0 51.451-5.414 53.974-8.362zm-5.989-83.084c-15.862 2.395-33.31 3.446-47.986 3.446s-32.123-1.051-47.985-3.446l-1.883 26.17c9.808 2.689 27.124 5.276 49.868 5.276 22.748 0 40.064-2.587 49.872-5.277zm38.014-22.554c0-3.125-10.481-10.79-42.346-15.186-.453 1.417-.945 2.837-1.469 4.262 17.333 3.043 19.814 7.201 19.814 10.924 0 12.99-47.455 14-62 14s-62-1.01-62-14c0-2.729.08-8.955 29.479-12.294-.259-1.315-.509-2.693-.745-4.116-35.914 3.543-52.733 11.793-52.733 16.41 0 6.281 29.537 18 86 18s86-11.719 86-18zm25.114-60.887c0 1.715-1.094 3.24-2.719 3.789l-13.906 4.699-4.699 13.904c-.549 1.625-2.074 2.719-3.789 2.719s-3.24-1.094-3.789-2.719l-4.699-13.904-13.906-4.699c-1.625-.549-2.719-2.074-2.719-3.789s1.094-3.24 2.719-3.789l13.906-4.699 4.699-13.906c.549-1.625 2.074-2.719 3.789-2.719s3.24 1.094 3.789 2.719l4.699 13.906 13.906 4.699c1.625.549 2.719 2.074 2.719 3.789zm-16.496 0-4.566-1.543c-1.182-.398-2.109-1.326-2.508-2.508l-1.543-4.566-1.543 4.566c-.398 1.182-1.326 2.109-2.508 2.508l-4.566 1.543 4.566 1.543c1.182.398 2.109 1.326 2.508 2.508l1.543 4.566 1.543-4.566c.398-1.182 1.326-2.109 2.508-2.508z" fill="url(#SVGID_1_)"/></g></svg>