<svg id="magic-book" enable-background="new 0 0 300 300" height="512" viewBox="0 0 300 300" width="512" xmlns="http://www.w3.org/2000/svg" xmlns:xlink="http://www.w3.org/1999/xlink"><linearGradient id="SVGID_1_" gradientUnits="userSpaceOnUse" x1="59.335" x2="250.992" y1="264.265" y2="72.608"><stop offset="0" stop-color="#107eff"/><stop offset="1" stop-color="#8f16ff"/></linearGradient><g><path d="m86 73.273c0-2.209 1.791-4 4-4h4v-4c0-2.209 1.791-4 4-4s4 1.791 4 4v4h4c2.209 0 4 1.791 4 4s-1.791 4-4 4h-4v4c0 2.209-1.791 4-4 4s-4-1.791-4-4v-4h-4c-2.209 0-4-1.791-4-4zm172 36v136c0 2.209-1.791 4-4 4h-80.248c-8.377 0-15.975 4.307-20.326 11.52-.725 1.199-2.023 1.934-3.426 1.934s-2.701-.734-3.426-1.934c-4.352-7.213-11.949-11.52-20.326-11.52h-80.248c-2.209 0-4-1.791-4-4v-136c0-2.209 1.791-4 4-4h8v-4c0-2.209 1.791-4 4-4h77.918c5.684 0 10.766 2.637 14.082 6.752 3.316-4.115 8.398-6.752 14.082-6.752h77.918c2.209 0 4 1.791 4 4v4h8c2.209 0 4 1.791 4 4zm-104 6.082v110.872c3.281-.931 7.01-.954 10.082-.954h73.918v-120h-73.918c-5.559 0-10.082 4.524-10.082 10.082zm-92 109.918h73.918c3.072 0 6.802.022 10.082.954v-110.872c0-5.559-4.523-10.082-10.082-10.082h-73.918zm188-112h-4v116c0 2.209-1.791 4-4 4h-77.918c-9.594 0-10.082 1.027-10.082 4 0 2.209-1.791 4-4 4s-4-1.791-4-4c0-2.973-.488-4-10.082-4h-77.918c-2.209 0-4-1.791-4-4v-116h-4v128h76.248c9.248 0 17.783 3.92 23.752 10.705 5.969-6.785 14.504-10.705 23.752-10.705h76.248zm-104-60c0-6.617 5.383-12 12-12s12 5.383 12 12-5.383 12-12 12-12-5.382-12-12zm8 0c0 2.205 1.795 4 4 4s4-1.795 4-4-1.795-4-4-4-4 1.795-4 4zm34.887 9.114c0-1.715 1.094-3.24 2.719-3.789l13.906-4.699 4.699-13.906c.549-1.625 2.074-2.719 3.789-2.719s3.24 1.094 3.789 2.719l4.699 13.906 13.906 4.699c1.625.549 2.719 2.074 2.719 3.789s-1.094 3.24-2.719 3.789l-13.906 4.699-4.699 13.904c-.549 1.625-2.074 2.719-3.789 2.719s-3.24-1.094-3.789-2.719l-4.699-13.904-13.906-4.699c-1.626-.549-2.719-2.074-2.719-3.789zm16.496 0 4.566 1.543c1.182.398 2.109 1.326 2.508 2.508l1.543 4.566 1.543-4.566c.398-1.182 1.326-2.109 2.508-2.508l4.566-1.543-4.566-1.543c-1.182-.398-2.109-1.326-2.508-2.508l-1.543-4.566-1.543 4.566c-.398 1.182-1.326 2.109-2.508 2.508zm24.617 130.886c0 13.234-10.766 24-24 24-11.818 0-21.996-8.859-23.674-20.605-.248-1.734.66-3.426 2.24-4.178 1.584-.752 3.471-.389 4.656.896 2.316 2.506 5.436 3.887 8.777 3.887 6.617 0 12-5.383 12-12 0-3.342-1.381-6.461-3.887-8.777-1.285-1.189-1.648-3.074-.896-4.656.75-1.578 2.436-2.475 4.178-2.24 11.747 1.677 20.606 11.855 20.606 23.673zm-8 0c0-4.066-1.578-7.84-4.188-10.691.125.889.188 1.787.188 2.691 0 11.027-8.973 20-20 20-.904 0-1.803-.062-2.691-.188 2.852 2.609 6.625 4.188 10.691 4.188 8.822 0 16-7.177 16-16zm-56-12h24c2.209 0 4-1.791 4-4s-1.791-4-4-4h-24c-2.209 0-4 1.791-4 4s1.791 4 4 4zm0 12h8c2.209 0 4-1.791 4-4s-1.791-4-4-4h-8c-2.209 0-4 1.791-4 4s1.791 4 4 4zm0-68h12c2.209 0 4-1.791 4-4s-1.791-4-4-4h-12c-2.209 0-4 1.791-4 4s1.791 4 4 4zm28 0h36c2.209 0 4-1.791 4-4s-1.791-4-4-4h-36c-2.209 0-4 1.791-4 4s1.791 4 4 4zm-28 20h32c2.209 0 4-1.791 4-4s-1.791-4-4-4h-32c-2.209 0-4 1.791-4 4s1.791 4 4 4zm-80 4h16c2.209 0 4-1.791 4-4s-1.791-4-4-4h-16c-2.209 0-4 1.791-4 4s1.791 4 4 4zm-22.218-60.46c2.362 0 4.277-1.915 4.277-4.276s-1.915-4.277-4.277-4.277-4.276 1.915-4.276 4.277 1.914 4.276 4.276 4.276zm10.218 60.46c2.209 0 4-1.791 4-4s-1.791-4-4-4-4 1.791-4 4 1.791 4 4 4zm12 12h16c2.209 0 4-1.791 4-4s-1.791-4-4-4h-16c-2.209 0-4 1.791-4 4s1.791 4 4 4zm-12 0c2.209 0 4-1.791 4-4s-1.791-4-4-4-4 1.791-4 4 1.791 4 4 4zm12 12h16c2.209 0 4-1.791 4-4s-1.791-4-4-4h-16c-2.209 0-4 1.791-4 4s1.791 4 4 4zm-12 0c2.209 0 4-1.791 4-4s-1.791-4-4-4-4 1.791-4 4 1.791 4 4 4zm28 4h-16c-2.209 0-4 1.791-4 4s1.791 4 4 4h16c2.209 0 4-1.791 4-4s-1.791-4-4-4zm-28 8c2.209 0 4-1.791 4-4s-1.791-4-4-4-4 1.791-4 4 1.791 4 4 4zm44-4v-36c0-2.209 1.791-4 4-4h12c2.209 0 4 1.791 4 4v36c0 2.209-1.791 4-4 4h-12c-2.209 0-4-1.791-4-4zm-22.182 24.364c0 7.719-6.281 14-14 14s-14-6.281-14-14 6.281-14 14-14 14 6.281 14 14zm42.182-.364c0-2.209-1.791-4-4-4h-24c-2.209 0-4 1.791-4 4s1.791 4 4 4h24c2.209 0 4-1.791 4-4z" fill="url(#SVGID_1_)"/></g></svg>