<svg id="spell-enchant" enable-background="new 0 0 300 300" height="512" viewBox="0 0 300 300" width="512" xmlns="http://www.w3.org/2000/svg" xmlns:xlink="http://www.w3.org/1999/xlink"><linearGradient id="SVGID_1_" gradientUnits="userSpaceOnUse" x1="57.172" x2="252.829" y1="250.831" y2="55.174"><stop offset="0" stop-color="#107eff"/><stop offset="1" stop-color="#8f16ff"/></linearGradient><g><path d="m134.954 157.767 16 18.824c.758.895 1.875 1.41 3.047 1.41s2.289-.516 3.047-1.41l16-18.824c1.215-1.428 1.273-3.506.145-5.002l-16-21.176c-1.516-2-4.867-2-6.383 0l-16 21.176c-1.13 1.497-1.071 3.575.144 5.002zm15.047-11.836v4.071c0 2.209 1.789 4 4 4s4-1.791 4-4v-4.071l6.875 9.1-10.875 12.795-10.875-12.795zm-16 56.071c0 2.209-1.789 4-4 4h-36c-2.211 0-4-1.791-4-4s1.789-4 4-4h36c2.21 0 4 1.791 4 4zm44 0c0-2.209 1.789-4 4-4h28c2.211 0 4 1.791 4 4s-1.789 4-4 4h-28c-2.211 0-4-1.791-4-4zm88 8h-4v-20c0-2.209-1.789-4-4-4h-51.672l48.328-8.055c2.18-.363 3.652-2.424 3.289-4.604-.363-2.178-2.426-3.654-4.602-3.287l-53.146 8.858 47.17-17.153c2.074-.756 3.148-3.051 2.391-5.127-.754-2.076-3.039-3.145-5.125-2.393l-56.721 20.626 44.307-29.538c1.84-1.225 2.336-3.709 1.109-5.547-1.223-1.838-3.703-2.34-5.547-1.109l-70.992 47.328h-2.789-2.789l-70.992-47.328c-1.848-1.23-4.328-.729-5.547 1.109-1.227 1.838-.73 4.322 1.109 5.547l44.307 29.538-56.721-20.626c-2.078-.75-4.371.318-5.125 2.393-.758 2.076.316 4.371 2.391 5.127l47.17 17.153-53.146-8.858c-2.172-.369-4.242 1.109-4.602 3.287-.363 2.18 1.109 4.24 3.289 4.604l48.328 8.055h-51.672c-2.211 0-4 1.791-4 4v20h-4c-2.211 0-4 1.791-4 4v16c0 2.209 1.789 4 4 4h88v28c0 2.209 1.789 4 4 4s4-1.791 4-4v-28h32v28c0 2.209 1.789 4 4 4s4-1.791 4-4v-28h88c2.211 0 4-1.791 4-4v-16c0-2.209-1.79-4-4-4zm-12-12h-32c-2.211 0-4 1.791-4 4s1.789 4 4 4h32v4h-85.527l-8-16h93.527zm-200 8h28c2.211 0 4-1.791 4-4s-1.789-4-4-4h-28v-4h93.527l-8 16h-85.527zm208 20h-216v-8h216zm-78-136c5.516 0 10-4.486 10-10s-4.484-10-10-10-10 4.486-10 10 4.484 10 10 10zm-58.286 41.373-16.969-16.971c-1.562-1.562-1.562-4.094 0-5.656s4.094-1.562 5.656 0l16.969 16.971c1.562 1.562 1.562 4.094 0 5.656-.781.781-1.805 1.172-2.828 1.172s-2.046-.391-2.828-1.172zm37.864-12.305 8.863-22.303c.816-2.053 3.148-3.059 5.195-2.24 2.055.816 3.055 3.141 2.242 5.193l-8.863 22.303c-.625 1.568-2.129 2.525-3.719 2.525-.492 0-.992-.092-1.477-.285-2.054-.814-3.054-3.14-2.241-5.193zm24-60 4.859-12.234c.82-2.055 3.148-3.055 5.195-2.24 2.055.814 3.055 3.141 2.242 5.193l-4.859 12.234c-.625 1.568-2.129 2.525-3.719 2.525-.492 0-.992-.092-1.477-.285-2.054-.814-3.054-3.14-2.241-5.193zm-52.125 37.731 8.902 22.287c.82 2.053-.18 4.379-2.23 5.199-.488.193-.988.287-1.484.287-1.586 0-3.09-.953-3.715-2.518l-8.902-22.287c-.82-2.053.18-4.379 2.23-5.199 2.046-.81 4.378.178 5.199 2.231zm111.3 13.345 17.629-7.803c2.008-.896 4.383.021 5.273 2.039.895 2.02-.016 4.383-2.039 5.277l-17.629 7.803c-.523.232-1.074.344-1.613.344-1.535 0-3-.889-3.66-2.383-.894-2.019.016-4.382 2.039-5.277zm-5.914 6.993c.895 2.02-.016 4.383-2.039 5.277l-49.707 22.004c-.523.232-1.074.344-1.613.344-1.535 0-3-.889-3.66-2.383-.895-2.02.016-4.383 2.035-5.277l49.707-22.004c2.023-.901 4.383.019 5.277 2.039zm-190.39-.373-17.914-7.041c-2.055-.809-3.066-3.129-2.258-5.186.812-2.061 3.137-3.068 5.188-2.26l17.914 7.041c2.055.809 3.066 3.129 2.258 5.186-.621 1.576-2.129 2.539-3.723 2.539-.489 0-.985-.09-1.465-.279zm71.804 19.623c2.055.809 3.066 3.129 2.258 5.186-.617 1.576-2.129 2.539-3.723 2.539-.488 0-.984-.09-1.465-.279l-57.007-22.405c-2.055-.809-3.066-3.129-2.258-5.186.809-2.059 3.137-3.064 5.188-2.26zm27.747-46.387c0-2.209 1.789-4 4-4s4 1.791 4 4v28c0 2.209-1.789 4-4 4s-4-1.791-4-4zm0-12v-12c0-2.209 1.789-4 4-4s4 1.791 4 4v12c0 2.209-1.789 4-4 4s-4-1.791-4-4zm4-20c5.516 0 10-4.486 10-10s-4.484-10-10-10-10 4.486-10 10 4.484 10 10 10zm-40 22c0 5.514 4.484 10 10 10s10-4.486 10-10-4.484-10-10-10-10 4.486-10 10zm62.628 45.717 56.543-56.545c1.562-1.562 4.094-1.562 5.656 0s1.562 4.094 0 5.656l-56.543 56.545c-.781.781-1.805 1.172-2.828 1.172s-2.047-.391-2.828-1.172c-1.562-1.563-1.562-4.094 0-5.656zm66.543-60.889c-1.562-1.563-1.562-4.094 0-5.656l4-4c1.562-1.562 4.094-1.562 5.656 0s1.562 4.094 0 5.656l-4 4c-.781.781-1.805 1.172-2.828 1.172s-2.046-.391-2.828-1.172zm-186-2c-1.562-1.562-1.562-4.094 0-5.656s4.094-1.562 5.656 0l42 42c1.562 1.562 1.562 4.094 0 5.656-.781.781-1.805 1.172-2.828 1.172s-2.047-.391-2.828-1.172zm45.153-23.252c-.871-2.031.07-4.383 2.102-5.252 2.016-.877 4.379.066 5.25 2.1l10.184 23.758c.871 2.031-.07 4.383-2.102 5.252-.512.221-1.047.326-1.574.326-1.551 0-3.027-.91-3.676-2.426z" fill="url(#SVGID_1_)"/></g></svg>