<svg id="mirror" enable-background="new 0 0 300 300" height="512" viewBox="0 0 300 300" width="512" xmlns="http://www.w3.org/2000/svg" xmlns:xlink="http://www.w3.org/1999/xlink"><linearGradient id="SVGID_1_" gradientUnits="userSpaceOnUse" x1="78.652" x2="239.075" y1="218.473" y2="58.05"><stop offset="0" stop-color="#107eff"/><stop offset="1" stop-color="#8f16ff"/></linearGradient><g><path d="m220.063 44c-6.617 0-12 5.383-12 12s5.383 12 12 12 12-5.383 12-12-5.383-12-12-12zm0 16c-2.207 0-4-1.795-4-4s1.793-4 4-4 4 1.795 4 4-1.793 4-4 4zm0 148c0 2.209-1.789 4-4 4h-4v4c0 2.209-1.789 4-4 4s-4-1.791-4-4v-4h-4c-2.211 0-4-1.791-4-4s1.789-4 4-4h4v-4c0-2.209 1.789-4 4-4s4 1.791 4 4v4h4c2.211 0 4 1.791 4 4zm28.213-117.59c0 2.362-1.915 4.276-4.277 4.276s-4.276-1.915-4.276-4.276 1.915-4.276 4.276-4.276 4.277 1.915 4.277 4.276zm-133.819 110.914-13.906-4.699-4.699-13.906c-.547-1.625-2.074-2.719-3.789-2.719s-3.242 1.094-3.789 2.719l-4.699 13.906-13.906 4.699c-1.625.549-2.719 2.074-2.719 3.789s1.094 3.24 2.719 3.789l13.906 4.699 4.699 13.904c.547 1.625 2.074 2.719 3.789 2.719s3.242-1.094 3.789-2.719l4.699-13.904 13.906-4.699c1.625-.549 2.719-2.074 2.719-3.789s-1.094-3.24-2.719-3.789zm-18.343 5.332c-1.18.398-2.109 1.326-2.508 2.508l-1.543 4.566-1.543-4.566c-.398-1.182-1.328-2.109-2.508-2.508l-4.566-1.543 4.566-1.543c1.18-.398 2.109-1.326 2.508-2.508l1.543-4.566 1.543 4.566c.398 1.182 1.328 2.109 2.508 2.508l4.566 1.543zm-35.838-36.246c0 2.362-1.915 4.276-4.277 4.276s-4.276-1.915-4.276-4.276 1.915-4.276 4.276-4.276 4.277 1.915 4.277 4.276zm135.876-37.657c4.652 1.679 7.91 6.077 7.91 11.247 0 2.209 1.789 4 4 4s4-1.791 4-4c0-9.152-6.104-16.891-14.64-19.243.168-1.569.287-3.154.365-4.757h10.275c2.211 0 4-1.791 4-4s-1.789-4-4-4h-10.275c-.078-1.612-.198-3.205-.368-4.783 8.514-2.367 14.644-10.136 14.644-19.217 0-2.209-1.789-4-4-4s-4 1.791-4 4c0 5.132-3.266 9.564-7.91 11.25-1.561-7.364-4.103-14.197-7.467-20.257 2.15-3.255 3.376-7.064 3.376-10.994 0-11.027-8.973-20-20-20-2.866 0-5.667.617-8.225 1.772-.654-4.632-3.239-8.641-6.979-11.114.743-1.398 1.205-2.967 1.205-4.657 0-5.514-4.484-10-10-10s-10 4.486-10 10c0 1.69.461 3.26 1.205 4.657-3.741 2.474-6.326 6.484-6.979 11.117-2.557-1.154-5.354-1.775-8.225-1.775-11.027 0-20 8.973-20 20 0 3.93 1.226 7.738 3.376 10.994-3.363 6.059-5.906 12.892-7.467 20.256-4.647-1.685-7.91-6.105-7.91-11.25 0-2.209-1.789-4-4-4s-4 1.791-4 4c0 9.102 6.121 16.861 14.643 19.224-.17 1.575-.29 3.167-.368 4.776h-10.275c-2.211 0-4 1.791-4 4s1.789 4 4 4h10.275c.078 1.603.197 3.188.365 4.757-8.537 2.352-14.64 10.091-14.64 19.243 0 2.209 1.789 4 4 4s4-1.791 4-4c0-5.17 3.259-9.567 7.91-11.247 1.561 7.363 4.103 14.195 7.466 20.253-2.147 3.254-3.377 7.072-3.377 10.993 0 11.027 8.973 20 20 20 2.785 0 5.502-.593 8-1.684v5.686c0 2.14 1.691 3.854 3.806 3.961l-3.232 67.863c-.199 4.26 1.309 8.307 4.254 11.393 2.941 3.084 6.91 4.783 11.172 4.783s8.23-1.699 11.172-4.783c2.945-3.086 4.453-7.133 4.254-11.393l-3.232-67.863c2.115-.107 3.806-1.821 3.806-3.961v-5.685c2.498 1.091 5.214 1.685 8 1.685 11.027 0 20-8.973 20-20 0-3.935-1.226-7.74-3.376-10.994 3.363-6.058 5.906-12.891 7.466-20.253zm-50.089-98.753c0-1.104.898-2 2-2s2 .896 2 2-.898 2-2 2-2-.896-2-2zm2 26c23.094 0 41.883 25.121 41.883 56s-18.789 56-41.883 56-41.883-25.121-41.883-56 18.789-56 41.883-56zm5.383 205.693c-2.836 2.977-7.93 2.977-10.766 0-1.422-1.486-2.148-3.438-2.051-5.49l3.246-68.203h8.375l3.246 68.203c.098 2.053-.628 4.004-2.05 5.49zm-5.383-97.693c21.109 0 38.285-23.326 38.285-52s-17.176-52-38.285-52-38.285 23.326-38.285 52 17.175 52 38.285 52zm0-96c16.699 0 30.285 19.738 30.285 44s-13.586 44-30.285 44-30.285-19.738-30.285-44 13.586-44 30.285-44zm-18.828 22.828c-1.562-1.562-1.562-4.094 0-5.656l8-8c1.562-1.562 4.094-1.562 5.656 0s1.562 4.094 0 5.656l-8 8c-.781.781-1.805 1.172-2.828 1.172s-2.047-.391-2.828-1.172zm2.828 17.172c-1.023 0-2.047-.391-2.828-1.172-1.562-1.562-1.562-4.094 0-5.656l16-16c1.562-1.562 4.094-1.562 5.656 0s1.562 4.094 0 5.656l-16 16c-.781.781-1.805 1.172-2.828 1.172z" fill="url(#SVGID_1_)"/></g></svg>