<svg id="spell-scroll" enable-background="new 0 0 300 300" height="512" viewBox="0 0 300 300" width="512" xmlns="http://www.w3.org/2000/svg" xmlns:xlink="http://www.w3.org/1999/xlink"><linearGradient id="SVGID_1_" gradientUnits="userSpaceOnUse" x1="43.086" x2="245.61" y1="248.436" y2="45.912"><stop offset="0" stop-color="#107eff"/><stop offset="1" stop-color="#8f16ff"/></linearGradient><g><path d="m210.735 68h-100c-1.062 0-2.078.422-2.828 1.172l-5.172 5.172-5.172-5.172c-.75-.75-1.765-1.172-2.828-1.172h-12c0-6.729-7.027-12-16-12s-16 5.271-16 12v184c0 6.729 7.027 12 16 12 7.083 0 12.892-3.307 15.051-8h83.347c1.406 0 2.707-.736 3.43-1.941l5.125-8.543 2.586 7.748c.543 1.635 2.07 2.736 3.793 2.736h30.668c2.211 0 4-1.791 4-4v-180c0-2.209-1.789-4-4-4zm-144 188c-4.883 0-8-2.369-8-4v-173.618c2.349 1.004 5.05 1.618 8 1.618s5.651-.614 8-1.618v173.618c0 1.631-3.117 4-8 4zm140-8h-23.785l-4.422-13.264c-.492-1.482-1.805-2.541-3.355-2.713-1.582-.164-3.066.578-3.867 1.918l-8.438 14.059h-80.133v-172h10.344l6.828 6.828c1.5 1.5 4.156 1.5 5.656 0l6.828-6.828h94.344zm24-212c-6.617 0-12 5.383-12 12s5.383 12 12 12 12-5.383 12-12-5.383-12-12-12zm0 16c-2.207 0-4-1.795-4-4s1.793-4 4-4 4 1.795 4 4-1.793 4-4 4zm-66.828-3.115 2.828-2.828-2.828-2.828c-1.562-1.562-1.562-4.094 0-5.656s4.094-1.562 5.656 0l2.828 2.828 2.828-2.828c1.562-1.562 4.094-1.562 5.656 0s1.562 4.094 0 5.656l-2.828 2.828 2.828 2.828c1.562 1.562 1.562 4.094 0 5.656-.781.781-1.805 1.172-2.828 1.172s-2.047-.391-2.828-1.172l-2.828-2.828-2.828 2.828c-.781.781-1.805 1.172-2.828 1.172s-2.047-.391-2.828-1.172c-1.562-1.562-1.562-4.094 0-5.656zm85.358 45.115c0 2.501-2.028 4.529-4.53 4.529s-4.53-2.028-4.53-4.529c0-2.502 2.028-4.53 4.53-4.53s4.53 2.028 4.53 4.53zm-142.53 6v16.48c-7.281 3.723-12 11.244-12 19.52 0 12.131 9.871 22 22 22s22-9.869 22-22c0-8.275-4.719-15.797-12-19.52v-16.48c0-2.209-1.789-4-4-4h-12c-2.211 0-4 1.791-4 4zm8 19.102v-15.102h4v15.102c0 1.693 1.066 3.201 2.66 3.77 2.801.996 5.139 2.819 6.777 5.129h-22.874c1.637-2.31 3.976-4.133 6.777-5.129 1.594-.569 2.66-2.077 2.66-3.77zm12 69.378v-16.48c0-2.209-1.789-4-4-4h-12c-2.211 0-4 1.791-4 4v16.48c-7.281 3.723-12 11.244-12 19.52 0 12.131 9.871 22 22 22s22-9.869 22-22c0-8.275-4.719-15.797-12-19.52zm-14.66 6.391c1.594-.568 2.66-2.076 2.66-3.77v-15.101h4v15.102c0 1.693 1.066 3.201 2.66 3.77 2.801.996 5.139 2.819 6.777 5.129h-22.874c1.638-2.311 3.977-4.134 6.777-5.13zm4.66 27.129c-7.719 0-14-6.281-14-14h28c0 7.719-6.281 14-14 14zm34-102c0-2.209 1.789-4 4-4h20c2.211 0 4 1.791 4 4s-1.789 4-4 4h-20c-2.211 0-4-1.791-4-4zm0 12c0-2.209 1.789-4 4-4h40c2.211 0 4 1.791 4 4s-1.789 4-4 4h-40c-2.211 0-4-1.791-4-4zm0 56c0-2.209 1.789-4 4-4h12c2.211 0 4 1.791 4 4s-1.789 4-4 4h-12c-2.211 0-4-1.791-4-4zm0 12c0-2.209 1.789-4 4-4h36c2.211 0 4 1.791 4 4s-1.789 4-4 4h-36c-2.211 0-4-1.791-4-4zm36-16c2.211 0 4 1.791 4 4s-1.789 4-4 4h-8c-2.211 0-4-1.791-4-4s1.789-4 4-4zm-36 28c0-2.209 1.789-4 4-4h24c2.211 0 4 1.791 4 4s-1.789 4-4 4h-24c-2.211 0-4-1.791-4-4z" fill="url(#SVGID_1_)"/></g></svg>