<svg id="potions" enable-background="new 0 0 300 300" height="512" viewBox="0 0 300 300" width="512" xmlns="http://www.w3.org/2000/svg" xmlns:xlink="http://www.w3.org/1999/xlink"><linearGradient id="SVGID_1_" gradientUnits="userSpaceOnUse" x1="49.052" x2="246.709" y1="272.709" y2="75.052"><stop offset="0" stop-color="#107eff"/><stop offset="1" stop-color="#8f16ff"/></linearGradient><g><path d="m264 94c0 2.209-1.789 4-4 4h-4v4c0 2.209-1.789 4-4 4s-4-1.791-4-4v-4h-4c-2.211 0-4-1.791-4-4s1.789-4 4-4h4v-4c0-2.209 1.789-4 4-4s4 1.791 4 4v4h4c2.211 0 4 1.791 4 4zm-220 4c0-6.617 5.383-12 12-12s12 5.383 12 12-5.383 12-12 12-12-5.383-12-12zm8 0c0 2.205 1.795 4 4 4s4-1.795 4-4-1.795-4-4-4-4 1.795-4 4zm25.782-24.461c2.362 0 4.277-1.915 4.277-4.276s-1.915-4.277-4.277-4.277-4.276 1.915-4.276 4.277 1.914 4.276 4.276 4.276zm58.218 128.461c0-6.617 5.383-12 12-12s12 5.383 12 12-5.383 12-12 12-12-5.383-12-12zm8 0c0 2.205 1.793 4 4 4s4-1.795 4-4-1.793-4-4-4-4 1.795-4 4zm-21.47-10c0-2.502-2.028-4.53-4.53-4.53s-4.53 2.028-4.53 4.53c0 2.501 2.028 4.529 4.53 4.529s4.53-2.028 4.53-4.529zm-.53 44.529c2.501 0 4.53-2.028 4.53-4.529 0-2.502-2.028-4.53-4.53-4.53s-4.53 2.028-4.53 4.53c0 2.501 2.029 4.529 4.53 4.529zm84.53-52.529c0-2.502-2.028-4.53-4.53-4.53s-4.53 2.028-4.53 4.53c0 2.501 2.028 4.529 4.53 4.529s4.53-2.028 4.53-4.529zm-8.53-55.471c2.501 0 4.53-2.028 4.53-4.529 0-2.502-2.028-4.53-4.53-4.53s-4.53 2.028-4.53 4.53c0 2.501 2.029 4.529 4.53 4.529zm-88 20c2.501 0 4.53-2.028 4.53-4.529 0-2.502-2.028-4.53-4.53-4.53s-4.53 2.028-4.53 4.53c0 2.501 2.029 4.529 4.53 4.529zm100 68c2.501 0 4.53-2.028 4.53-4.529 0-2.502-2.028-4.53-4.53-4.53s-4.53 2.028-4.53 4.53c0 2.501 2.029 4.529 4.53 4.529zm-127.47-36.529c0-2.502-2.028-4.53-4.53-4.53s-4.53 2.028-4.53 4.53c0 2.501 2.028 4.529 4.53 4.529s4.53-2.028 4.53-4.529zm107.47 51.47c-2.501 0-4.53 2.028-4.53 4.53 0 2.501 2.028 4.529 4.53 4.529s4.53-2.028 4.53-4.529c0-2.502-2.029-4.53-4.53-4.53zm-94-25.47c-2.209 0-4 1.791-4 4 0 2.205-1.795 4-4 4s-4-1.795-4-4 1.795-4 4-4c2.209 0 4-1.791 4-4s-1.791-4-4-4c-6.617 0-12 5.383-12 12s5.383 12 12 12 12-5.383 12-12c0-2.209-1.791-4-4-4zm152 52c0 2.209-1.789 4-4 4h-204c-2.209 0-4-1.791-4-4s1.791-4 4-4h45.832c-4.886-2.31-9.717-5.055-14.436-8.354-2.797-1.955-5.201-4.367-7.148-7.168-16.391-23.58-20.588-49.641-11.816-73.381 7.932-21.465 25.633-37.871 47.568-44.203v-63.095c-4.559-.93-8-4.969-8-9.799 0-5.514 4.486-10 10-10h36c5.516 0 10 4.486 10 10 0 4.83-3.441 8.869-8 9.799v63.096c7.257 2.088 13.958 5.272 20 9.293v-.754c0-10.193 6.555-19.047 16-22.188v-33.447c-4.559-.93-8-4.969-8-9.799 0-5.514 4.484-10 10-10h32c5.516 0 10 4.486 10 10 0 4.83-3.441 8.869-8 9.799v33.447c9.445 3.141 16 11.994 16 22.188v109.133c0 5.913-2.219 11.306-5.845 15.434h21.845c2.211-.001 4 1.79 4 3.999zm-80-128.566v.533c4.548 1.209 8.987 2.589 13.434 4.299 14.312 5.505 26.94 9.241 38.566 11.55v-16.382c0-7.461-5.344-13.832-12.703-15.15-1.91-.342-3.297-2-3.297-3.938v-36.346h-8c-2.211 0-4-1.791-4-4s1.789-4 4-4h12 2c1.102 0 2-.896 2-2s-.898-2-2-2h-32c-1.102 0-2 .896-2 2s.898 2 2 2h2c2.211 0 4 1.791 4 4v40.346c0 1.938-1.387 3.596-3.297 3.938-7.359 1.318-12.703 7.689-12.703 15.15zm-97.896 20.675c12.535.215 25.718 2.919 39.331 8.158 3.618 1.391 7.121 2.649 10.563 3.835 3.454-1.189 6.958-2.447 10.568-3.835 13.673-5.26 26.921-7.968 39.49-8.163-8.617-10.791-20.736-18.799-34.996-22.244-1.795-.434-3.061-2.041-3.061-3.889v-65.971h-8c-2.209 0-4-1.791-4-4s1.791-4 4-4h12 2c1.104 0 2-.896 2-2s-.896-2-2-2h-36c-1.104 0-2 .896-2 2s.896 2 2 2h2c2.209 0 4 1.791 4 4v68.73c0 2.543-1.727 4.77-4.199 5.416-13.486 3.522-25.193 11.364-33.696 21.963zm5.875 88.981c23.979 16.758 50.779 19.566 73.553 7.707 21.261-11.08 34.468-32.842 34.468-56.797 0-3.49-.302-6.917-.842-10.27-3.601.452-7.3.756-11.209.756-18.148 0-39.711-4.879-65.385-14.752-14.721-5.664-28.832-8.173-41.966-7.552-1.781 3.091-3.406 6.287-4.663 9.688-7.838 21.217-3.975 44.67 10.883 66.041 1.387 1.997 3.17 3.786 5.161 5.179zm89.845 14.91c-1.475-1.679-2.658-3.605-3.611-5.673-2.832 2.046-5.824 3.916-8.986 5.563-.075.039-.151.071-.226.109h12.823zm38.742 0c8.512 0 15.434-6.924 15.434-15.434v-84.594c-12.504-2.364-26.062-6.326-41.438-12.24-2.567-.986-5.122-1.866-7.699-2.667 9.642 9.602 16.446 21.863 19.419 35.474.004.021.018.035.022.056.003.015-.003.029-.001.044 1.079 4.97 1.697 10.099 1.697 15.361 0 20.513-8.626 39.581-23.288 53.022 1.943 6.433 7.868 10.978 14.721 10.978z" fill="url(#SVGID_1_)"/></g></svg>