<svg id="spell2" enable-background="new 0 0 300 300" height="512" viewBox="0 0 300 300" width="512" xmlns="http://www.w3.org/2000/svg" xmlns:xlink="http://www.w3.org/1999/xlink"><linearGradient id="SVGID_1_" gradientUnits="userSpaceOnUse" x1="54.306" x2="245.963" y1="257.963" y2="66.305"><stop offset="0" stop-color="#107eff"/><stop offset="1" stop-color="#8f16ff"/></linearGradient><g><path d="m101.172 118.885 2.828-2.828-2.828-2.828c-1.562-1.562-1.562-4.094 0-5.656s4.094-1.562 5.656 0l2.828 2.828 2.828-2.828c1.562-1.562 4.094-1.562 5.656 0s1.562 4.094 0 5.656l-2.828 2.828 2.828 2.828c1.562 1.562 1.562 4.094 0 5.656-.781.781-1.805 1.172-2.828 1.172s-2.047-.391-2.828-1.172l-2.828-2.828-2.828 2.828c-.781.781-1.805 1.172-2.828 1.172s-2.047-.391-2.828-1.172c-1.563-1.562-1.563-4.094 0-5.656zm-15.172-46.356c2.501 0 4.53-2.028 4.53-4.529 0-2.502-2.028-4.53-4.53-4.53s-4.53 2.028-4.53 4.53c0 2.501 2.029 4.529 4.53 4.529zm42-22.529c0-6.617 5.383-12 12-12s12 5.383 12 12-5.383 12-12 12-12-5.383-12-12zm8 0c0 2.205 1.793 4 4 4s4-1.795 4-4-1.793-4-4-4-4 1.795-4 4zm20.402 81.182c.855-.865 21.336-21.182 47.215-21.182.067 0 .13.009.197.01.062 0 .123-.01.186-.01.864 0 1.715.051 2.556.14 24.467 1.443 43.454 20.209 44.28 21.042 1.551 1.559 1.551 4.078 0 5.637-.826.832-19.813 19.598-44.28 21.042-.841.089-1.692.14-2.556.14-.063 0-.123-.009-.186-.01-.067 0-.13.01-.197.01-25.879 0-46.359-20.316-47.215-21.182-1.55-1.559-1.55-4.079 0-5.637zm31.598 2.818c0 8.786 7.12 15.931 15.895 15.989.114-.001.226-.011.34-.013 8.714-.129 15.765-7.234 15.765-15.976s-7.052-15.847-15.765-15.976c-.114-.002-.226-.012-.34-.013-8.775.058-15.895 7.203-15.895 15.989zm16 8c4.418 0 8-3.582 8-8s-3.582-8-8-8-8 3.582-8 8 3.582 8 8 8zm64 62.623c0 5.16-3.719 9.486-8.844 10.287l-70.539 11.041c-.461.076-.934.064-1.395-.027l-59.082-11.713-40.14 10.851v32.938c0 1.527-.871 2.922-2.242 3.594-.559.271-1.16.406-1.758.406-.871 0-1.738-.285-2.457-.842l-23.371-18.178c-7.445-5.791-16.738-8.98-26.172-8.98-2.211 0-4-1.791-4-4s1.789-4 4-4c11.203 0 22.242 3.787 31.086 10.664l16.914 13.158v-75.502l-12 .923v26.757c0 2.209-1.789 4-4 4s-4-1.791-4-4v-26.141l-27.691 2.13c-2.258.156-4.129-1.48-4.297-3.682-.168-2.203 1.48-4.125 3.68-4.295l52-4c1.152-.07 2.211.299 3.027 1.053.816.757 1.281 1.822 1.281 2.935v.368c14.498-.35 20.254-2.617 26.805-5.216 5.703-2.26 12.164-4.822 24.633-6.59.408-.058.781-.073 1.182-.122-3.01-7.782-4.62-15.964-4.62-24.44 0-37.496 30.504-68 68-68 8.606 0 16.916 1.667 24.812 4.775l3.398-10.057c.548-1.624 2.075-2.718 3.79-2.718s3.242 1.094 3.789 2.719l4.699 13.906 13.906 4.699c1.625.549 2.719 2.074 2.719 3.789s-1.094 3.24-2.719 3.789l-4.111 1.389c11.3 12.455 17.717 28.782 17.717 45.709 0 25.958-14.63 48.545-36.068 60h21.599c5.774 0 10.469 4.766 10.469 10.623zm-32-130.127-1.543 4.566c-.398 1.182-1.328 2.109-2.508 2.508l-4.566 1.543 4.566 1.543c1.18.398 2.109 1.326 2.508 2.508l1.543 4.566 1.543-4.566c.398-1.182 1.328-2.109 2.508-2.508l4.566-1.543-4.566-1.543c-1.18-.398-2.109-1.326-2.508-2.508zm-92 59.504c0 8.4 1.763 16.477 5.104 24.077 17.761.761 26.269 11.358 29.278 16.308h22.23c10.063 0 18.261 7.68 19.201 17.431 12.192-3.34 22.861-10.385 30.648-19.913l-7.805-5.903h-6.656c-2.211 0-4-1.791-4-4s1.789-4 4-4h8c.871 0 1.719.283 2.414.809l8.649 6.539c5.63-9.137 8.937-19.85 8.937-31.347 0-16.125-6.614-31.617-18.118-42.869l-1.394.471-4.699 13.904c-.547 1.625-2.074 2.719-3.789 2.719s-3.242-1.094-3.789-2.719l-4.699-13.904-13.906-4.699c-1.625-.549-2.719-2.074-2.719-3.789s1.094-3.24 2.719-3.789l7.895-2.668c-5.64-1.723-11.488-2.658-17.501-2.658-11.459 0-22.139 3.286-31.255 8.881l1.657 3.119h5.598c2.211 0 4 1.791 4 4v12c0 2.209-1.789 4-4 4s-4-1.791-4-4v-8h-4c-1.48 0-2.836-.816-3.531-2.123l-2.325-4.374c-13.499 11.011-22.144 27.758-22.144 46.497zm116 70.623c0-1.396-1.152-2.623-2.469-2.623h-85.531c-.508 0-1.012-.098-1.484-.285l-20-8c-2.051-.822-3.051-3.148-2.23-5.201.82-2.051 3.16-3.041 5.199-2.229l19.285 7.715s36.591-.244 39.207-.594c-.128-6.097-5.166-11.022-11.363-11.022h-24.614c-1.633 0-3.098-.99-3.711-2.504-.277-.664-7.375-16.854-31.727-13.396-11.531 1.633-17.262 3.906-22.809 6.105-7.006 2.777-13.668 5.408-29.754 5.781v38.405l38.957-10.531c.59-.16 1.215-.184 1.82-.062l59.305 11.756 69.84-10.93c1.204-.19 2.079-1.192 2.079-2.385z" fill="url(#SVGID_1_)"/></g></svg>