<svg id="staff" enable-background="new 0 0 300 300" height="512" viewBox="0 0 300 300" width="512" xmlns="http://www.w3.org/2000/svg" xmlns:xlink="http://www.w3.org/1999/xlink"><linearGradient id="SVGID_1_" gradientUnits="userSpaceOnUse" x1="80.007" x2="216.519" y1="216.414" y2="79.902"><stop offset="0" stop-color="#107eff"/><stop offset="1" stop-color="#8f16ff"/></linearGradient><g><path d="m72.027 112c0-2.502 2.028-4.53 4.529-4.53s4.529 2.028 4.529 4.53c0 2.501-2.028 4.529-4.529 4.529s-4.529-2.028-4.529-4.529zm136.53 95.47c-2.501 0-4.529 2.028-4.529 4.53 0 2.501 2.028 4.529 4.529 4.529s4.529-2.028 4.529-4.529c0-2.502-2.028-4.53-4.529-4.53zm-94 14.53c0 6.617-5.383 12-12 12s-12-5.383-12-12 5.383-12 12-12 12 5.383 12 12zm-8 0c0-2.205-1.793-4-4-4s-4 1.795-4 4 1.793 4 4 4 4-1.795 4-4zm122.394-103.098-13.906 4.699-4.699 13.904c-.547 1.625-2.074 2.719-3.789 2.719s-3.242-1.094-3.789-2.719l-4.699-13.904-13.906-4.699c-1.625-.549-2.719-2.074-2.719-3.789s1.094-3.24 2.719-3.789l13.906-4.699 4.699-13.906c.547-1.625 2.074-2.719 3.789-2.719s3.242 1.094 3.789 2.719l4.699 13.906 13.906 4.699c1.625.549 2.719 2.074 2.719 3.789s-1.094 3.241-2.719 3.789zm-13.777-3.789-4.566-1.543c-1.18-.398-2.109-1.326-2.508-2.508l-1.543-4.566-1.543 4.566c-.398 1.182-1.328 2.109-2.508 2.508l-4.566 1.543 4.566 1.543c1.18.398 2.109 1.326 2.508 2.508l1.543 4.566 1.543-4.566c.398-1.182 1.328-2.109 2.508-2.508zm-124.129 60.489-4.699 13.904c-.547 1.625-2.074 2.719-3.789 2.719s-3.242-1.094-3.789-2.719l-4.699-13.904-13.906-4.699c-1.625-.549-2.719-2.074-2.719-3.789s1.094-3.24 2.719-3.789l13.906-4.699 4.699-13.906c.547-1.625 2.074-2.719 3.789-2.719s3.242 1.094 3.789 2.719l4.699 13.906 13.906 4.699c1.625.549 2.719 2.074 2.719 3.789s-1.094 3.24-2.719 3.789zm-4.438-6.946 4.566-1.543-4.566-1.543c-1.18-.398-2.109-1.326-2.508-2.508l-1.543-4.566-1.543 4.566c-.398 1.182-1.328 2.109-2.508 2.508l-4.566 1.543 4.566 1.543c1.18.398 2.109 1.326 2.508 2.508l1.543 4.566 1.543-4.566c.399-1.182 1.329-2.109 2.508-2.508zm61.95-130.656c-12.129 0-22 9.869-22 22 0 2.209 1.789 4 4 4s4-1.791 4-4c0-7.719 6.281-14 14-14 2.211 0 4-1.791 4-4s-1.789-4-4-4zm29.339 45.799c.738 1.121.867 2.541.336 3.777l-11.859 27.672-11.719 50.777 11.609 53.324c.027.133.051.268.062.4l.203 1.752c.02.15.027.301.027.451v38.048c0 7.719-6.281 14-14 14s-14-6.281-14-14v-36.666l-11.707-54.697c-.34-1.482-.391-3.043-.133-4.596l3.777-49.367-11.613-27.098c-.531-1.236-.402-2.656.336-3.777.742-1.123 1.996-1.799 3.34-1.799h.188c-5.16-6.074-8.188-13.836-8.188-22 0-18.748 15.254-34 34-34s34 15.252 34 34c0 8.159-3.029 15.924-8.188 22h.188c1.345 0 2.599.676 3.341 1.799zm-43.123-1.799h27.573c7.534-4.737 12.21-13.08 12.21-22 0-14.336-11.664-26-26-26s-26 11.664-26 26c.001 8.925 4.678 17.26 12.217 22zm11.873 84.852c-.125-.578-.121-1.176.012-1.752l10.869-47.1h-19.265l-3.584 46.842c-.012.141-.027.281-.055.42-.102.549-.09 1.1.035 1.643l11.809 55.168c.059.275.09.557.09.838v37.089c0 3.309 2.691 6 6 6s6-2.691 6-6l-.152-39.141zm91.911 7.148h-4v-4c0-2.209-1.789-4-4-4s-4 1.791-4 4v4h-4c-2.211 0-4 1.791-4 4s1.789 4 4 4h4v4c0 2.209 1.789 4 4 4s4-1.791 4-4v-4h4c2.211 0 4-1.791 4-4s-1.789-4-4-4z" fill="url(#SVGID_1_)"/></g></svg>