<svg id="magic-stick" enable-background="new 0 0 300 300" height="512" viewBox="0 0 300 300" width="512" xmlns="http://www.w3.org/2000/svg" xmlns:xlink="http://www.w3.org/1999/xlink"><linearGradient id="SVGID_1_" gradientUnits="userSpaceOnUse" x1="72.184" x2="237.762" y1="244.345" y2="78.767"><stop offset="0" stop-color="#107eff"/><stop offset="1" stop-color="#8f16ff"/></linearGradient><g><path d="m239.103 92.824-13.906-4.699-4.699-13.906c-.547-1.625-2.074-2.719-3.789-2.719s-3.242 1.094-3.789 2.719l-4.699 13.906-13.906 4.699c-1.625.549-2.719 2.074-2.719 3.789s1.094 3.24 2.719 3.789l13.906 4.699 4.699 13.904c.547 1.625 2.074 2.719 3.789 2.719s3.242-1.094 3.789-2.719l4.699-13.904 13.906-4.699c1.625-.549 2.719-2.074 2.719-3.789s-1.094-3.24-2.719-3.789zm-18.344 5.332c-1.18.398-2.109 1.326-2.508 2.508l-1.543 4.566-1.543-4.566c-.398-1.182-1.328-2.109-2.508-2.508l-4.566-1.543 4.566-1.543c1.18-.398 2.109-1.326 2.508-2.508l1.543-4.566 1.543 4.566c.398 1.182 1.328 2.109 2.508 2.508l4.566 1.543zm-36.051 77.344c-6.617 0-12 5.383-12 12s5.383 12 12 12 12-5.383 12-12-5.383-12-12-12zm0 16c-2.207 0-4-1.795-4-4s1.793-4 4-4 4 1.795 4 4-1.793 4-4 4zm54.529 54c0 2.501-2.028 4.529-4.529 4.529s-4.529-2.028-4.529-4.529c0-2.502 2.028-4.53 4.529-4.53s4.529 2.028 4.529 4.53zm-101.058-216c0-2.502 2.028-4.53 4.529-4.53s4.529 2.028 4.529 4.53c0 2.501-2.028 4.529-4.529 4.529s-4.529-2.027-4.529-4.529zm12.529 27.471c2.501 0 4.529 2.028 4.529 4.53 0 2.501-2.028 4.529-4.529 4.529s-4.529-2.028-4.529-4.529c0-2.503 2.028-4.53 4.529-4.53zm-83.471 144.529c0 2.501-2.028 4.529-4.529 4.529s-4.529-2.028-4.529-4.529c0-2.502 2.028-4.53 4.529-4.53s4.529 2.028 4.529 4.53zm35.612 45.229-2.828 2.828 2.828 2.828c1.562 1.562 1.562 4.094 0 5.656-.781.781-1.805 1.172-2.828 1.172s-2.047-.391-2.828-1.172l-2.828-2.828-2.828 2.828c-.781.781-1.805 1.172-2.828 1.172s-2.047-.391-2.828-1.172c-1.562-1.562-1.562-4.094 0-5.656l2.828-2.828-2.828-2.828c-1.562-1.562-1.562-4.094 0-5.656s4.094-1.562 5.656 0l2.828 2.828 2.828-2.828c1.562-1.562 4.094-1.562 5.656 0s1.562 4.093 0 5.656zm71.66-123.803c-1.07 0-2.141-.428-2.926-1.273-1.508-1.617-1.418-4.148.199-5.654 5.672-5.281 8.926-12.752 8.926-20.498 0-8.045-3.469-15.709-9.512-21.027-1.66-1.461-1.82-3.988-.363-5.646 1.465-1.662 3.996-1.818 5.645-.361 7.773 6.838 12.23 16.691 12.23 27.035 0 9.959-4.184 19.562-11.473 26.354-.769.714-1.75 1.07-2.726 1.07zm-40.723-53.543c1.508 1.613 1.422 4.145-.191 5.652-5.73 5.357-8.887 12.625-8.887 20.465 0 1.076.062 2.141.18 3.186.242 2.195-1.336 4.174-3.535 4.418-.148.018-.297.025-.445.025-2.012 0-3.742-1.512-3.973-3.557-.148-1.338-.227-2.695-.227-4.072 0-9.934 4.164-19.523 11.426-26.309 1.609-1.501 4.14-1.425 5.652.192zm26.922 2.117h-16c-2.211 0-4 1.791-4 4v28.295c-10.05 1.382-25.643 7.984-31.793 26.439-6.938 20.805-23.527 21.256-24.207 21.266-1.855 0-3.465 1.275-3.895 3.08-.426 1.807.445 3.668 2.105 4.498.645.32 9.773 4.789 20.023 4.789 7.312-.002 15.199-2.279 20.965-9.967 4.895-6.525 7.316-12.475 9.258-17.254 2.271-5.58 3.713-9.091 7.543-11.343v146.197c0 2.209 1.789 4 4 4h16c2.211 0 4-1.791 4-4v-196c.001-2.209-1.788-4-3.999-4zm-4 8v12h-8v-12zm-30.949 54.131c-1.867 4.58-3.977 9.771-8.25 15.469-4.844 6.457-12.406 7.266-18.828 6.406 6.473-3.535 13.641-10.193 17.82-22.74 5.163-15.489 17.715-19.69 24.207-20.833v4.665c-9.313 3.394-12.096 10.019-14.949 17.033zm22.949 133.869v-108h8v108zm50.602-203.064c1.594 2.391 3.016 4.918 4.219 7.512.93 2.004.059 4.383-1.945 5.312-.547.252-1.117.371-1.68.371-1.512 0-2.957-.857-3.633-2.316-1.031-2.221-2.246-4.387-3.617-6.438-1.227-1.836-.73-4.32 1.105-5.547 1.844-1.23 4.32-.734 5.551 1.106zm-68.258-16.397c1.07 1.932.371 4.367-1.562 5.438-4.172 2.309-7.973 5.223-11.297 8.662-.785.811-1.828 1.219-2.875 1.219-1 0-2.004-.373-2.781-1.125-1.586-1.535-1.629-4.068-.094-5.656 3.875-4.008 8.309-7.404 13.172-10.1 1.925-1.067 4.366-.373 5.437 1.562zm7.035-2.615c-.453-2.164.934-4.283 3.094-4.736 5.418-1.131 11.125-1.445 16.562-.963 2.203.195 3.828 2.137 3.633 4.338-.195 2.199-2.164 3.832-4.336 3.631-4.688-.416-9.57-.148-14.219.826-.277.057-.555.084-.824.084-1.855 0-3.516-1.295-3.91-3.18zm-28.164 28.295c-2.172 4.254-3.684 8.789-4.5 13.484-.34 1.945-2.027 3.316-3.938 3.316-.227 0-.457-.02-.688-.059-2.176-.379-3.637-2.449-3.258-4.625.953-5.486 2.723-10.787 5.258-15.754 1.008-1.965 3.422-2.74 5.383-1.744 1.966 1.005 2.747 3.415 1.743 5.382zm60.933-22.674c-2.043-.836-3.023-3.172-2.188-5.217.84-2.045 3.188-3.014 5.219-2.186 5.145 2.105 9.941 4.963 14.262 8.496 1.707 1.398 1.961 3.92.559 5.629-.789.967-1.938 1.467-3.098 1.467-.891 0-1.785-.297-2.531-.904-3.699-3.029-7.812-5.48-12.223-7.285zm-65.773 50.484c.305 2.443.805 4.877 1.477 7.232.609 2.125-.617 4.338-2.742 4.947-.367.105-.738.156-1.105.156-1.738 0-3.34-1.145-3.84-2.9-.789-2.75-1.371-5.59-1.727-8.439-.273-2.193 1.281-4.193 3.473-4.467 2.194-.281 4.187 1.282 4.464 3.471zm83.484 31.848c1.391 1.715 1.125 4.234-.59 5.625-2.234 1.811-4.617 3.459-7.086 4.898-.633.369-1.328.545-2.012.545-1.375 0-2.715-.709-3.457-1.984-1.113-1.908-.473-4.357 1.438-5.471 2.117-1.234 4.16-2.648 6.078-4.203 1.723-1.398 4.239-1.125 5.629.59zm6.43-3.617c-.809 0-1.621-.244-2.328-.75-1.793-1.287-2.207-3.787-.918-5.582 1.426-1.988 2.715-4.113 3.828-6.316 1-1.967 3.406-2.76 5.375-1.762 1.973.996 2.762 3.404 1.766 5.375-1.301 2.566-2.805 5.045-4.469 7.367-.781 1.088-2.008 1.668-3.254 1.668zm-104.922 1.275c-6.129-10.779-9.367-23.066-9.367-35.535 0-27.477 16-52.947 40.762-64.889 2.008-.957 4.383-.121 5.34 1.865.961 1.99.125 4.381-1.863 5.342-22.016 10.616-36.239 33.258-36.239 57.682 0 11.084 2.879 22.006 8.32 31.582 1.094 1.92.422 4.361-1.5 5.453-.625.355-1.305.523-1.973.523-1.39.001-2.745-.726-3.48-2.023zm70.352-103.22c.375-2.176 2.445-3.619 4.621-3.26 21.953 3.793 41.23 17.898 51.559 37.734 1.02 1.959.262 4.375-1.699 5.395-.59.309-1.223.453-1.844.453-1.445 0-2.84-.783-3.551-2.152-9.188-17.635-26.316-30.176-45.824-33.547-2.18-.375-3.637-2.446-3.262-4.623zm50.933 102.347c1.828 1.236 2.312 3.723 1.078 5.553-7.098 10.523-16.867 19.014-28.25 24.555-.562.275-1.16.404-1.746.404-1.484 0-2.906-.826-3.602-2.25-.965-1.986-.141-4.379 1.848-5.346 10.117-4.928 18.805-12.479 25.117-21.836 1.239-1.832 3.719-2.316 5.555-1.08z" fill="url(#SVGID_1_)"/></g></svg>