<svg id="unicorn" enable-background="new 0 0 300 300" height="512" viewBox="0 0 300 300" width="512" xmlns="http://www.w3.org/2000/svg" xmlns:xlink="http://www.w3.org/1999/xlink"><linearGradient id="SVGID_1_" gradientUnits="userSpaceOnUse" x1="43.152" x2="238.81" y1="260.809" y2="65.152"><stop offset="0" stop-color="#107eff"/><stop offset="1" stop-color="#8f16ff"/></linearGradient><g><path d="m217.472 69.999c0-2.502 2.028-4.53 4.529-4.53s4.529 2.028 4.529 4.53c0 2.501-2.028 4.529-4.529 4.529s-4.529-2.028-4.529-4.529zm52.748 33.328-64.482 42.99c6.827 15.064 11.844 32.271 13.752 39.257 7.125 5.4 11.266 14.334 10.395 22.703-.902 8.666-6.727 15.568-16.398 19.438-7.242 2.893-13.594 2.91-18.887.045-5.773-3.125-8.551-8.891-9.746-12.287-7.109-1.561-26.977-7.426-38.273-25.807-2.121 1.76-4.883 4.822-6.625 9.715-3.75 10.541-1.113 25.352 7.625 42.83.988 1.977.188 4.379-1.789 5.367-1.977.986-4.379.188-5.367-1.789-9.953-19.906-12.609-36.52-7.898-49.381 2.679-7.318 7.176-11.643 10.333-13.938-6.354-14.253-3.375-19.609-1.685-21.298 1.562-1.562 4.094-1.562 5.656 0 1.426 1.426 1.551 3.664.371 5.23-.195.562-1.227 4.602 4.379 15.809 10.883 21.77 36.734 25.793 36.996 25.83 1.672.246 3.016 1.518 3.348 3.174.012.051 1.488 6.834 6.523 9.533 3.102 1.656 7.164 1.502 12.07-.463 6.875-2.75 10.82-7.189 11.41-12.836.118-1.14.053-2.296-.1-3.449h-5.826c-2.211 0-4-1.791-4-4s1.789-4 4-4h2.579c-1.297-1.797-2.904-3.409-4.797-4.672-.809-.539-1.395-1.357-1.645-2.297-6.398-23.969-19.656-58.787-29.105-61.15-1.781-.445-3.031-2.045-3.031-3.881v-28.526l-4 2.666v9.859c0 2.209-1.789 4-4 4s-4-1.791-4-4v-12-6.588c-5.457 2.102-13.906 6.705-16.121 15.559-.395 1.578-1.703 2.76-3.316 2.99-.507.074-49.94 8.328-76.977 82.139 1.285-.795 2.511-1.596 3.864-2.382 1.895-1.113 4.352-.463 5.465 1.449 1.113 1.91.461 4.359-1.449 5.469-4.825 2.805-9.197 5.67-12.999 8.516-15.273 12.227-25.306 26.001-30.669 42.111-.559 1.676-2.121 2.738-3.797 2.738-.418 0-.844-.066-1.266-.207-2.094-.697-3.227-2.963-2.531-5.059 2.688-8.071 6.474-15.57 11.324-22.62-.334-19.021 5.563-33.076 10.653-41.538l-5.211 1.303c-1.18.293-2.43.035-3.398-.703-.965-.738-1.543-1.879-1.57-3.096-.477-23.307 22.043-42.336 35.5-51.605l-4.004-.508c-1.23-.156-2.32-.875-2.945-1.945-.629-1.07-.723-2.371-.258-3.521 16.113-39.895 70.26-29.776 82.159-27.012 8.049-8.726 20.083-11.276 20.763-11.412 1.184-.23 2.398.068 3.32.828.926.76 1.465 1.895 1.465 3.094v4.525l5.781-3.854c1.227-.818 2.809-.896 4.105-.199 1.301.697 2.113 2.053 2.113 3.527v33.357c1.755.992 3.47 2.481 5.146 4.275l73.369-29.348c1.898-.75 4.07.039 5.023 1.854.951 1.814.381 4.054-1.322 5.191zm-125.344-2.787c.238-.664.533-1.276.815-1.899-13.907-2.82-52.765-8.002-67.678 18.091l9.621 1.223c1.723.221 3.105 1.525 3.426 3.232s-.5 3.426-2.027 4.254c-.387.211-36.59 20.117-40.668 45.344l10.668-2.666c1.734-.434 3.562.348 4.449 1.91.887 1.564.621 3.527-.652 4.799-.131.134-12.003 12.465-14.764 34.6 3.733-4.075 7.852-8.007 12.475-11.775 24.663-78.722 72.597-94.406 84.335-97.113zm41.655 53.459c0-2.502-2.028-4.53-4.529-4.53s-4.529 2.028-4.529 4.53c0 2.501 2.028 4.529 4.529 4.529s4.529-2.028 4.529-4.529zm71.611-4.428c-1.562-1.562-4.094-1.562-5.656 0l-2.828 2.828-2.828-2.828c-1.562-1.562-4.094-1.562-5.656 0s-1.562 4.094 0 5.656l2.828 2.828-2.828 2.828c-1.562 1.562-1.562 4.094 0 5.656.781.781 1.805 1.172 2.828 1.172s2.047-.391 2.828-1.172l2.828-2.828 2.828 2.828c.781.781 1.805 1.172 2.828 1.172s2.047-.391 2.828-1.172c1.562-1.562 1.562-4.094 0-5.656l-2.828-2.828 2.828-2.828c1.562-1.562 1.562-4.093 0-5.656zm-159.625 26.713c-.168.066-4.121 1.654-9.941 4.475-1.988.963-2.82 3.355-1.859 5.344.691 1.426 2.117 2.256 3.605 2.256.582 0 1.18-.129 1.738-.4 5.547-2.686 9.391-4.23 9.426-4.246 2.051-.82 3.051-3.148 2.23-5.199-.824-2.052-3.172-3.042-5.199-2.23zm5.484-112.285c0-6.617 5.383-12 12-12s12 5.383 12 12-5.383 12-12 12-12-5.383-12-12zm8 0c0 2.205 1.793 4 4 4s4-1.795 4-4-1.793-4-4-4-4 1.795-4 4z" fill="url(#SVGID_1_)"/></g></svg>