<svg id="voodoo-doll" enable-background="new 0 0 300 300" height="512" viewBox="0 0 300 300" width="512" xmlns="http://www.w3.org/2000/svg" xmlns:xlink="http://www.w3.org/1999/xlink"><linearGradient id="SVGID_1_" gradientUnits="userSpaceOnUse" x1="59.825" x2="219.408" y1="236.382" y2="76.799"><stop offset="0" stop-color="#107eff"/><stop offset="1" stop-color="#8f16ff"/></linearGradient><g><path d="m49.893 87.489v-4h-4c-2.209 0-4-1.791-4-4s1.791-4 4-4h4v-4c0-2.209 1.791-4 4-4s4 1.791 4 4v4h4c2.209 0 4 1.791 4 4s-1.791 4-4 4h-4v4c0 2.209-1.791 4-4 4s-4-1.791-4-4zm35.937-33.314c2.362 0 4.277-1.915 4.277-4.276s-1.915-4.276-4.277-4.276-4.276 1.915-4.276 4.276 1.914 4.276 4.276 4.276zm168 72c2.362 0 4.277-1.915 4.277-4.276s-1.915-4.276-4.277-4.276-4.276 1.915-4.276 4.276 1.914 4.276 4.276 4.276zm3.501 81.314c0 6.336-5.131 11.49-11.438 11.49-4.98 0-9.183-3.234-10.749-7.705l-21.254-1.771 8.302 14.379c6.998 12.125 2.83 27.684-9.295 34.684-12.129 6.994-27.682 2.826-34.682-9.293l-30.148-52.221-30.148 52.221c-4.697 8.135-13.25 12.687-22.031 12.689-4.305 0-8.664-1.094-12.652-3.396-12.123-7-16.293-22.559-9.293-34.684l13.423-23.25-14.662 2.444c-1.51 4.574-5.758 7.904-10.81 7.904-6.307 0-11.438-5.154-11.438-11.49s5.131-11.49 11.438-11.49c4.726 0 8.792 2.896 10.532 7.013l20.121-3.354 18.573-32.169h-25.227c-13.234 0-24-10.766-24-24s10.766-24 24-24h32.795c-9.238-7.701-14.848-19.227-14.848-31.895 0-11.318 4.469-21.896 12.582-29.789 8.111-7.891 18.789-12.08 30.15-11.748 21.85.605 39.957 18.883 40.367 40.744.238 12.814-5.514 24.77-14.955 32.688h12.252l18.828-18.828c.146-.146.333-.209.494-.328-.689-1.477-1.103-3.107-1.103-4.844 0-6.336 5.131-11.49 11.438-11.49s11.438 5.154 11.438 11.49-5.131 11.49-11.438 11.49c-1.744 0-3.38-.426-4.861-1.13-.114.152-.173.33-.311.468l-13.172 13.172h10.344c13.234 0 24 10.766 24 24s-10.766 24-24 24h-20.881l24.008 41.58 26.262 2.189c1.683-4.243 5.794-7.259 10.611-7.259 6.307-.002 11.438 5.153 11.438 11.489zm-53.147 1.204-14.623-1.219c-2.201-.184-3.838-2.117-3.654-4.318s2.111-3.846 4.318-3.654l9.089.757-24.695-42.771c-.713-1.238-.713-2.762 0-4 .715-1.238 2.035-2 3.465-2h27.809c8.822 0 16-7.178 16-16s-7.178-16-16-16h-18.344l-18.828 18.828c-.781.781-1.805 1.172-2.828 1.172s-2.047-.391-2.828-1.172c-1.562-1.562-1.562-4.094 0-5.656l13.172-13.172h-19.795c-1.98 0-3.662-1.447-3.955-3.406-.295-1.957.887-3.836 2.779-4.418 14.217-4.369 23.951-17.822 23.674-32.715-.33-17.65-14.949-32.406-32.59-32.896-9.209-.254-17.801 3.117-24.35 9.486-6.553 6.373-10.16 14.916-10.16 24.055 0 14.828 9.516 27.717 23.678 32.07 1.893.582 3.074 2.461 2.779 4.418-.293 1.959-1.975 3.406-3.955 3.406h-48.449c-8.822 0-16 7.178-16 16s7.178 16 16 16h32.154c1.43 0 2.75.762 3.465 2 .713 1.238.713 2.762 0 4l-18.744 32.466 14.467-2.411c2.203-.361 4.24 1.111 4.604 3.287.363 2.18-1.109 4.24-3.287 4.604l-20.964 3.494-16.716 28.953c-2.322 4.023-2.939 8.709-1.738 13.195s4.078 8.236 8.102 10.559c8.301 4.799 18.961 1.941 23.754-6.363l33.613-58.221c1.43-2.477 5.5-2.477 6.93 0l33.613 58.221c4.795 8.303 15.441 11.16 23.752 6.363 8.305-4.793 11.158-15.449 6.365-23.754zm-58.291-105.204c2.209 0 4-1.791 4-4h4c0 2.209 1.791 4 4 4s4-1.791 4-4c2.209 0 4-1.791 4-4s-1.791-4-4-4c0-2.209-1.791-4-4-4s-4 1.791-4 4h-4c0-2.209-1.791-4-4-4s-4 1.791-4 4h-4c0-2.209-1.791-4-4-4s-4 1.791-4 4c-2.209 0-4 1.791-4 4s1.791 4 4 4c0 2.209 1.791 4 4 4s4-1.791 4-4h4c0 2.209 1.791 4 4 4zm9.172-25.172c.781.781 1.805 1.172 2.828 1.172s2.047-.391 2.828-1.172l1.172-1.172 1.172 1.172c.781.781 1.805 1.172 2.828 1.172s2.047-.391 2.828-1.172c1.562-1.562 1.562-4.094 0-5.656l-1.172-1.172 1.172-1.172c1.562-1.562 1.562-4.094 0-5.656s-4.094-1.562-5.656 0l-1.172 1.172-1.172-1.172c-1.562-1.562-4.094-1.562-5.656 0s-1.562 4.094 0 5.656l1.172 1.172-1.172 1.172c-1.562 1.562-1.562 4.093 0 5.656zm-26.344 0 1.172-1.172 1.172 1.172c.781.781 1.805 1.172 2.828 1.172s2.047-.391 2.828-1.172c1.562-1.562 1.562-4.094 0-5.656l-1.172-1.172 1.172-1.172c1.562-1.562 1.562-4.094 0-5.656s-4.094-1.562-5.656 0l-1.172 1.172-1.172-1.172c-1.562-1.562-4.094-1.562-5.656 0s-1.562 4.094 0 5.656l1.172 1.172-1.172 1.172c-1.562 1.562-1.562 4.094 0 5.656.781.781 1.805 1.172 2.828 1.172s2.047-.391 2.828-1.172zm23.607 72.393.394-.394c1.562-1.562 1.562-4.094 0-5.656s-4.094-1.562-5.656 0l-1.392 1.392-5.11-3.577.158-.158c1.562-1.562 1.562-4.094 0-5.656s-4.094-1.562-5.656 0l-1.156 1.156-5.128-3.59c1.484-1.568 1.477-4.031-.059-5.567-1.562-1.563-4.094-1.563-5.656 0l-.921.921-1.958-1.37c-1.809-1.262-4.301-.828-5.57.984-1.266 1.809-.826 4.303.984 5.57l.8.56-1.335 1.335c-1.562 1.562-1.562 4.094 0 5.656.781.781 1.805 1.172 2.828 1.172s2.047-.391 2.828-1.172l2.333-2.333 5.11 3.577-1.1 1.1c-1.562 1.562-1.562 4.094 0 5.656.781.781 1.805 1.172 2.828 1.172s2.047-.391 2.828-1.172l2.098-2.098 5.11 3.577-.864.864c-1.562 1.562-1.562 4.094 0 5.656.781.781 1.805 1.172 2.828 1.172s2.047-.391 2.828-1.172l1.862-1.862 9.017 6.312c.697.488 1.498.723 2.289.723 1.262 0 2.502-.594 3.281-1.707 1.266-1.809.826-4.303-.984-5.57z" fill="url(#SVGID_1_)"/></g></svg>