<svg id="hat" enable-background="new 0 0 300 300" height="512" viewBox="0 0 300 300" width="512" xmlns="http://www.w3.org/2000/svg" xmlns:xlink="http://www.w3.org/1999/xlink"><linearGradient id="SVGID_1_" gradientUnits="userSpaceOnUse" x1="70.375" x2="225.887" y1="257.742" y2="102.23"><stop offset="0" stop-color="#107eff"/><stop offset="1" stop-color="#8f16ff"/></linearGradient><g><path d="m126 56c0-2.209 1.791-4 4-4h4v-4c0-2.209 1.791-4 4-4s4 1.791 4 4v4h4c2.209 0 4 1.791 4 4s-1.791 4-4 4h-4v4c0 2.209-1.791 4-4 4s-4-1.791-4-4v-4h-4c-2.209 0-4-1.791-4-4zm-80 80c0-6.617 5.383-12 12-12s12 5.383 12 12-5.383 12-12 12-12-5.383-12-12zm8 0c0 2.205 1.795 4 4 4s4-1.795 4-4-1.795-4-4-4-4 1.795-4 4zm45.782-56.461c2.362 0 4.277-1.915 4.277-4.276s-1.915-4.277-4.277-4.277-4.276 1.915-4.276 4.277 1.914 4.276 4.276 4.276zm162.218 142.252c0 14.938-54.312 34.209-112 34.209-13.084 0-26.346-.969-39.414-2.879-.852-.123-1.641-.52-2.25-1.129l-7.125-7.125-8.277 4.139c-.828.414-1.781.525-2.684.32-19.406-4.455-52.25-15.269-52.25-27.535 0-1.916.764-3.68 2.209-5.102 4.964-4.881 19.042-5.844 45.791-5.683v-9.581c0-5.197 4.229-9.426 9.426-9.426h.45l18.243-72.971c.221-.879.732-1.656 1.451-2.207l68-52c.846-.648 1.922-.936 2.977-.785 1.057.146 2.014.709 2.652 1.562l24 32c.91 1.213 1.057 2.834.379 4.189s-2.062 2.213-3.578 2.213h-20-.662l-7.188 39.531 20.937 48.852c3.973 1.108 6.913 4.721 6.913 9.042v9.611c29.362-.279 44.587.533 49.791 5.653 1.445 1.422 2.209 3.186 2.209 5.102zm-144-10.343c6.387.101 13.097.192 20 .247v-15.695h-20v4h8c2.209 0 4 1.791 4 4s-1.791 4-4 4h-8zm-13.877-19.448h5.877c0-2.209 1.791-4 4-4h28c2.209 0 4 1.791 4 4h48.22l-18.857-44h-5.363c-2.209 0-4-1.791-4-4s1.791-4 4-4h4.662l6.545-36h-3.207c-2.209 0-4-1.791-4-4s1.791-4 4-4h8 4 12l-16.777-22.369-63.682 48.697zm149.738 30.098c-4.9-3.764-35.898-3.246-63.326-2.787-12.277.205-26.191.438-40.535.438s-28.258-.232-40.535-.438c-27.459-.461-58.49-.98-63.342 2.801 1.562 3.092 15.453 12.232 44.523 19.094l9.564-4.783c1.543-.768 3.4-.465 4.617.75l8.223 8.223c12.264 1.727 24.688 2.604 36.95 2.604 58.127 0 100.637-18.773 103.861-25.902z" fill="url(#SVGID_1_)"/></g></svg>