<svg id="witch-body" enable-background="new 0 0 300 300" height="512" viewBox="0 0 300 300" width="512" xmlns="http://www.w3.org/2000/svg" xmlns:xlink="http://www.w3.org/1999/xlink"><linearGradient id="SVGID_1_" gradientUnits="userSpaceOnUse" x1="51.639" x2="261.296" y1="285.296" y2="75.639"><stop offset="0" stop-color="#107eff"/><stop offset="1" stop-color="#8f16ff"/></linearGradient><g><path d="m222 174.001c0 2.209-1.791 4-4 4s-4-1.791-4-4 1.791-4 4-4 4 1.79 4 4zm12 44c2.211 0 4-1.791 4-4v-4h4c2.211 0 4-1.791 4-4s-1.789-4-4-4h-4v-4c0-2.209-1.789-4-4-4s-4 1.791-4 4v4h-4c-2.211 0-4 1.791-4 4s1.789 4 4 4h4v4c0 2.209 1.789 4 4 4zm-164-150c0-7.719 6.281-14 14-14s14 6.281 14 14-6.281 14-14 14-14-6.282-14-14zm8 0c0 3.309 2.691 6 6 6s6-2.691 6-6-2.691-6-6-6-6 2.691-6 6zm192 202c0 2.209-1.789 4-4 4h-224c-2.209 0-4-1.791-4-4s1.791-4 4-4h80.111l3.758-133.814-43.34 5.779c-1.154.148-2.295-.195-3.164-.955-.867-.76-1.365-1.857-1.365-3.01v-4h-4c-5.208 0-9.606-3.354-11.263-8h-28.737c-2.209 0-4-1.791-4-4s1.791-4 4-4h28.737c1.656-4.646 6.055-8 11.263-8h48.107l10.182-28h-14.289c-2.209 0-4-1.791-4-4s1.791-4 4-4h13.321l12.98-31.523c.344-.838.965-1.533 1.758-1.973l18-10c1.312-.73 2.922-.664 4.16.168l24 16c1.5 1 2.145 2.881 1.574 4.594l-4 12c-.438 1.314-1.523 2.309-2.875 2.627-1.348.322-2.766-.084-3.746-1.064l-6.828-6.828h-1.621l2.666 16h12.611c2.211 0 4 1.791 4 4s-1.789 4-4 4h-13.788l12.729 28h49.059c6.617 0 12 5.383 12 12s-5.383 12-12 12h-4v4c0 1.152-.496 2.25-1.363 3.01s-2.023 1.113-3.164.955l-47.344-6.312 3.762 134.348h80.109c2.211-.002 4 1.789 4 3.998zm-32-156h-4v8h4c2.207 0 4-1.795 4-4s-1.793-4-4-4zm-12 0h-56-11.689l11.4 152h8.174l-3.885-138.823c-.031-1.172.453-2.299 1.324-3.084.871-.787 2.039-1.152 3.203-.992l47.473 6.33zm-84-20.756c0 7.033 5.723 12.756 12.754 12.756h11.246v-28h-24zm38.154 12.756-6.154-13.536v13.536zm-40.181-36h29.305l-3.224-19.342c-.195-1.16.133-2.346.895-3.244.758-.896 1.875-1.414 3.051-1.414h8c1.062 0 2.078.422 2.828 1.172l3.422 3.424.988-2.963-19.43-12.951-14.645 8.135zm-9.352 36h7.884c-2.244-2.853-3.733-6.276-4.231-10.045zm-52.621 16v-8h-4c-2.205 0-4 1.795-4 4s1.795 4 4 4zm55.998 5.713-3.885 138.287h8.176l11.4-152h-63.689v15.432l43.471-5.797c1.166-.156 2.336.207 3.207.992s1.353 1.912 1.32 3.086zm70.889-56.6c0-1.715 1.094-3.24 2.719-3.789l13.906-4.699 4.699-13.906c.547-1.625 2.074-2.719 3.789-2.719s3.242 1.094 3.789 2.719l4.699 13.906 13.906 4.699c1.625.549 2.719 2.074 2.719 3.789s-1.094 3.24-2.719 3.789l-13.906 4.699-4.699 13.904c-.547 1.625-2.074 2.719-3.789 2.719s-3.242-1.094-3.789-2.719l-4.699-13.904-13.906-4.699c-1.626-.549-2.719-2.074-2.719-3.789zm16.496 0 4.566 1.543c1.18.398 2.109 1.326 2.508 2.508l1.543 4.566 1.543-4.566c.398-1.182 1.328-2.109 2.508-2.508l4.566-1.543-4.566-1.543c-1.18-.398-2.109-1.326-2.508-2.508l-1.543-4.566-1.543 4.566c-.398 1.182-1.328 2.109-2.508 2.508z" fill="url(#SVGID_1_)"/></g></svg>