<svg id="curse" enable-background="new 0 0 300 300" height="512" viewBox="0 0 300 300" width="512" xmlns="http://www.w3.org/2000/svg" xmlns:xlink="http://www.w3.org/1999/xlink"><linearGradient id="SVGID_1_" gradientUnits="userSpaceOnUse" x1="56.359" x2="216.468" y1="219.896" y2="59.786"><stop offset="0" stop-color="#107eff"/><stop offset="1" stop-color="#8f16ff"/></linearGradient><g><path d="m54.935 49.827c0-2.209 1.791-4 4-4h4v-4c0-2.209 1.791-4 4-4s4 1.791 4 4v4h4c2.209 0 4 1.791 4 4s-1.791 4-4 4h-4v4c0 2.209-1.791 4-4 4s-4-1.791-4-4v-4h-4c-2.209 0-4-1.791-4-4zm19.66 38.411c0 2.362 1.915 4.276 4.276 4.276s4.277-1.915 4.277-4.276-1.915-4.276-4.277-4.276-4.276 1.914-4.276 4.276zm136.277-23.724c2.362 0 4.277-1.915 4.277-4.276s-1.915-4.276-4.277-4.276-4.276 1.915-4.276 4.276 1.914 4.276 4.276 4.276zm21.32 94.987c2.904 28.365-4.584 55.922-21.088 77.598-6.729 8.836-14.193 15.633-22.186 20.201-.453.273-8.328 4.873-20.109 4.873-6.48 0-14.139-1.391-22.398-5.654-2.211-1.141-4.744-1.141-6.951 0-23.285 12.023-41.807 1.205-42.584.738-7.918-4.525-15.383-11.322-22.111-20.158-16.504-21.678-23.992-49.234-21.086-77.598 2.346-22.912 11.918-38.594 27.68-45.35 21.25-9.107 44.312-3.215 56.174 1.107.761.278 1.545.469 2.334.625-1.084-9.22-5.121-31.487-19.429-42.934-1.727-1.379-2.006-3.896-.625-5.621 1.379-1.727 3.898-2.004 5.621-.625 5.794 4.635 10.122 10.598 13.355 16.865 1.618-6.154 4.604-13.17 10.141-18.707 12.398-12.4 32.248-12.061 33.105-12.033 2.131.053 3.846 1.768 3.898 3.898.021.84.369 20.701-12.033 33.105-8.933 8.933-21.704 11.244-28.483 11.834 1.345 5.432 2.066 10.248 2.447 13.718.156-.051.319-.07.473-.127 11.859-4.324 34.926-10.217 56.174-1.107 15.763 6.758 25.336 22.44 27.681 45.352zm-20.656 62.326h-2.601c-5.514 0-10-4.486-10-10v-10-6c0-1.104-.896-2-2-2h-4c-5.514 0-10-4.486-10-10v-24c0-1.104-.896-2-2-2-5.514 0-10-4.486-10-10v-8c0-1.104-.896-2-2-2h-20c-1.104 0-2 .896-2 2v6 .236 35.764c0 2.209-1.791 4-4 4s-4-1.791-4-4v-19.975c-3.296 2.463-7.341 3.975-11.764 3.975h-.473c-10.898 0-19.764-8.865-19.764-19.764v-2.236c0-1.104-.896-2-2-2h-8c-1.104 0-2 .896-2 2v66c0 2.209-1.791 4-4 4s-4-1.791-4-4v-4.737c-1.257.448-2.591.737-4 .737-6.617 0-12-5.383-12-12v-26c0-1.104-.896-2-2-2h-7.614c-1.26 24.365 5.61 47.776 19.808 66.424 6.076 7.98 12.734 14.07 19.791 18.104.688.404 15.672 8.963 34.871-.945 4.473-2.309 9.814-2.309 14.291 0 19.361 9.998 34.641 1.08 34.795.988 7.131-4.076 13.789-10.166 19.865-18.146 2.524-3.317 4.732-6.83 6.795-10.425zm12.699-61.51c-1.418-13.842-6.537-31.811-22.877-38.814-18.713-8.02-39.535-2.648-50.279 1.271-5.254 1.914-11.035 1.914-16.289 0-6.67-2.432-17.229-5.428-28.754-5.428-7.037 0-14.432 1.115-21.525 4.156-15.375 6.591-20.812 22.89-22.582 36.324h7.005c5.514 0 10 4.486 10 10v26c0 2.205 1.795 4 4 4s4-1.795 4-4v-50c0-5.514 4.486-10 10-10h8c5.514 0 10 4.486 10 10v2.236c0 6.486 5.277 11.764 11.764 11.764h.473c6.486 0 11.764-5.277 11.764-11.764v-.236-6c0-5.514 4.486-10 10-10h20c5.514 0 10 4.486 10 10v8c0 1.104.896 2 2 2 5.514 0 10 4.486 10 10v24c0 1.104.896 2 2 2h4c.685 0 1.354.071 2 .202v-12.202c0-2.209 1.791-4 4-4s4 1.791 4 4v22 6 10c0 1.104.896 2 2 2h6.719c7.437-16.3 10.508-34.684 8.581-53.509zm-89.3 21.51v12c0 6.617-5.383 12-12 12s-12-5.383-12-12v-12c0-6.617 5.383-12 12-12s12 5.383 12 12zm56 16c-2.209 0-4 1.791-4 4v8c0 2.209 1.791 4 4 4s4-1.791 4-4v-8c0-2.209-1.791-4-4-4zm56-100c0 6.617-5.383 12-12 12s-12-5.383-12-12 5.383-12 12-12 12 5.383 12 12zm-8 0c0-2.205-1.795-4-4-4s-4 1.795-4 4 1.795 4 4 4 4-1.795 4-4z" fill="url(#SVGID_1_)"/></g></svg>