<svg id="boots" enable-background="new 0 0 300 300" height="512" viewBox="0 0 300 300" width="512" xmlns="http://www.w3.org/2000/svg" xmlns:xlink="http://www.w3.org/1999/xlink"><linearGradient id="SVGID_1_" gradientUnits="userSpaceOnUse" x1="48.973" x2="234.283" y1="240.63" y2="55.32"><stop offset="0" stop-color="#107eff"/><stop offset="1" stop-color="#8f16ff"/></linearGradient><g><path d="m224 102c2.209 0 4 1.791 4 4s-1.791 4-4 4-4-1.791-4-4 1.791-4 4-4zm-172-56c-2.209 0-4 1.791-4 4s1.791 4 4 4 4-1.791 4-4-1.791-4-4-4zm196 88h-4v-4c0-2.209-1.789-4-4-4s-4 1.791-4 4v4h-4c-2.211 0-4 1.791-4 4s1.789 4 4 4h4v4c0 2.209 1.789 4 4 4s4-1.791 4-4v-4h4c2.211 0 4-1.791 4-4s-1.789-4-4-4zm-4 52.867v35.68c0 21.754-17.699 39.453-39.453 39.453h-96.547-36c-2.211 0-4-1.791-4-4v-92h-4c-1.125 0-2.195-.473-2.953-1.303s-1.133-1.939-1.031-3.059l4-44c.187-2.06 1.914-3.638 3.984-3.638h3.68l-3.668-47.693c-.168-2.203 1.48-4.125 3.68-4.295 2.223-.188 4.129 1.48 4.297 3.682l3.714 48.306h52.297v-48c0-2.209 1.789-4 4-4s4 1.791 4 4v48h32v-48c0-2.209 1.789-4 4-4s4 1.791 4 4v48h4c2.07 0 3.797 1.578 3.984 3.639l4 44c.102 1.119-.273 2.229-1.031 3.059s-1.828 1.302-2.953 1.302h-4v33.786c6.961-2.727 12.859-7.856 16.449-14.764.855-1.633 2.699-2.48 4.5-2.039 1.793.438 3.051 2.041 3.051 3.885v15.132h.547c11.766 0 22.461-6.506 27.902-16.979.852-1.633 2.699-2.48 4.5-2.039 1.793.438 3.051 2.041 3.051 3.885zm-127.969 27.133c-2.246.01-4.031 1.805-4.031 4 0 2.205 1.793 4 4 4 .898 0 22.148-.199 35.199-17.6.641-.855.91-1.91.762-2.967-.152-1.059-.707-1.992-1.559-2.633-.719-.537-1.559-.795-2.395-.795-1.219 0-2.422.551-3.207 1.596-10.429 13.905-28.027 14.385-28.769 14.399zm56.516-12c1.167 0 2.312-.113 3.453-.238v-11.762h-12c-2.211 0-4-1.791-4-4s1.789-4 4-4h12v-4h-12c-2.211 0-4-1.791-4-4s1.789-4 4-4h12v-4h-28v24.052c2.509-.003 5.038.731 7.195 2.342 2.57 1.928 4.23 4.734 4.684 7.91.081.568.074 1.132.075 1.695h12.593zm7.801-80h-27.967l3.272 36h27.968zm-72.696 0-3.273 36h39.621 3.621l-3.273-36zm-39.273 36h27.968l3.272-36h-27.967zm7.621 8v40.278c15.76 1.979 28 15.435 28 31.722v4h89.215c4.235-5.359 6.785-12.108 6.785-19.453v-23.67c-7.238 7.039-17.008 11.123-27.453 11.123h-15.61c-15.466 19.73-39.889 20-40.937 20-6.617 0-12-5.383-12-12 0-6.584 5.355-11.969 11.938-12 .086-.002 14.402-.449 22.465-11.201.482-.643 1.021-1.219 1.598-1.735v-3.064h-12c-2.211 0-4-1.791-4-4s1.789-4 4-4h12v-4h-12c-2.211 0-4-1.791-4-4s1.789-4 4-4h12v-4zm92.547 88c5.556 0 10.771-1.461 15.306-4h-107.853v4zm36 0c5.556 0 10.771-1.461 15.306-4h-23.03c-1.41 1.452-2.942 2.777-4.56 4zm31.453-55.123c-7.238 7.039-17.008 11.123-27.453 11.123h-.547v12.547c0 7.075-1.897 13.705-5.172 19.453h26.387c4.235-5.359 6.785-12.108 6.785-19.453zm-36-148.877c0-6.617 5.383-12 12-12s12 5.383 12 12-5.383 12-12 12-12-5.383-12-12zm8 0c0 2.205 1.793 4 4 4s4-1.795 4-4-1.793-4-4-4-4 1.795-4 4z" fill="url(#SVGID_1_)"/></g></svg>