<svg id="cauldron" enable-background="new 0 0 300 300" height="512" viewBox="0 0 300 300" width="512" xmlns="http://www.w3.org/2000/svg" xmlns:xlink="http://www.w3.org/1999/xlink"><linearGradient id="SVGID_1_" gradientUnits="userSpaceOnUse" x1="70.592" x2="263.902" y1="265.002" y2="71.692"><stop offset="0" stop-color="#107eff"/><stop offset="1" stop-color="#8f16ff"/></linearGradient><g><path d="m253.247 122c0-11.027-8.973-20-20-20h-4.737c.448-1.257.737-2.591.737-4 0-6.617-5.383-12-12-12h-8.917c-2.651-9.374-11.138-16-21.083-16-1.053 0-2.091.103-3.12.25-3.405-11.768-14.338-20.25-26.88-20.25-11.047 0-21.018 6.6-25.496 16.465-1.475-.309-2.979-.465-4.504-.465-11.456 0-20.884 8.804-21.899 20h-16.101c-6.617 0-12 5.383-12 12 0 1.409.289 2.743.737 4h-.737c-11.027 0-20 8.973-20 20 0 9.58 6.779 17.591 15.786 19.534-2.085 7.334-3.198 14.967-3.198 22.7 0 21.768 8.387 42.302 23.28 57.766h-27.868c-2.209 0-4 1.791-4 4s1.791 4 4 4h8v36c0 2.209 1.791 4 4 4h152c2.209 0 4-1.791 4-4v-36h8c2.209 0 4-1.791 4-4s-1.791-4-4-4h-27.868c14.893-15.463 23.28-35.998 23.28-57.766 0-7.581-1.066-15.067-3.072-22.269 10.868-.186 19.66-9.054 19.66-19.965zm-92-28h8v16c0 2.205-1.795 4-4 4s-4-1.795-4-4zm-34-20c1.863 0 3.678.365 5.396 1.084 1.053.441 2.246.408 3.277-.084 1.029-.494 1.799-1.406 2.113-2.506 2.443-8.533 10.345-14.494 19.214-14.494 9.083 0 16.934 6.245 19.247 14.83-2.157 1.21-4.127 2.77-5.794 4.67-1.457 1.66-1.293 4.188.367 5.645 1.666 1.463 4.193 1.295 5.645-.367 2.664-3.038 6.504-4.778 10.535-4.778 5.526 0 10.336 3.223 12.602 8h-86.4c.981-6.767 6.764-12 13.798-12zm-62 48c0-6.617 5.383-12 12-12h12 .68c-6.087 7.119-10.907 15.191-14.3 23.836-5.846-.8-10.38-5.774-10.38-11.836zm90.125 69.566c1.436 1.01 3.369.961 4.754-.119l4.781-3.723 2.652 8.602c.371 1.207 1.293 2.168 2.482 2.592 1.189.422 2.508.258 3.561-.443 2.004-1.338 4.52-3.58 6.406-6.424 1.457 3.229 2.711 7.07 2.82 10.879.057 2.01 1.598 3.662 3.598 3.865 1.975.197 5.104-.178 8.023-1.99 2.158 8.668 2.746 25.267-18.301 37.195h-46.628c-14.901-10.52-18.15-29.151-18.79-38.621l9.363 4.016c1.752.758 3.801.162 4.877-1.416 2.246-3.279 3.666-6.547 4.553-9.51.725.66 1.678 1.041 2.684 1.043 1.494-.115 2.656-.697 3.391-1.861l15.221-24.041c2.367 5.359 4.256 11.725 3.045 15.445-.542 1.67.069 3.502 1.508 4.511zm-54.125 58.434h104v12h-104zm104-8h-15.275c4.323-3.846 7.355-7.919 9.412-12h5.863zm-87.766 0h-16.233v-12h8.081c2.04 4.167 4.714 8.255 8.152 12zm-36.234-12h12v32h-12zm144 32h-12v-32h12zm-22.793-40.674c2.972-13.806-2.764-25.654-2.865-25.854-.678-1.354-2.062-2.209-3.576-2.209 0 0 0 0-.002 0-1.514 0-2.898.857-3.576 2.211-.607 1.215-1.379 1.994-2.143 2.492-1.936-10.08-8.377-18.582-8.691-18.992-1.168-1.525-3.254-2.004-4.963-1.145-1.715.859-2.58 2.812-2.062 4.66.516 1.832-.221 3.67-1.299 5.227l-2.432-7.887c-.387-1.258-1.367-2.242-2.621-2.637-1.248-.398-2.623-.15-3.658.658l-2.732 2.127c-1.447-8.613-6.457-17.201-7.223-18.477-.715-1.189-1.994-1.924-3.383-1.941-1.26.119-2.684.689-3.426 1.861l-15.561 24.58-2.035-3.258c-1.004-1.604-2.992-2.287-4.775-1.633-1.779.656-2.852 2.469-2.574 4.342.012.07.785 6.25-2.816 13.215l-11.84-5.078c-1.193-.514-2.562-.416-3.67.268-1.107.68-1.814 1.855-1.898 3.152-.053.833-.679 12.235 3.452 24.992h-1.256c-17.161-14.395-26.993-35.358-26.993-57.766 0-20.409 8.441-40.063 23.126-54.234h4.286 48c0 6.617 5.383 12 12 12s12-5.383 12-12h28 .286c14.685 14.172 23.126 33.825 23.126 54.234-.001 22.062-9.534 42.721-26.206 57.092zm30.793-87.326h-2.313c-3.396-8.707-8.241-16.836-14.367-24h.68 16c6.617 0 12 5.383 12 12s-5.382 12-12 12zm-48-92c0-2.209 1.791-4 4-4h4v-4c0-2.209 1.791-4 4-4s4 1.791 4 4v4h4c2.209 0 4 1.791 4 4s-1.791 4-4 4h-4v4c0 2.209-1.791 4-4 4s-4-1.791-4-4v-4h-4c-2.209 0-4-1.791-4-4zm52 32c6.617 0 12-5.383 12-12s-5.383-12-12-12-12 5.383-12 12 5.383 12 12 12zm0-16c2.205 0 4 1.795 4 4s-1.795 4-4 4-4-1.795-4-4 1.795-4 4-4zm-181.941 135.263c0 2.362-1.915 4.276-4.277 4.276s-4.276-1.915-4.276-4.276 1.915-4.277 4.276-4.277 4.277 1.915 4.277 4.277zm97.941 28.737c0 6.617-5.383 12-12 12s-12-5.383-12-12 5.383-12 12-12c2.209 0 4 1.791 4 4s-1.791 4-4 4c-2.205 0-4 1.795-4 4s1.795 4 4 4 4-1.795 4-4c0-2.209 1.791-4 4-4s4 1.791 4 4zm13.506-4.737c0-2.362 1.915-4.277 4.276-4.277s4.277 1.915 4.277 4.277-1.915 4.276-4.277 4.276-4.276-1.914-4.276-4.276z" fill="url(#SVGID_1_)"/></g></svg>