<svg id="mask" enable-background="new 0 0 300 300" height="512" viewBox="0 0 300 300" width="512" xmlns="http://www.w3.org/2000/svg" xmlns:xlink="http://www.w3.org/1999/xlink"><linearGradient id="SVGID_1_" gradientUnits="userSpaceOnUse" x1="66.745" x2="243.533" y1="224.531" y2="47.743"><stop offset="0" stop-color="#107eff"/><stop offset="1" stop-color="#8f16ff"/></linearGradient><g><path d="m85.447 103.597c0-2.362 1.915-4.277 4.277-4.277s4.276 1.916 4.276 4.277-1.915 4.276-4.276 4.276-4.277-1.914-4.277-4.276zm168.277-15.723c2.362 0 4.276-1.915 4.276-4.276s-1.915-4.277-4.276-4.277-4.277 1.915-4.277 4.277 1.915 4.276 4.277 4.276zm-39.724-35.874c0-7.719 6.281-14 14-14s14 6.281 14 14-6.281 14-14 14-14-6.281-14-14zm8 0c0 3.309 2.691 6 6 6s6-2.691 6-6-2.691-6-6-6-6 2.691-6 6zm-156.625 25.047c.781.781 1.805 1.172 2.828 1.172s2.047-.391 2.828-1.172l3.172-3.172 3.172 3.172c.781.781 1.805 1.172 2.828 1.172s2.047-.391 2.828-1.172c1.562-1.562 1.562-4.094 0-5.656l-3.172-3.172 3.172-3.172c1.562-1.562 1.562-4.094 0-5.656s-4.094-1.562-5.656 0l-3.172 3.172-3.172-3.172c-1.562-1.562-4.094-1.562-5.656 0s-1.562 4.094 0 5.656l3.172 3.172-3.172 3.172c-1.563 1.562-1.563 4.093 0 5.656zm200.529 81.82c-.676 3.047-17.105 74.689-63.189 83.068-13.797 2.514-25.623 2.596-35.209.266l-14.361 18.271c-.758.966-1.918 1.528-3.145 1.528s-2.387-.562-3.145-1.527l-14.361-18.271c-9.584 2.328-21.41 2.244-35.209-.266-46.084-8.379-62.514-80.021-63.189-83.068-.439-1.971.662-3.961 2.566-4.637 1.902-.67 4.01.172 4.916 1.98 5.771 11.544 33.615 17.481 66.018 14.457-3.865-2.204-7.599-5.012-10.966-8.381-8.365-8.363-13.473-18.951-13.664-28.32-.021-1.09.402-2.141 1.172-2.91.771-.77 1.846-1.1 2.91-1.172 9.371.191 19.959 5.299 28.32 13.664 2.739 2.738 5.087 5.728 7.07 8.822-.261-3.426-.438-6.876-.438-10.371 0-29.084 9.389-56.227 25.115-72.605 1.508-1.574 4.262-1.574 5.77 0 15.726 16.378 25.115 43.521 25.115 72.605 0 3.494-.176 6.945-.439 10.371 1.982-3.094 4.331-6.084 7.07-8.822 8.361-8.365 18.949-13.473 28.32-13.664 1.021 0 2.141.4 2.91 1.172.77.77 1.193 1.82 1.172 2.91-.191 9.369-5.299 19.957-13.664 28.32-3.366 3.368-7.1 6.176-10.964 8.38 32.414 3.02 60.248-2.912 66.017-14.456.904-1.809 3.018-2.652 4.916-1.98 1.904.675 3.006 2.665 2.566 4.636zm-86.336 8.483c6.129-1.41 12.639-5.213 18.145-10.719s9.307-12.016 10.719-18.145c-6.129 1.412-12.639 5.213-18.145 10.719s-9.308 12.016-10.719 18.145zm-49.568-25.35c0 10.164 1.229 20.019 3.564 29.365 1.158.367 2.279.79 3.361 1.268.813-10.184 4.491-19.466 10.19-25.402 1.508-1.574 4.262-1.574 5.77 0 5.699 5.936 9.377 15.217 10.19 25.402 1.082-.478 2.203-.9 3.361-1.267 2.335-9.349 3.564-19.203 3.564-29.366 0-22.382-5.874-43.365-16-58.408v54.408c0 2.209-1.791 4-4 4s-4-1.791-4-4v-54.408c-10.126 15.043-16 36.026-16 58.408zm20 14.51c-3.336 5.33-5.25 12.621-5.25 20.408s1.914 15.078 5.25 20.408c3.336-5.33 5.25-12.621 5.25-20.408s-1.914-15.078-5.25-20.408zm-47.713.121c5.506 5.506 12.016 9.307 18.145 10.719-1.41-6.129-5.213-12.639-10.719-18.145s-12.016-9.307-18.145-10.719c1.412 6.129 5.213 12.639 10.719 18.145zm151.817 14.191c-15.982 8.773-43.545 10.275-68.6 7.146-9.36-1.168-16.9.137-22.491 3.815-.905 9.954-4.538 19-10.128 24.821-.754.787-1.795 1.23-2.885 1.23s-2.131-.443-2.885-1.23c-5.59-5.822-9.223-14.868-10.128-24.822-5.59-3.678-13.123-4.984-22.491-3.815-25.053 3.133-52.615 1.629-68.6-7.146 6.936 20.641 23.365 57.887 52.818 63.242 13.846 2.52 25.326 2.434 34.119-.246 1.578-.482 3.289.057 4.311 1.354l12.856 16.356 12.855-16.355c1.02-1.295 2.734-1.828 4.311-1.354 8.799 2.684 20.279 2.768 34.119.246 29.453-5.355 45.883-42.601 52.819-63.242zm-72.104 23.178h36c1.553 0 2.965.898 3.623 2.303.658 1.406.443 3.066-.551 4.258-.174.209-14.311 16.773-37.525 16.773-5.779 0-12.121-1.027-18.951-3.588-1.369-.514-2.348-1.732-2.555-3.178-.207-1.447.391-2.893 1.559-3.768l16-12c.693-.519 1.535-.8 2.4-.8zm-44.041 16.568c-.207 1.445-1.186 2.664-2.555 3.178-6.828 2.561-13.174 3.588-18.951 3.588-23.219 0-37.352-16.564-37.525-16.773-.994-1.191-1.209-2.852-.551-4.258.658-1.405 2.07-2.303 3.623-2.303h36c.865 0 1.707.281 2.4.801l16 12c1.168.875 1.766 2.32 1.559 3.767z" fill="url(#SVGID_1_)"/></g></svg>