<svg id="spell1" enable-background="new 0 0 300 300" height="512" viewBox="0 0 300 300" width="512" xmlns="http://www.w3.org/2000/svg" xmlns:xlink="http://www.w3.org/1999/xlink"><linearGradient id="SVGID_1_" gradientUnits="userSpaceOnUse" x1="59.666" x2="269.323" y1="271.324" y2="61.667"><stop offset="0" stop-color="#107eff"/><stop offset="1" stop-color="#8f16ff"/></linearGradient><g><path d="m127.656 132.4 2.828-2.828c1.562-1.562 4.094-1.562 5.656 0s1.562 4.094 0 5.656l-2.828 2.828 2.828 2.828c1.562 1.562 1.562 4.094 0 5.656-.781.781-1.805 1.172-2.828 1.172s-2.047-.391-2.828-1.172l-2.828-2.828-2.828 2.828c-.781.781-1.805 1.172-2.828 1.172s-2.047-.391-2.828-1.172c-1.562-1.562-1.562-4.094 0-5.656l2.828-2.828-2.828-2.828c-1.562-1.562-1.562-4.094 0-5.656s4.094-1.562 5.656 0zm-39.656-21.871c2.501 0 4.53-2.028 4.53-4.529 0-2.502-2.028-4.53-4.53-4.53s-4.53 2.028-4.53 4.53c0 2.501 2.028 4.529 4.53 4.529zm18-38.529c0-6.617 5.383-12 12-12s12 5.383 12 12-5.383 12-12 12-12-5.383-12-12zm8 0c0 2.205 1.793 4 4 4s4-1.795 4-4-1.793-4-4-4-4 1.795-4 4zm156 142.623c0 5.16-3.719 9.486-8.844 10.287l-70.539 11.041c-.461.076-.93.064-1.395-.027l-59.082-11.713-40.14 10.851v32.938c0 1.527-.871 2.922-2.242 3.594-.559.271-1.16.406-1.758.406-.871 0-1.738-.285-2.457-.842l-23.371-18.178c-7.446-5.791-16.739-8.98-26.172-8.98-2.211 0-4-1.791-4-4s1.789-4 4-4c11.203 0 22.242 3.787 31.086 10.664l16.914 13.158v-75.502l-12 .923v26.757c0 2.209-1.789 4-4 4s-4-1.791-4-4v-26.141l-27.691 2.13c-2.277.156-4.129-1.48-4.297-3.682-.168-2.203 1.48-4.125 3.68-4.295l52-4c1.148-.07 2.211.299 3.027 1.053.816.757 1.281 1.822 1.281 2.935v.368c14.498-.35 20.254-2.617 26.805-5.216 5.703-2.26 12.164-4.822 24.633-6.59 24.461-3.467 35.434 10.045 38.945 15.822h22.23c10.691 0 19.387 8.637 19.387 19.252v.364h37.531c5.774 0 10.469 4.766 10.469 10.623zm-8 0c0-1.396-1.152-2.623-2.469-2.623h-85.531c-.508 0-1.012-.098-1.484-.285l-20-8c-2.051-.822-3.051-3.148-2.23-5.201.82-2.051 3.164-3.041 5.199-2.229l19.284 7.715h39.231v-.363c0-6.205-5.109-11.252-11.387-11.252h-24.613c-1.633 0-3.098-.99-3.711-2.504-.273-.664-7.379-16.854-31.727-13.396-11.531 1.633-17.262 3.906-22.809 6.105-7.006 2.777-13.668 5.408-29.754 5.781v38.405l38.957-10.531c.594-.16 1.219-.184 1.82-.062l59.305 11.756 69.84-10.93c1.204-.191 2.079-1.193 2.079-2.386zm-66.008-84.953 26.352-59.295c.644-1.443 2.074-2.375 3.656-2.375s3.012.932 3.656 2.375l26.352 59.295c.484 1.092.457 2.346-.078 3.414l-26.352 52.705c-.68 1.355-2.062 2.211-3.578 2.211s-2.898-.855-3.578-2.211l-26.352-52.705c-.535-1.068-.562-2.322-.078-3.414zm26.008-38.82-16.972 38.191 16.972 8.486zm-13.722 48.762 13.722 27.443v-11.055c0-2.209 1.789-4 4-4s4 1.791 4 4v11.055l13.721-27.443-15.932 7.966c-.563.281-1.176.422-1.789.422s-1.227-.141-1.789-.422zm-41.993-56.249c-.359-.9-.379-1.902-.055-2.816l12-33.883c.567-1.596 2.075-2.664 3.77-2.664s3.203 1.068 3.77 2.664l12 33.883c.324.914.305 1.916-.055 2.816l-12 30.117c-.605 1.521-2.078 2.52-3.715 2.52s-3.109-.998-3.715-2.52zm80.035-4.623c-.406-.947-.426-2.014-.062-2.979l8-21.176c.59-1.556 2.078-2.585 3.742-2.585s3.152 1.029 3.742 2.586l8 21.176c.363.965.344 2.031-.062 2.979l-8 18.824c-.625 1.476-2.075 2.435-3.68 2.435s-3.055-.959-3.68-2.436zm7.988-1.652 3.692 8.685 3.691-8.686-3.691-9.769zm-55.839-26.27c-.594-1.115-.625-2.443-.086-3.584l8-16.941c.66-1.4 2.07-2.293 3.617-2.293s2.957.893 3.617 2.293l8 16.941c.539 1.141.508 2.469-.086 3.584l-8 15.059c-.691 1.307-2.051 2.123-3.531 2.123s-2.84-.816-3.531-2.123zm8.004-1.982 3.527 6.639 3.527-6.639-3.527-7.469z" fill="url(#SVGID_1_)"/></g></svg>