<svg id="staff2" enable-background="new 0 0 300 300" height="512" viewBox="0 0 300 300" width="512" xmlns="http://www.w3.org/2000/svg" xmlns:xlink="http://www.w3.org/1999/xlink"><linearGradient id="SVGID_1_" gradientUnits="userSpaceOnUse" x1="98.372" x2="242.877" y1="217.169" y2="72.663"><stop offset="0" stop-color="#107eff"/><stop offset="1" stop-color="#8f16ff"/></linearGradient><g><path d="m119.086 202c0 2.501-2.028 4.529-4.53 4.529s-4.53-2.028-4.53-4.529c0-2.502 2.028-4.53 4.53-4.53s4.53 2.028 4.53 4.53zm117.471 18c0 6.617-5.383 12-12 12s-12-5.383-12-12 5.383-12 12-12 12 5.383 12 12zm-8 0c0-2.205-1.793-4-4-4s-4 1.795-4 4 1.793 4 4 4 4-1.795 4-4zm9.113-62.887c0 1.715-1.094 3.24-2.719 3.789l-13.906 4.699-4.699 13.904c-.547 1.625-2.074 2.719-3.789 2.719s-3.242-1.094-3.789-2.719l-4.699-13.904-13.906-4.699c-1.625-.549-2.719-2.074-2.719-3.789s1.094-3.24 2.719-3.789l13.906-4.699 4.699-13.906c.547-1.625 2.074-2.719 3.789-2.719s3.242 1.094 3.789 2.719l4.699 13.906 13.906 4.699c1.625.549 2.719 2.074 2.719 3.789zm-16.496 0-4.566-1.543c-1.18-.398-2.109-1.326-2.508-2.508l-1.543-4.566-1.543 4.566c-.398 1.182-1.328 2.109-2.508 2.508l-4.566 1.543 4.566 1.543c1.18.398 2.109 1.326 2.508 2.508l1.543 4.566 1.543-4.566c.398-1.182 1.328-2.109 2.508-2.508zm-119.504-37.338c0 1.715-1.094 3.24-2.719 3.789l-13.906 4.699-4.699 13.906c-.547 1.625-2.074 2.719-3.789 2.719s-3.242-1.094-3.789-2.719l-4.699-13.906-13.906-4.699c-1.625-.549-2.719-2.074-2.719-3.789 0-1.717 1.094-3.24 2.719-3.789l13.906-4.697 4.699-13.906c.547-1.625 2.074-2.719 3.789-2.719s3.242 1.094 3.789 2.719l4.699 13.906 13.906 4.697c1.625.549 2.719 2.073 2.719 3.789zm-16.5 0-4.562-1.541c-1.18-.398-2.109-1.326-2.508-2.508l-1.543-4.566-1.543 4.566c-.398 1.182-1.328 2.109-2.508 2.508l-4.562 1.541 4.562 1.543c1.18.398 2.109 1.326 2.508 2.508l1.543 4.566 1.543-4.566c.398-1.182 1.328-2.109 2.508-2.508zm159.387-43.775h-4v-4c0-2.209-1.789-4-4-4s-4 1.791-4 4v4h-4c-2.211 0-4 1.791-4 4s1.789 4 4 4h4v4c0 2.209 1.789 4 4 4s4-1.791 4-4v-4h4c2.211 0 4-1.791 4-4s-1.789-4-4-4zm-62 36h-14.198l-7.602 148.262c-.223 4.34-3.801 7.738-8.148 7.738-4.457 0-8.039-3.49-8.156-7.947l-3.797-148.053h-14.1c-5.516 0-10-4.486-10-10s4.484-10 10-10h6.137c-7.411-6.242-12.137-15.575-12.137-26 0-18.748 15.254-34 34-34s34 15.252 34 34c0 10.425-4.726 19.758-12.137 26h6.137c5.516 0 10 4.486 10 10s-4.484 10-9.999 10zm-28-20c14.336 0 26-11.664 26-26 0-9.565-5.207-17.919-12.921-22.434 3.888 4.142 6.614 9.45 7.531 15.479 2.004 13.137-7.055 25.451-20.191 27.453-.988.15-1.969.223-2.938.223-9.504 0-17.652-7.066-19.195-17.172-.68-4.443.344-8.92 2.875-12.607 2.621-3.812 6.523-6.285 10.988-6.965 3.711-.568 7.637.383 10.777 2.594 3.266 2.297 5.383 5.646 5.957 9.434.973 6.385-3.555 12.002-10.527 13.066-2.18.332-4.223-1.172-4.555-3.352-.336-2.184 1.168-4.225 3.352-4.559.441-.066 4.309-.752 3.824-3.953-.246-1.609-1.188-3.064-2.652-4.096-1.469-1.033-3.266-1.482-4.969-1.225-2.262.342-4.246 1.615-5.598 3.584-1.359 1.977-1.93 4.482-1.566 6.871 1.043 6.816 6.652 11.221 13.023 10.246 8.773-1.336 14.824-9.562 13.488-18.338-1.745-11.428-12.408-19.345-23.814-17.721-8.786 4.178-14.889 13.115-14.889 23.472 0 14.336 11.664 26 26 26zm-28 12h56c1.102 0 2-.896 2-2s-.898-2-2-2h-56c-1.102 0-2 .896-2 2s.898 2 2 2zm33.779 8h-11.674l3.789 147.848z" fill="url(#SVGID_1_)"/></g></svg>