<?xml version="1.0" standalone="no"?>
<!DOCTYPE svg PUBLIC "-//W3C//DTD SVG 20010904//EN"
 "http://www.w3.org/TR/2001/REC-SVG-20010904/DTD/svg10.dtd">
<svg version="1.0" xmlns="http://www.w3.org/2000/svg"
 width="500.000000pt" height="540.000000pt" viewBox="0 0 500.000000 540.000000"
 preserveAspectRatio="xMidYMid meet">
<metadata>
Created by potrace 1.16, written by Peter Selinger 2001-2019
</metadata>
<g transform="translate(0.000000,540.000000) scale(0.100000,-0.100000)"
fill="#000000" stroke="none">
<path d="M0 2700 l0 -2700 2500 0 2500 0 0 2700 0 2700 -2500 0 -2500 0 0
-2700z m2665 1550 c674 -100 1206 -590 1365 -1260 70 -298 42 -665 -75 -961
-171 -434 -533 -784 -970 -939 -191 -67 -335 -91 -555 -91 -262 0 -500 56
-726 169 -319 160 -587 431 -744 752 l-32 66 -51 -2 c-44 -1 -55 2 -78 26 -22
22 -27 34 -24 61 3 19 14 42 25 51 17 13 18 18 7 25 -8 4 -20 18 -26 31 -15
28 1 86 27 102 10 5 12 10 5 10 -19 0 -45 59 -39 85 3 13 13 31 22 40 15 14
15 17 0 33 -19 22 -23 69 -9 108 7 16 14 85 16 154 27 708 534 1330 1227 1505
85 21 204 40 300 47 69 6 266 -2 335 -12z"/>
<path d="M2240 4223 c-455 -59 -865 -309 -1129 -687 -35 -51 -39 -61 -26 -69
34 -18 169 -9 300 22 72 16 157 32 190 34 76 5 175 -15 229 -47 36 -21 44 -22
61 -10 10 8 44 24 74 35 84 32 193 28 361 -11 200 -47 305 -42 406 21 19 11
39 19 45 17 7 -2 10 -125 10 -374 0 -329 2 -375 17 -404 23 -46 61 -71 113
-77 120 -12 203 123 134 218 -97 134 -114 265 -50 395 31 64 89 118 164 153
47 22 70 26 141 26 73 0 93 -4 142 -28 122 -60 251 -253 299 -446 18 -71 20
-105 16 -215 -6 -157 -21 -219 -87 -352 -83 -165 -222 -300 -392 -378 -126
-59 -185 -70 -363 -71 -153 -1 -162 -3 -212 -28 -98 -51 -203 -51 -408 -1 -74
18 -138 27 -196 28 -80 0 -92 -2 -162 -37 l-76 -38 -53 30 c-66 37 -153 55
-221 46 -29 -4 -110 -20 -180 -36 -177 -40 -283 -39 -389 6 -14 5 -11 -6 13
-52 78 -147 182 -288 299 -402 413 -407 1004 -558 1564 -401 346 97 673 333
882 635 66 96 163 290 199 399 88 265 105 575 46 845 -120 549 -528 1005
-1058 1181 -175 58 -260 71 -473 75 -107 2 -211 1 -230 -2z"/>
<path d="M1425 3465 c-187 -45 -294 -54 -358 -29 -32 12 -138 -225 -187 -418
-30 -119 -54 -312 -48 -388 l3 -45 79 -2 c87 -2 112 -16 119 -63 5 -29 -18
-80 -35 -80 -7 0 -2 -9 10 -20 15 -15 22 -33 22 -60 0 -27 -7 -45 -22 -60 -12
-11 -17 -20 -10 -20 17 0 40 -51 35 -80 -2 -14 -12 -34 -23 -44 -18 -19 -18
-19 2 -36 26 -21 29 -82 5 -108 -9 -10 -17 -21 -17 -25 0 -3 26 -15 58 -27 73
-28 181 -23 332 14 186 47 290 45 394 -5 22 -10 41 -19 43 -19 2 0 2 332 1
738 l-3 737 -55 30 c-77 41 -202 45 -345 10z"/>
<path d="M1955 3472 c-28 -10 -60 -25 -73 -33 l-22 -14 0 -736 0 -737 63 27
c89 38 214 35 394 -8 72 -17 158 -31 190 -31 59 0 163 24 163 38 0 4 -19 8
-43 9 -29 2 -47 9 -59 24 -24 29 -23 81 2 104 19 17 19 18 0 43 -25 31 -25 72
-1 103 19 24 19 25 0 48 -24 30 -24 72 0 102 19 24 19 25 0 48 -26 32 -24 77
4 105 21 21 30 23 90 19 l67 -5 0 451 c0 248 -2 451 -4 451 -2 0 -30 -12 -62
-27 -81 -38 -202 -38 -359 2 -146 36 -281 43 -350 17z"/>
<path d="M3200 3426 c-128 -34 -218 -144 -228 -277 -5 -79 16 -155 58 -202 40
-47 51 -73 52 -125 3 -101 -62 -173 -163 -180 -49 -4 -65 0 -103 22 -24 14
-46 26 -48 26 -2 0 -3 -24 -2 -52 3 -88 3 -88 -85 -88 -78 0 -101 -9 -101 -40
1 -37 17 -45 90 -42 45 2 77 -1 86 -9 20 -16 18 -49 -3 -49 -146 -4 -173 -12
-173 -51 0 -29 43 -51 97 -49 84 3 93 1 93 -19 0 -33 -25 -43 -100 -39 -74 3
-89 -5 -90 -43 0 -30 28 -41 107 -42 77 -2 78 -2 80 -29 l2 -28 -79 0 c-83 0
-110 -12 -110 -49 0 -31 21 -38 125 -45 55 -3 132 -9 171 -12 140 -12 323 36
457 119 89 56 217 188 270 277 21 36 52 108 69 160 29 88 31 106 32 235 1 106
-4 156 -17 205 -41 146 -153 328 -237 384 -42 27 -136 56 -180 55 -14 0 -45
-6 -70 -13z"/>
<path d="M817 2544 c-4 -4 -7 -20 -7 -36 0 -34 21 -44 97 -47 71 -3 95 11 91
52 l-3 32 -85 3 c-47 1 -89 0 -93 -4z"/>
<path d="M824 2397 c-16 -9 -19 -63 -4 -72 20 -12 125 -16 153 -6 21 8 27 17
27 40 0 20 -7 34 -20 41 -22 12 -133 10 -156 -3z"/>
<path d="M823 2245 c-9 -7 -13 -23 -11 -40 4 -36 29 -43 118 -36 64 6 65 6 68
38 2 24 -2 34 -18 43 -25 13 -137 9 -157 -5z"/>
<path d="M821 2096 c-7 -8 -11 -27 -9 -43 l3 -28 90 0 90 0 3 30 c3 19 -2 33
-14 42 -25 18 -148 17 -163 -1z"/>
</g>
</svg>
