<svg id="wizard-body" enable-background="new 0 0 300 300" height="512" viewBox="0 0 300 300" width="512" xmlns="http://www.w3.org/2000/svg" xmlns:xlink="http://www.w3.org/1999/xlink"><linearGradient id="SVGID_1_" gradientUnits="userSpaceOnUse" x1="51.638" x2="261.296" y1="287.462" y2="77.804"><stop offset="0" stop-color="#107eff"/><stop offset="1" stop-color="#8f16ff"/></linearGradient><g><path d="m222 176.166c0 2.209-1.791 4-4 4s-4-1.791-4-4 1.791-4 4-4 4 1.791 4 4zm12 44c2.211 0 4-1.791 4-4v-4h4c2.211 0 4-1.791 4-4s-1.789-4-4-4h-4v-4c0-2.209-1.789-4-4-4s-4 1.791-4 4v4h-4c-2.211 0-4 1.791-4 4s1.789 4 4 4h4v4c0 2.209 1.789 4 4 4zm-164-150c0-7.719 6.281-14 14-14s14 6.281 14 14-6.281 14-14 14-14-6.281-14-14zm8 0c0 3.309 2.691 6 6 6s6-2.691 6-6-2.691-6-6-6-6 2.691-6 6zm192 202c0 2.209-1.789 4-4 4h-224c-2.211 0-4-1.791-4-4s1.789-4 4-4h92v-16h-8c-1.086 0-2.121-.439-2.875-1.219-.754-.781-1.16-1.832-1.121-2.916l3.84-113.676-43.316 5.775c-1.133.16-2.297-.195-3.164-.955s-1.364-1.857-1.364-3.009v-4h-4c-5.208 0-9.606-3.354-11.263-8h-28.737c-2.211 0-4-1.791-4-4s1.789-4 4-4h28.737c1.656-4.646 6.055-8 11.263-8h62.223l-2.055-6.852c-.109-.371-.168-.76-.168-1.148v-20h-16c-2.211 0-4-1.791-4-4s1.789-4 4-4h13.39l18.911-45.857c.617-1.498 2.078-2.475 3.699-2.475s3.082.977 3.699 2.475l18.911 45.857h13.39c2.211 0 4 1.791 4 4s-1.789 4-4 4h-16v20c0 .389-.059.777-.168 1.148l-2.055 6.852h66.223c6.617 0 12 5.383 12 12s-5.383 12-12 12h-4v4c0 1.152-.496 2.25-1.363 3.01s-2.027 1.113-3.164.955l-47.316-6.309 3.84 114.209c.039 1.084-.367 2.137-1.121 2.916s-1.789 1.219-2.875 1.219h-8v16h92c2.21 0 3.999 1.791 3.999 4zm-104-20h-8v16h8zm72-136h-4v8h4c2.207 0 4-1.795 4-4s-1.793-4-4-4zm-97.954-44h27.908l-13.954-33.84zm1.954 8v6.344l5.656 5.656h12.688l5.656-5.656v-6.344zm-64 44v-8h-4c-2.207 0-4 1.795-4 4s1.793 4 4 4zm55.996 5.734-3.859 114.266h8.584l11.357-56.785c.375-1.869 2.016-3.215 3.922-3.215s3.547 1.346 3.922 3.215l11.357 56.785h8.584l-3.859-114.799c-.043-1.176.438-2.311 1.312-3.1.867-.791 2.039-1.16 3.211-1l47.473 6.33v-3.432-12h-56.624l-7.544 25.148c-.508 1.693-2.066 2.852-3.832 2.852h-8c-1.766 0-3.324-1.158-3.832-2.852l-7.544-25.148h-52.624v12 3.432l43.473-5.797c1.156-.16 2.34.209 3.211 1 .875.792 1.355 1.925 1.312 3.1zm8.004 138.266h8v-16h-8zm62.887-194.887c0-1.715 1.094-3.24 2.719-3.789l13.906-4.699 4.699-13.906c.547-1.625 2.074-2.719 3.789-2.719s3.242 1.094 3.789 2.719l4.699 13.906 13.906 4.699c1.625.549 2.719 2.074 2.719 3.789s-1.094 3.24-2.719 3.789l-13.906 4.699-4.699 13.904c-.547 1.625-2.074 2.719-3.789 2.719s-3.242-1.094-3.789-2.719l-4.699-13.904-13.906-4.699c-1.626-.548-2.719-2.074-2.719-3.789zm16.496 0 4.566 1.543c1.18.398 2.109 1.326 2.508 2.508l1.543 4.566 1.543-4.566c.398-1.182 1.328-2.109 2.508-2.508l4.566-1.543-4.566-1.543c-1.18-.398-2.109-1.326-2.508-2.508l-1.543-4.566-1.543 4.566c-.398 1.182-1.328 2.109-2.508 2.508zm-67.383 102.887c2.209 0 4-1.791 4-4s-1.791-4-4-4-4 1.791-4 4 1.791 4 4 4zm0-16c2.209 0 4-1.791 4-4s-1.791-4-4-4-4 1.791-4 4 1.791 4 4 4z" fill="url(#SVGID_1_)"/></g></svg>