<svg id="wizard-body" enable-background="new 0 0 300 300" height="512" viewBox="0 0 300 300" width="512" xmlns="http://www.w3.org/2000/svg"><g><circle cx="218" cy="176.166" r="4"/><path d="m234 220.166c2.211 0 4-1.791 4-4v-4h4c2.211 0 4-1.791 4-4s-1.789-4-4-4h-4v-4c0-2.209-1.789-4-4-4s-4 1.791-4 4v4h-4c-2.211 0-4 1.791-4 4s1.789 4 4 4h4v4c0 2.209 1.789 4 4 4z"/><path d="m84 84.166c7.719 0 14-6.281 14-14s-6.281-14-14-14-14 6.281-14 14 6.281 14 14 14zm0-20c3.309 0 6 2.691 6 6s-2.691 6-6 6-6-2.691-6-6 2.691-6 6-6z"/><path d="m266 268.166h-92v-16h8c1.086 0 2.121-.439 2.875-1.219s1.16-1.832 1.121-2.916l-3.84-114.209 47.316 6.309c1.137.158 2.297-.195 3.164-.955s1.363-1.857 1.363-3.01v-4h4c6.617 0 12-5.383 12-12s-5.383-12-12-12h-66.223l2.055-6.852c.109-.371.168-.76.168-1.148v-20h16c2.211 0 4-1.791 4-4s-1.789-4-4-4h-13.39l-18.911-45.857c-.617-1.498-2.078-2.475-3.699-2.475s-3.082.977-3.699 2.475l-18.91 45.857h-13.39c-2.211 0-4 1.791-4 4s1.789 4 4 4h16v20c0 .389.059.777.168 1.148l2.055 6.852h-62.223c-5.208 0-9.606 3.354-11.263 8h-28.737c-2.211 0-4 1.791-4 4s1.789 4 4 4h28.737c1.656 4.646 6.055 8 11.263 8h4v4c0 1.152.496 2.25 1.363 3.01s2.031 1.115 3.164.955l43.316-5.775-3.84 113.676c-.039 1.084.367 2.135 1.121 2.916.754.779 1.789 1.219 2.875 1.219h8v16h-91.999c-2.211 0-4 1.791-4 4s1.789 4 4 4h224c2.211 0 4-1.791 4-4s-1.789-4.001-4-4.001zm-100 0h-8v-16h8zm-19.121-24 7.121-35.604 7.121 35.604zm95.121-124c0 2.205-1.793 4-4 4h-4v-8h4c2.207 0 4 1.795 4 4zm-100-20.588v-1.756l1.172 1.172c.75.75 1.766 1.172 2.828 1.172h16c1.062 0 2.078-.422 2.828-1.172l1.172-1.172v1.756l-10.977 36.588h-2.047zm12-61.252 13.954 33.84h-27.908zm12 41.84v6.344l-5.656 5.656h-12.688l-5.656-5.656v-6.344zm-92 44c-2.207 0-4-1.795-4-4s1.793-4 4-4h4v8zm58.684 2.635c-.871-.791-2.055-1.16-3.211-1l-43.473 5.797v-3.432-12h52.624l7.544 25.148c.508 1.693 2.066 2.852 3.832 2.852h8c1.766 0 3.324-1.158 3.832-2.852l7.544-25.148h56.624v12 3.432l-47.473-6.33c-1.172-.16-2.344.209-3.211 1-.875.789-1.355 1.924-1.312 3.1l3.859 114.799h-8.584l-11.357-56.785c-.375-1.869-2.016-3.215-3.922-3.215s-3.547 1.346-3.922 3.215l-11.357 56.785h-8.584l3.859-114.266c.043-1.176-.437-2.309-1.312-3.1zm9.316 125.365h8v16h-8z"/><path d="m207.605 77.068 13.906 4.699 4.699 13.904c.547 1.625 2.074 2.719 3.789 2.719s3.242-1.094 3.789-2.719l4.699-13.904 13.906-4.699c1.625-.549 2.719-2.074 2.719-3.789s-1.094-3.24-2.719-3.789l-13.906-4.699-4.699-13.906c-.547-1.625-2.074-2.719-3.789-2.719s-3.242 1.094-3.789 2.719l-4.699 13.906-13.906 4.699c-1.625.549-2.719 2.074-2.719 3.789s1.094 3.241 2.719 3.789zm18.344-5.332c1.18-.398 2.109-1.326 2.508-2.508l1.543-4.566 1.543 4.566c.398 1.182 1.328 2.109 2.508 2.508l4.566 1.543-4.566 1.543c-1.18.398-2.109 1.326-2.508 2.508l-1.543 4.566-1.543-4.566c-.398-1.182-1.328-2.109-2.508-2.508l-4.566-1.543z"/><circle cx="154" cy="172.166" r="4"/><circle cx="154" cy="156.166" r="4"/></g></svg>