<svg id="mage-female" enable-background="new 0 0 300 300" height="512" viewBox="0 0 300 300" width="512" xmlns="http://www.w3.org/2000/svg" xmlns:xlink="http://www.w3.org/1999/xlink"><linearGradient id="SVGID_1_" gradientUnits="userSpaceOnUse" x1="60.757" x2="247.373" y1="252.521" y2="65.905"><stop offset="0" stop-color="#107eff"/><stop offset="1" stop-color="#8f16ff"/></linearGradient><g><path d="m59.893 158c0-6.617-5.383-12-12-12s-12 5.383-12 12 5.383 12 12 12 12-5.383 12-12zm-12 4c-2.205 0-4-1.795-4-4s1.795-4 4-4 4 1.795 4 4-1.795 4-4 4zm192-48c0 2.209-1.791 4-4 4h-4v4c0 2.209-1.791 4-4 4s-4-1.791-4-4v-4h-4c-2.209 0-4-1.791-4-4s1.791-4 4-4h4v-4c0-2.209 1.791-4 4-4s4 1.791 4 4v4h4c2.209 0 4 1.791 4 4zm24.214-29.59c0 2.362-1.915 4.276-4.277 4.276s-4.276-1.915-4.276-4.276 1.915-4.276 4.276-4.276 4.277 1.915 4.277 4.276zm-208.553 36c0-2.362 1.915-4.276 4.276-4.276s4.277 1.915 4.277 4.276-1.915 4.276-4.277 4.276-4.276-1.914-4.276-4.276zm174.128 82.012-39.182-19.591 5.188-15.565c.406-1.221.201-2.561-.551-3.604-.752-1.045-1.959-1.662-3.244-1.662h-16.808c1.552-1.654 2.965-3.407 4.151-5.27h12.656c2.209 0 4-1.791 4-4v-82.73c0-19.85-16.15-36-36-36h-32c-19.85 0-36 16.15-36 36v82.73c0 2.209 1.791 4 4 4h12.656c1.186 1.862 2.599 3.616 4.151 5.27h-16.806c-1.285 0-2.492.617-3.244 1.662-.752 1.043-.957 2.383-.551 3.604l5.188 15.565-39.182 19.591c-1.537.77-2.41 2.432-2.172 4.133s1.535 3.061 3.225 3.377c.187.035 5.888 1.128 14.264 3.235-1 3.875-1.528 7.935-1.528 11.931v36.902c0 2.209 1.791 4 4 4s4-1.791 4-4v-36.902c0-3.313.434-6.677 1.259-9.886 5.947 1.65 12.6 3.681 19.335 6.09l3.42 41.031c.174 2.074 1.906 3.668 3.986 3.668h72c2.08 0 3.812-1.594 3.986-3.668l3.419-41.025c6.733-2.409 13.384-4.439 19.33-6.09.825 3.209 1.265 6.572 1.265 9.88v36.902c0 2.209 1.791 4 4 4s4-1.791 4-4v-36.902c0-3.99-.534-8.05-1.534-11.927 8.38-2.11 14.085-3.205 14.272-3.24 1.688-.316 2.984-1.676 3.223-3.377s-.637-3.365-2.172-4.132zm-52.672-4.422h-21.117l28.156-21.117zm-33.117-1-12-9v-13.07c4.736 1.978 9.081 3.07 12 3.07s7.264-1.092 12-3.07v13.07zm-31.265-51.34-2.5-16.873c-.229-1.547-1.338-2.818-2.838-3.254-4.424-1.289-7.396-5.215-7.396-9.77v-1.561c0-2.289 1.801-4.127 4.1-4.186 1.686-.041 3.162-1.135 3.695-2.734l7.088-21.282h20.146l6.143 6.143c.781.781 1.805 1.172 2.828 1.172s2.047-.391 2.828-1.172l6.142-6.143h20.146l7.089 21.283c.529 1.59 2.398 2.709 4.072 2.762 2.121.24 3.723 2.027 3.723 4.158v1.561c0 4.555-2.973 8.48-7.396 9.77-1.5.436-2.609 1.707-2.838 3.254l-2.5 16.873c-1.967 13.285-23.689 24.34-31.266 24.34s-29.3-11.056-31.266-24.341zm-12.735-59.66h6.452l-5.476 16.441c-.338.091-.651.232-.977.35v-16.791zm88 16.802c-.324-.119-.636-.261-.973-.353l-5.479-16.449h6.452zm-49.658-24.802 5.658-5.658 5.658 5.658-5.658 5.658zm44.403 68c.15-.631.339-1.252.435-1.898l2.156-14.549c.942-.432 1.821-.962 2.664-1.539v17.986zm-54.745-104h32c14.078 0 25.729 10.454 27.681 24h-38.71l-2.143-2.143c-1.562-1.562-4.094-1.562-5.656 0l-2.143 2.143h-38.71c1.952-13.546 13.603-24 27.681-24zm-28 106.73v-17.986c.843.576 1.722 1.106 2.664 1.539l2.156 14.549c.096.647.285 1.267.435 1.898zm32 49.27h-21.117l-7.039-21.117zm-32.051-7.502 4.256 12.768c.545 1.633 2.072 2.734 3.795 2.734h32v26.641c-18.404-14.776-50.928-24.043-68.066-28.135zm76.372 67.502h-64.641l-2.794-33.533c13.021 5.296 25.3 12.004 32.042 20.093.76.912 1.885 1.439 3.072 1.439s2.312-.527 3.072-1.439c6.737-8.084 19.018-14.79 32.041-20.087zm-28.321-25.359v-26.641h32c1.723 0 3.25-1.102 3.795-2.734l4.256-12.768 28.016 14.008c-17.139 4.092-49.663 13.359-68.067 28.135zm12-118.641c0-2.209 1.791-4 4-4s4 1.791 4 4-1.791 4-4 4-4-1.791-4-4zm-32 0c0 2.209-1.791 4-4 4s-4-1.791-4-4 1.791-4 4-4 4 1.791 4 4zm-4-8h-8c-2.209 0-4-1.791-4-4s1.791-4 4-4h8c2.209 0 4 1.791 4 4s-1.791 4-4 4zm36-4c0-2.209 1.791-4 4-4h8c2.209 0 4 1.791 4 4s-1.791 4-4 4h-8c-2.209 0-4-1.791-4-4zm-28 40c0-2.209 1.791-4 4-4h14.344l2.828-2.828c1.562-1.562 4.094-1.562 5.656 0s1.562 4.094 0 5.656l-4 4c-.75.75-1.768 1.172-2.828 1.172h-16c-2.209 0-4-1.791-4-4z" fill="url(#SVGID_1_)"/></g></svg>