<svg id="wizard" enable-background="new 0 0 300 300" height="512" viewBox="0 0 300 300" width="512" xmlns="http://www.w3.org/2000/svg" xmlns:xlink="http://www.w3.org/1999/xlink"><linearGradient id="SVGID_1_" gradientUnits="userSpaceOnUse" x1="62.898" x2="241.514" y1="260.246" y2="81.63"><stop offset="0" stop-color="#107eff"/><stop offset="1" stop-color="#8f16ff"/></linearGradient><g><path d="m47.893 167.584c-6.617 0-12 5.383-12 12s5.383 12 12 12 12-5.383 12-12-5.383-12-12-12zm0 16c-2.205 0-4-1.795-4-4s1.795-4 4-4 4 1.795 4 4-1.795 4-4 4zm192-48c0 2.209-1.791 4-4 4h-4v4c0 2.209-1.791 4-4 4s-4-1.791-4-4v-4h-4c-2.209 0-4-1.791-4-4s1.791-4 4-4h4v-4c0-2.209 1.791-4 4-4s4 1.791 4 4v4h4c2.209 0 4 1.791 4 4zm24.214-29.589c0 2.362-1.915 4.276-4.277 4.276s-4.276-1.915-4.276-4.276 1.915-4.276 4.276-4.276 4.277 1.914 4.277 4.276zm-200 36c0 2.362-1.915 4.276-4.277 4.276s-4.276-1.915-4.276-4.276 1.915-4.276 4.276-4.276 4.277 1.914 4.277 4.276zm128.593 66.664c-.962-.353-2.075-.655-3.306-.924l6.295-18.884c.406-1.221.201-2.561-.551-3.604-.752-1.045-1.959-1.662-3.244-1.662h-16.808c4.093-4.36 7.143-9.466 7.987-15.168l2.156-14.549c6.389-2.932 10.664-9.393 10.664-16.52v-1.561c0-5.57-3.748-10.334-8.973-11.754l-1.106-3.319c22.948-3.18 42.078-8.959 42.078-17.13 0-1.57-.641-3.068-1.801-4.215-3.938-3.892-14.156-4.12-38.199-3.835v-11.95c0-2.051-1.566-3.679-3.555-3.91l-2.93-16.116 11.007 6.604 3.598 14.393c.422 1.684 1.879 2.902 3.609 3.02.092.006.184.01.273.01 1.625 0 3.102-.988 3.713-2.514l8-20c.518-1.297.322-2.77-.516-3.887l-17.025-22.701c-5.191-6.922-13.443-10.656-22.07-9.996l-27.416 2.109c-9.529.734-17.711 6.68-21.406 15.662l-12.212 33.326h-3.069c-2.209 0-4 1.791-4 4v11.951c-27.298-.313-38.294.07-42.248 3.972-1.129 1.115-1.752 2.562-1.752 4.076 0 8.171 19.13 13.95 42.078 17.13l-1.103 3.311c-5.213 1.4-8.975 6.109-8.975 11.762v1.561c0 7.127 4.275 13.588 10.664 16.52l2.156 14.549c.845 5.702 3.894 10.808 7.987 15.168h-16.807c-1.285 0-2.492.617-3.244 1.662-.752 1.043-.957 2.383-.551 3.604l6.291 18.874c-1.234.27-2.331.579-3.301.933-13.656 4.982-23.195 20.619-23.195 38.025v20.902c0 2.209 1.791 4 4 4s4-1.791 4-4v-20.902c0-14.111 7.377-26.656 17.938-30.51.813-.297 1.9-.55 3.115-.781l3.153 9.459c.545 1.633 2.072 2.734 3.795 2.734h30.763l-10.622 38.947c-.58 2.131.676 4.33 2.807 4.912 2.145.588 4.33-.674 4.912-2.807l8.141-29.85 8.141 29.85c.486 1.779 2.098 2.949 3.857 2.949.348 0 .703-.047 1.055-.143 2.131-.582 3.387-2.781 2.807-4.912l-10.622-38.947h30.763c1.723 0 3.25-1.102 3.795-2.734l3.152-9.457c1.217.232 2.309.484 3.115.779 10.561 3.854 17.938 16.398 17.938 30.51v20.902c0 2.209 1.791 4 4 4s4-1.791 4-4v-20.902c-.003-17.405-9.542-33.042-23.196-38.022zm-60.807.926v-13.07c4.736 1.978 9.081 3.07 12 3.07s7.264-1.092 12-3.07v13.07l-12 9zm-20-122.001h20v8h-20zm40 8h-12v-12h12zm8-8h20v8h-20zm-29.263-38.425c2.482-6.029 8.062-10.086 14.564-10.586l27.416-2.109c5.852-.467 11.514 2.096 15.059 6.82l15.676 20.902-2.57 6.428-1-4c-.258-1.029-.914-1.914-1.822-2.459l-20-12c-.623-.373-1.334-.57-2.059-.57h-12c-2.209 0-4 1.791-4 4s1.791 4 4 4h8.662l3.636 20h-16.298c0-2.209-1.791-4-4-4h-20c-2.209 0-4 1.791-4 4h-12.41zm-22.737 54.425h76 .051c13.203-.166 27.867-.355 34.027.74-7.859 4.301-35.086 11.26-74.078 11.26-38.727 0-65.846-6.863-73.914-11.172 6.973-1.236 23.86-1.013 37.914-.828zm2.235 46.788c-.229-1.547-1.338-2.818-2.838-3.254-4.424-1.289-7.396-5.215-7.396-9.77v-1.561c0-2.289 1.801-4.127 4.1-4.186 1.686-.041 3.162-1.135 3.695-2.734l2.384-7.158c11.369 1.239 23.21 1.875 33.822 1.875s22.452-.636 33.821-1.875l2.384 7.158c.529 1.59 2.398 2.709 4.072 2.762 2.121.24 3.723 2.027 3.723 4.158v1.561c0 4.555-2.973 8.48-7.396 9.77-1.5.436-2.609 1.707-2.838 3.254l-2.5 16.873c-1.967 13.285-23.689 24.34-31.266 24.34s-29.299-11.055-31.266-24.34zm-6.392 48.094 28.158 21.118h-21.118zm73.274 21.118h-21.118l28.158-21.118zm-17.117-76c0-2.209 1.791-4 4-4s4 1.791 4 4-1.791 4-4 4-4-1.791-4-4zm-32 0c0 2.209-1.791 4-4 4s-4-1.791-4-4 1.791-4 4-4 4 1.791 4 4zm4.285 5.487c-.82-2.053.178-4.379 2.229-5.201 2.062-.816 4.381.18 5.201 2.229l4.285 10.717 4.285-10.717c.82-2.051 3.139-3.051 5.201-2.229 2.051.822 3.049 3.148 2.229 5.201l-8 20c-.609 1.518-2.08 2.514-3.715 2.514s-3.105-.996-3.715-2.514zm-8.285-13.487h-8c-2.209 0-4-1.791-4-4s1.791-4 4-4h8c2.209 0 4 1.791 4 4s-1.791 4-4 4zm36-4c0-2.209 1.791-4 4-4h8c2.209 0 4 1.791 4 4s-1.791 4-4 4h-8c-2.209 0-4-1.791-4-4z" fill="url(#SVGID_1_)"/></g></svg>